<mxfile host="app.diagrams.net" modified="2023-10-15T10:40:04.494Z" agent="Mozilla/5.0 (Macintosh; Intel Mac OS X 10_15_7) AppleWebKit/605.1.15 (KHTML, like Gecko) Version/16.4 Safari/605.1.15" etag="SIrqqHbLBlrJNjXsECeE" version="21.7.5" type="github" pages="3">
  <diagram id="23iRSUPoRavnBvh4doch" name="Page-1">
    <mxGraphModel dx="719" dy="719" grid="1" gridSize="10" guides="1" tooltips="1" connect="1" arrows="1" fold="1" page="1" pageScale="1" pageWidth="827" pageHeight="1169" background="none" math="0" shadow="0">
      <root>
        <mxCell id="0" />
        <mxCell id="1" parent="0" />
        <mxCell id="6gJS4afnVGDZ6o405xp5-42" value="" style="fillColor=#F6F6F6;strokeColor=#E6E6E6;shadow=0;gradientColor=none;fontSize=13;align=left;spacing=10;fontColor=#636363;9E9E9E;verticalAlign=top;spacingTop=-4;fontStyle=0;spacingLeft=40;html=1;labelBackgroundColor=none;labelBorderColor=default;rounded=0;glass=0;expand=1;autosize=1;" parent="1" vertex="1">
          <mxGeometry x="130" y="28" width="1051" height="780" as="geometry" />
        </mxCell>
        <mxCell id="6gJS4afnVGDZ6o405xp5-190" value="" style="strokeColor=#7EA6E0;strokeWidth=1;shadow=0;labelBackgroundColor=none;labelBorderColor=none;fontSize=13;rounded=0;fillColor=#f5f5f5;fontColor=#333333;" parent="6gJS4afnVGDZ6o405xp5-42" vertex="1">
          <mxGeometry x="20" y="60" width="870" height="700" as="geometry" />
        </mxCell>
        <mxCell id="QQVwfaRXn0pB_fzaaOhz-11" value="" style="strokeColor=#009999;strokeWidth=1;shadow=0;labelBackgroundColor=none;labelBorderColor=none;fontSize=13;rounded=0;fillColor=#f5f5f5;fontColor=#333333;" parent="6gJS4afnVGDZ6o405xp5-42" vertex="1">
          <mxGeometry x="530" y="630" width="340" height="110" as="geometry" />
        </mxCell>
        <mxCell id="g3mcLFEqI1_pV3j1C8BT-15" style="edgeStyle=orthogonalEdgeStyle;rounded=0;orthogonalLoop=1;jettySize=auto;html=1;exitX=1;exitY=0.5;exitDx=0;exitDy=0;strokeColor=#CCCCCC;entryX=0;entryY=0.5;entryDx=0;entryDy=0;" parent="6gJS4afnVGDZ6o405xp5-42" source="g3mcLFEqI1_pV3j1C8BT-7" target="QQVwfaRXn0pB_fzaaOhz-11" edge="1">
          <mxGeometry relative="1" as="geometry">
            <mxPoint x="510" y="672" as="targetPoint" />
          </mxGeometry>
        </mxCell>
        <mxCell id="g3mcLFEqI1_pV3j1C8BT-7" value="" style="strokeColor=#009999;strokeWidth=1;shadow=0;labelBackgroundColor=none;labelBorderColor=none;fontSize=13;rounded=0;fillColor=#f5f5f5;fontColor=#333333;" parent="6gJS4afnVGDZ6o405xp5-42" vertex="1">
          <mxGeometry x="34.5" y="630" width="415.5" height="110" as="geometry" />
        </mxCell>
        <mxCell id="6gJS4afnVGDZ6o405xp5-288" style="rounded=0;orthogonalLoop=1;jettySize=auto;html=1;exitX=1;exitY=0.5;exitDx=0;exitDy=0;strokeColor=#808080;fontSize=11;fontColor=#666666;startArrow=none;startFill=0;entryX=-0.007;entryY=0.609;entryDx=0;entryDy=0;entryPerimeter=0;" parent="6gJS4afnVGDZ6o405xp5-42" source="6gJS4afnVGDZ6o405xp5-271" target="6gJS4afnVGDZ6o405xp5-100" edge="1">
          <mxGeometry relative="1" as="geometry">
            <mxPoint x="475" y="451" as="targetPoint" />
          </mxGeometry>
        </mxCell>
        <mxCell id="6gJS4afnVGDZ6o405xp5-292" style="rounded=0;orthogonalLoop=1;jettySize=auto;html=1;entryX=0.01;entryY=0.942;entryDx=0;entryDy=0;entryPerimeter=0;strokeColor=#808080;fontSize=13;fontColor=#666666;startArrow=none;startFill=0;exitX=1.002;exitY=0.918;exitDx=0;exitDy=0;exitPerimeter=0;" parent="6gJS4afnVGDZ6o405xp5-42" source="6gJS4afnVGDZ6o405xp5-271" target="6gJS4afnVGDZ6o405xp5-178" edge="1">
          <mxGeometry relative="1" as="geometry">
            <mxPoint x="430" y="540" as="sourcePoint" />
          </mxGeometry>
        </mxCell>
        <mxCell id="6gJS4afnVGDZ6o405xp5-271" value="" style="strokeColor=#C3ABD0;strokeWidth=1;shadow=0;labelBackgroundColor=none;labelBorderColor=none;fontSize=13;rounded=0;fillColor=#f5f5f5;fontColor=#333333;" parent="6gJS4afnVGDZ6o405xp5-42" vertex="1">
          <mxGeometry x="40" y="310" width="380" height="280" as="geometry" />
        </mxCell>
        <mxCell id="6gJS4afnVGDZ6o405xp5-44" value="" style="shape=image;verticalLabelPosition=bottom;verticalAlign=top;imageAspect=0;aspect=fixed;image=data:image/png,iVBORw0KGgoAAAANSUhEUgAAAMYAAAAuCAYAAABzjGayAAAAAXNSR0IArs4c6QAAFsdJREFUeF7tXXl8lcW5ft6Z7yQhJDlJ2Kt1RdDKlRbUVivW2rrUa4EWRG+lSU4C5AJ1aYv1trYFvC64L7VqlOQQ0FqXQl2KVtpS0BYXKq2KrYAs0opA1hNCknO+mbm/+Y4JWb71nAQoN99/53fe2d6ZZ+addxtCul9FXRiZobGAmABi4yDFaICGA3IgFJkgqgfRDgDvQMl1kPwNfJi7GQtJptt0f/mAHLh75wAU5u2EkoNsS3JjF7JyjsM0iges+Ygjp5RGpBlcEL4IpGYAOAeMhSEloDzWOuO6ORNKbQXUr6Aoikh4c0p96C8UnAP9wPDNs2DAqPgoGxkDS8BoHoDjIYXvhnoSEsB4G6BWwhQLUVbwtzQq6y/qhwP9wPDDJYvGPzCiDReAsfuh1MmeJ4Pv5j8hZEYblKzCfnUD5uTXBy3eT++TA0cqMKpjg9DKM4DsGpRTwic3XMm8gWExM38RSM2FFJYs1Ccf6ROEbUPCLEJZ4at90sb/90qPNGBYmzWfDyXHAAiB+G7IRDVq2u7EdcOb05lud2A8um8YMuSvoOQXoVQ67fgvy4xWCHEtSvMr/Bfqp/TFgSMJGNWN3wGxeyBMo8vYiemfr0Dk/SfKqMkXX2yInIHxaO3RCBm/h5KjUq085XLEJKT4KUoLb065jv6CPTlwpADj0brTEDLegBKZttOspQ/CgyjOn5vqMrAHxtKmoVBqbVL1GuDTaNWaJ2EKEOJQxMAoA8QIIqDoR1xCyutRmn9ngB70k7px4EgBxpLGBwA111WKIRZDmzgG5YWNqSyKnsCIqixQ08tQYoKvCq2jSzWDsT8iEf8tQOth8j0wQi2gVg6GPCg6AcS/DKJLAJwEKazzzvXTqAd7BbHcC3A1tXmR9//vgwNHCjCW7V8Ls819fep1acpxmFGwwQdnepD0BMaS2N2A/K7nnSK5cHdDmfegNR7F7OF7PDtw2VMcF331C+DsxyB2IZQDQKyTB4+jpXkWyj+137PefgJ/HDhSgLF03+sQiTPdN1YGCDobZXnr/DGnK1VXYCyuPxch/jtIEXJvlGtLXhSy+YcoHbE3lYZRFbsUXD0AqY4FOl3s9f1CqUXYvmE+Fn7ZTKnu/kL2HOgHhu+VcQAY96tMhJvegBSnuZZmof2Qci4ieUt8t+JEWNU0BAxPAOIr1gnFjP2Q5lWIFFSlXbdbBfMVwzE1wwE2BsSOApBrkSvEwGknVHwjtg/Zc9DdViwD6oBRAJ0Eqd02KAtQrWCsFlCbEW/ZlNYJ2g8M38vqADCitaVgoUpXa7a1cOVliIRX+m7Bi1AvhsyBT4KxMyHMyxEp+KNXkZT/r9w9FizzSjB+EZQ4FSAOSyRsP7Go3a3FBDPehkyshBKPIzL4Hym36VXQcq/JmwTGpkHJcy0/Ji1KdvRL90kl+0VUB8bXQsqn0Jb3LMopmJjZ28B4Svm3a20EYSH1jgRw0ESpp1QGWpregRTOqlkt4ggZQVnBUq+5Dvz//bV5GMAHYWb+tsBl/RSoahgHw1gAKfTln/u23Cd14gkwvhxtrQsxc/Df/TTni0af0LkNs8DYPCgc47tPunJm9WsnpLwLyK9AhFp9tdlbwIhuywIrvAuKLgZ1loMdekEcMOOPIyf/RkyjdPyIkg0cNGBU1n0NhrHS8bRIWqUfQVFeua8JOFyIrNMoeyGIXQ0pMlLvljX+FkhxK5ryb09bS/bo3vEwQpUgGhsIEN0HkNQIvo04zcCs8Jue4+sNYFTEBiOLHoOSF/nqOzEBqPkoDt8Cot6xEh80YCyJPQMlpjgylvFdSKgxmBGu82T+4UJQ2fwpGOJpKHW2rwn0029LxMHvsL/lSl9aOLs6o/UlYKEHIBMD/TTpi4bzZihcjeI897tZusB4ZO8oZGT8GlCneGotrZPNaISQs1EafsLXOPwSHRRgVO7NBc/YASULbPulF4OS30Wk4F6//T7kdIvrj4XBV0HJk7povHqjY0k19dtoa7sY5UN2BaoyWvs9sNDtfeJzpkVdyB+gpOAuxz6lA4yqmvNhZP4Cwhzma8zEdkImLkPp4Nd90QchOijAqK47B5SxFiJhbwVnvB4JNfLf5rTQR32GWgPIzwThdTBa7XJAb6JNXODbshptmAnGHuoTULR33gIHzUBJXtR2PKkCIxorBVM/g5TZnnxKbhxvgsypKC780JM+FYJl+1+DGf+8a1FrQzfOQiT7tVSaIETrrgfxRY7iBtEzKMm/LJXKD3oZpQjVTU8Dcoqvo153MHnB/uTT2h+fYnBSc1SF4rwyz3EuaRgPYmsghT/xyVpcnfepAP1ivBkJMcHW4hsUGFrrtK/+f8GNH/gCtMVLegFt5nTfGwaA+auRlZnAeEY4kbRyxOPbUrPoR8IceIIbmSKiK4763c0XjvjrVq/6YIpaGFhPJ+/8qGOPQXXsaUgx1UWMiiBSkL7NwrN3vUCg5XdiUc87hWVZZ7tgmi9BYS0gPwLXPl7i0yB2nqXOhRziCRLGFMzEFJQNXuHYe619you9BiU/6zlCxrU6801I+QKg3oOgJpDKA+FU8NClgBgPKbt6k9pVSsZbiOWc3UNJEAQYS9VAqH2VUOJyTz4kNxgFRveiZdP1KD/dt2PcbS/jK+B4mICRnvxJEqjiBoihAu580HvJScMFcrI8gWbtQQItxNQDiO/4MY1BnBBtfBeQp9p2iocURHwsIoXv+Oz0oSPTsedZoY2QpjbYOX+M10CYC5ForXI0lln3LuNBKJrueUdhbAtam8c61lXVeDU47rNCf50+yxuUfgvwH6A4521HuqrGz4NhJZQsdB2jtXPLa1BScH8XOr/A2F0zGLmZKwB5pi9Q6EAzkZiH0sIHgiyAW1fhPINjpTAxIEA5VdIEc5iAu3eGBsbI4QlkZ7nTdW44aT6K4qTtZYRovY6Yy7c/MWg/muMnYu7QjwN0/ABptO5HYMaklMo6FWKcEG+bj7LCF7uQRBuuA9HtrqcF0QaY6huYUaCTMzh/1bEZUPgZlMhyX4B6QbM1aDUn2YoOFSobmbF/QMlPO9ajTwkpf4zt4TtcLe1Vu4aAZT8BqKSXgNvHjRYkzDko63bSewGDGR9BiYkgvhzSPMbXvDGjDlJeiUj4JV/0nxBVrEeoMYa3pAkdZBTk6ztg6F5wncJDnEeoqtcu4vbersRrYeSegOkUC9LzDtpo3cMAK/fcdYNUrt3apZyNSP7DHcUq1oeQNfpdSNPZQMn4RojmL7v6ds1XBo5rvAlE10FJdw/g5B0jigGNczHt0y22Q6iqmw5uLHO0D2lRTMnrXDVJuuKKmpORlfE8pBzpyUvOayDlFSjJ/32PPnkBA9QGojiUTLrIuO8KAKMPoMxJKBm00Yu6+/+3rsTneCb+IvXqC/b1LTCSUuHyf09gCHMOSgsf6gTACSC+1vG0YFwb585GpOCvjnOgxScjqwpKTPXckfUur+QCbAvf6rrLVzc9C2lOdGyT+Apsu2sqFi50lrOS4ZtPQJr2KW86KreMkO/DxCSU5b1v26YnMHyu0KRy4FUkWqdi5rDdPkt1IVu0CpMY4dduEqZDvX0ODMC6Y/SpKNU3J4Yyp6Ok8PEOxlXV3QTGb7AFhiW/8wdQnHuV4wTqaMWM0Aooebo3KIwmiEQ5SgvdjVZ3fDwQg7P+BaiwbbtMizvyNMwIb3HsV1VDORi/D8q0j1RrL5g8vVajFdNQnlfjWF9vACOpeVqKtn2z03FoXPRbnMsMrEkh0UzfA4PUX/v28t0XohQPAdL8ahdR4bGWF5Fovdh+QZAE8dNQkmt/3Gs/Ks71zn60587H+L8gE1MRGeStG6+qPRvMeBVK2osKxJ5HSdj+NNEi3QnNt0LJ7znGrHQFxWLI3Ks8fabSBYZ275DyRuzIvyldz+P5K5A/MBebpcRgT753JehbYGhJXYgI9am6ti+AoUNeGY1BUW7SoW/W+hDOGf0ehGmv7mPGRmzNOc12Iitrp8AIRSGFu0xtiQ7YgISYiJmD/ulrIpc0ai/ex2xDei3jE0VsXfcfq82DzKiGFJO9Ty/r4v4TlIRv8+WHlA4wuLHPOikjhb/wNX4fRItWYR4R7vDK09etqr4FBlMbqVac0bcGviV1FSBjlucEdxm5UtCGOqePWANY3tEoomR6lKTIsgtQ9ovbyHgG3x7YzUCp9Ek5D4zfDGl6BGVZYsoKDMgtwjTa52O+kySVDdfBYNr9o2cRKy5ejkdp/ltd/kwmoHgeSn3W85LNjCYoRFCS+yvffUoVGMzYBTM+BWWDUoqGc+rfZU+Bn16I24hwjfSySxyopG+AwbVJVb0LM34pfWbXDkJl3TkwQq9AOrjKp+MSUrH7RIQG+POt6Ri4KAehyHGyGf8zivO+2PF/pcoFb6yDUjYGH32/UItRUjCzg14vjkF5d0KpOZ6A1UYr4F5s2/k/WDgmWD7XyvoF4EznPLIHhhTHI1KwveNPbR0HLYeS3mpSLdIlzMsxo/BPvkGhCVMBBrE9iMcnYNaQTYHaCkB8y0uYYBi4HITjHTWk7fVJoOiDAeML2sjexNBOp0D8jPzX+ZAM7xQ6Cg1Q8g8It/2Chu+2NlzC4eREuPTjgVAD33PUoWuRRqkFiBQs7OD7U3tysD9jL5RysjksQ6QgCTQdMcihXaYv9LSO6/ShSn0fJeGfB5jjA6RLGm4A6CZHYJhtJ6NsSFJ7FK3/JhivghT2F/X2WpOKhA2IN0/BzOHBY1dSAoZOvk0PIbbn+7j6pMMiKUXtxJNfi0vl6ivF9P4vzLOGv7jF+z5oM8FJkeVwcTuvapgHRnc4q10NgXhiHGYWHrAOW0Ezg7ZCihG2CziUuRrTs8/HI7FRyFC/hlKneIspoVqY8W/3MCIGQUhVXTl46GHbk1jfMYS4xKrfMkyym6G84uwts8pzCKkSXJliGtNUgGFtn9qFhlZCoQjFebVB2NAXtLWTRr+ekHBNhmBFqihx9rAXtqQk/iWBcTgEKi3eMxKhrPWuuyZjG7D17tO76v0VYdn+dY7elkQxKFUMxisgxVD3idK2APoACTEZMwrfTWtSo42XgLHf2Iuo1sl3PwwWglSzfYl0RHdh64c3BBbpOg8iVWBY4LCWyrtoa5uM8mEfpMWbNAsfPGAc6tDWyn/kgo/4g2VHcPosi7ewd2iMxioBWep4EujIMbcLffvEE1sLostQlNszFVC07hKAvmDbPR1qasrVKCtY3fF/Rd0xyGSboZRD5KD1PohWT7kvE7eUpcl48XmAtFcgEDOh6m5H5Phk6Gs6wGjvJTM+hmi9AqVD1qS5vlMufvCAYcm5hzIZQs4vAfl198xyfCuyc8dgGvV0v4jWfxvElnreG5ymImkgq0Zr7hzbBAOPNxTANN6FEp+yB4aOaU5MRmnBs13+r479zTPritvyYLwWZuJbKBv0si3Z4vprEDLudRw3D72FzAFndsRZ9wYwdEe0a7tWXpSEez/+3wdcDi4wDof0OW4LV4jpKOtk7e5Ma6XhEduglL94h85lrZhktgDb7rzF1jVDp9o5PhaFUkUuJ1ItmuPHYe7QrurcaP2NIPaT4IC13Ds2IR6f7JiAYWnTKZDyz1DSyQFUyz83oiQ8v2O4voDROWuKyypNRgzegt+sWoCnp6Wf4MAHINpJDi4wdKuP1H8JmXyV/4Rr9EOU5qaYcK3uUnDeM+GaHYOIfo/s8EWuGSaq9y2DNL3dxDvXz/g+SFWOSNjeaJUExY0g/AjSyYJtuYw/iOJwzwTC1bFRUHjbMfmw/Vj1lrwajK6wFel0mcqGE8DpZSh5ouN6Ikur9h9dXqzyAgaxvSA8DYXZjhb7rpuK7uvjEK2zUTbEWy0aYPG7kR58YFgiVeM9IHWt94VQ7yx8N1Si91N0duYK5/WQLWegxOPCF605AxRaByW9A1N0/fotBWFOdXyLQz9Gom0YSk73EPHakIh/znFnr278JaS63PMu0SHD82Vo3fffjn5I0caLQaQDiOzFOqseS4nwBIrD3+qywLyAod/g+2DHcTjmqKtg8Fs9N0irKUtb9ipaWqaknCAiIGAOETB0Uud9L0OZ/pM6E7QIsRZm4iUrqTPneyDakzpn5EElgid1TsqyJqTQSdiW++LdktgyayF7XWj1wlFqMQzjbrTkbOl4hUcrIWL1o0D4LxjaYi8Hu4PC2hx+jpLc7zj279GaU5CR8aavsFaiGghVBmpd18U9XouKSp0Fpr4DRud7hpkS2w8RH9dhJ2nvnB9gtD9OuSQ2EQTtMp/nzXvr1NyKuDkRs4K7oHvX35Xi0ABD90E/AyDlK4Hfxuj8DACsJ58o5WcAGJdQwj3rRXeOVuwdgcyMDVDS29qeTIUjoBejgk4LpFe5jowbZJ06XsFAyd1yO0yM90wUUVV3Axi3N/Z1HwMzACX2gVgNoF1QVA6gBgMsx9E7obt4o9QPEclf1GPBBQGGJbLVj4VhPNfXQUuBgTFx1LqEctAQflKZPseEUp8f8cKmN4LW/8mZ61DsUD8cA/VTlOQHfzhGixqMnk0vwZoPVup0pfGWizFz6Cue1KuVgQ9jz0KpS3wBzrNCJwJLhFqJ1s2TbeOugwJDN7OseQSk+UwyP5ePRBHJ9xRT9xjwMfa9E0c/KRSmuZFyQgItOG7Iqvc7Ehz4qLqDxMdTY2K5b6YEadlxbvWl0bwWkcIDEXpB662qmw1m6NBUf/eNoPUTT4BUKYrDj/kuurixECF6EVKe6S3q+a61E6ElzvwF+9UFjg98pgIMS4LQiRGaH4YS031p2KyMg+xetOVe31uPRXbmyO5LR32DiJa7PZ7NCasHP/f+V7TQnCI3PYolne5uA2iOp2ybSg/ay1h+QGw7pFmESKH3LuzVVnVDOcDvg/QI8vGqp/v/+qQQshylAUDRXocFDrYCSpzra/f127dkLqc/oQ2T0wpU0pfv9jtG97atVDoNPwVnN0D6UHAkbUPPobm+BHOO7dWXeDXqaieOflIqTLUDR4hQE0+IL414cct7flnYnc5/vG2fPmccagOJKuzr5eeMKxu+CoMtgZJHpb0Qk4tP5ygqQkleMK/Wzly3Nhrr+bRySDP9E41xAdBitOZ8zzP7eaonRuf+V9YXwTAegjS9k6/paxuxjUjIr/d2wu6dZx09IHNw9m2MWBmgsvWxYKlUFN6SSpUNe2FTWu/G+weGZo5OkmxkRRDK+D6UPN71yQBPqGp52NK1vwghFqCsIK2BODZnJSHGLQAVQerHDIOerJ8kdFZUgbbEgiCJxFxZsKThQhC/G1CnpsRHnUGc0d+ttDWRQn/PMvQGMPSgkqEKT0Oawz2nWROQsdvKvxXUTd5H5bVfG3l0wuDjOWhgQibeH9H8wd/oj0j7uYFgwGjvqLXr5VwMpdGKc8B42NKYeF3OtL8TwYTCVki5HAkWxay8PvPz78JXrTYNZVwLwjcBGpxcjA4gSbp36/HsBtSTEOo+lOV7Z7TzMZFdSO7fnIncod8A0TUgjAOQ4f4+iXXAJKCwAdL8GajgGc9w1u6nVWHeTusNDrvPTZTqTq+NjIyeB6nPeM67LqtFUCTKUVzo/14WlJ+9SJ8aMDp34J76fBQYpwFiAoiNg1SjATlCH28ACSjUg2EHwN6BkOsA/jo+zN2cbsxwyjz4+Z4c5ITOgKILAJwJhZHJx1pIgagWoE2Q8g1IrIJoWZ9OwH+gPi5pOBFSnQvGzoOUY8HoKEiVDYL2DfsnmLag0xqYtMY1gYJbo711YrS38WBDAQawZwB5vq+TmDG9HhagJHxTIN4cAuL/AwOfp4RV4Ze2AAAAAElFTkSuQmCC" parent="6gJS4afnVGDZ6o405xp5-42" vertex="1">
          <mxGeometry x="11.081773399014779" y="22.94285714285714" width="55.04231602879879" height="12.786661614247823" as="geometry" />
        </mxCell>
        <mxCell id="6gJS4afnVGDZ6o405xp5-46" value="G-Plan Cloud Platform" style="text;html=1;strokeColor=none;fillColor=none;align=center;verticalAlign=middle;whiteSpace=wrap;rounded=0;fontSize=14;fontColor=#636363;fontStyle=0" parent="6gJS4afnVGDZ6o405xp5-42" vertex="1">
          <mxGeometry x="69.75" y="12.89" width="160.25" height="32.89" as="geometry" />
        </mxCell>
        <mxCell id="6gJS4afnVGDZ6o405xp5-174" style="edgeStyle=orthogonalEdgeStyle;rounded=0;orthogonalLoop=1;jettySize=auto;html=1;exitX=0.837;exitY=1.024;exitDx=0;exitDy=0;strokeColor=#808080;fontSize=11;fontColor=#666666;startArrow=none;startFill=0;exitPerimeter=0;" parent="6gJS4afnVGDZ6o405xp5-42" source="6gJS4afnVGDZ6o405xp5-90" edge="1">
          <mxGeometry relative="1" as="geometry">
            <mxPoint x="560" y="310" as="targetPoint" />
          </mxGeometry>
        </mxCell>
        <mxCell id="6gJS4afnVGDZ6o405xp5-285" style="rounded=0;orthogonalLoop=1;jettySize=auto;html=1;exitX=0.25;exitY=1;exitDx=0;exitDy=0;entryX=1;entryY=0;entryDx=0;entryDy=0;strokeColor=#808080;fontSize=11;fontColor=#666666;startArrow=none;startFill=0;" parent="6gJS4afnVGDZ6o405xp5-42" source="6gJS4afnVGDZ6o405xp5-90" target="6gJS4afnVGDZ6o405xp5-168" edge="1">
          <mxGeometry relative="1" as="geometry" />
        </mxCell>
        <mxCell id="6gJS4afnVGDZ6o405xp5-286" style="rounded=0;orthogonalLoop=1;jettySize=auto;html=1;exitX=0.25;exitY=1;exitDx=0;exitDy=0;entryX=0.5;entryY=0;entryDx=0;entryDy=0;strokeColor=#808080;fontSize=11;fontColor=#666666;startArrow=none;startFill=0;" parent="6gJS4afnVGDZ6o405xp5-42" source="6gJS4afnVGDZ6o405xp5-90" target="6gJS4afnVGDZ6o405xp5-271" edge="1">
          <mxGeometry relative="1" as="geometry" />
        </mxCell>
        <mxCell id="6gJS4afnVGDZ6o405xp5-287" style="rounded=0;orthogonalLoop=1;jettySize=auto;html=1;exitX=0.25;exitY=1;exitDx=0;exitDy=0;strokeColor=#808080;fontSize=11;fontColor=#666666;startArrow=none;startFill=0;entryX=0.857;entryY=-0.013;entryDx=0;entryDy=0;entryPerimeter=0;" parent="6gJS4afnVGDZ6o405xp5-42" source="6gJS4afnVGDZ6o405xp5-90" target="6gJS4afnVGDZ6o405xp5-271" edge="1">
          <mxGeometry relative="1" as="geometry">
            <mxPoint x="360" y="313" as="targetPoint" />
          </mxGeometry>
        </mxCell>
        <mxCell id="g3mcLFEqI1_pV3j1C8BT-41" style="edgeStyle=none;rounded=0;orthogonalLoop=1;jettySize=auto;html=1;exitX=1;exitY=0.5;exitDx=0;exitDy=0;strokeColor=#808080;fontSize=12;fontColor=#999999;startArrow=none;startFill=0;entryX=-0.018;entryY=0.082;entryDx=0;entryDy=0;entryPerimeter=0;" parent="6gJS4afnVGDZ6o405xp5-42" source="6gJS4afnVGDZ6o405xp5-90" target="6gJS4afnVGDZ6o405xp5-178" edge="1">
          <mxGeometry relative="1" as="geometry">
            <mxPoint x="720" y="241" as="targetPoint" />
          </mxGeometry>
        </mxCell>
        <mxCell id="6gJS4afnVGDZ6o405xp5-90" value="" style="strokeColor=#A9C4EB;strokeWidth=1;shadow=0;labelBackgroundColor=none;labelBorderColor=none;fontSize=13;rounded=0;fillColor=#f5f5f5;fontColor=#333333;" parent="6gJS4afnVGDZ6o405xp5-42" vertex="1">
          <mxGeometry x="40" y="211.25" width="620" height="60" as="geometry" />
        </mxCell>
        <mxCell id="6gJS4afnVGDZ6o405xp5-99" value="API Transfer" style="sketch=0;html=1;verticalAlign=top;labelPosition=center;verticalLabelPosition=bottom;align=center;spacingTop=-6;fontSize=11;fontStyle=0;fontColor=#999999;shape=image;aspect=fixed;imageAspect=0;image=data:image/svg+xml,PHN2ZyB4bWxucz0iaHR0cDovL3d3dy53My5vcmcvMjAwMC9zdmciIGlkPSJzdmczNjAwOCIgdmVyc2lvbj0iMS4xIiB2aWV3Qm94PSIwIDAgMTIxLjI1MDg4IDEwMC4wNjkyMyIgaGVpZ2h0PSIxMDAuMDY5MjNtbSIgd2lkdGg9IjEyMS4yNTA4OG1tIj4mI3hhOyAgJiN4YTsgIDxkZWZzIGlkPSJkZWZzMzYwMDUiLz4mI3hhOyAgPGcgdHJhbnNmb3JtPSJ0cmFuc2xhdGUoLTQ2LjIyMTU4LC05OC4zMzc4OCkiIGlkPSJsYXllcjEiPiYjeGE7ICAgIDxwYXRoIGQ9Im0gNzkuNjMyOTE4LDE0Ni45MDY4OSA2Ljc2MTM0NSw2LjY3NDAxIC0xNC4xNjk0MiwxNC4yODQ0IGggNDcuMDI4OTA3IHYgOS41MDAyIEggNzIuMjI0ODQzIGwgMTQuMjA4NjkyLDE0LjMzNjU5IC02LjczMDMzOSw2LjcwNTAyIC0yNS41NjYzOTQsLTI1LjY2NDA3IHogbSA2Mi4zNDM0MzIsLTIzLjcxOTU4IC02Ljc2MTM1LDYuNjc0MDEgMTQuMTY5NDIsMTQuMjg0NCBoIC00Ny4wMjg5MSB2IDkuNTAwMTkgaCA0Ny4wMjg5MSBsIC0xNC4yMDg2OSwxNC4zMzY2IDYuNzMwMzMsNi43MDUwMiAyNS41NjY0LC0yNS42NjQwNyB6IiBzdHlsZT0iY29sb3I6IzAwMDAwMDtvcGFjaXR5OjE7ZmlsbDojNDI4NWY0O2ZpbGwtb3BhY2l0eToxO3N0cm9rZS13aWR0aDoxOy1pbmtzY2FwZS1zdHJva2U6bm9uZSIgaWQ9InBhdGgzNjE0Mi02Ii8+JiN4YTsgICAgPHBhdGggaWQ9InBhdGgzNjE0NiIgZD0ibSAxMDUuMzM1OTQsOTguMzM3ODkxIGMgLTExLjEyNjE1NywtMC4wMDg1IC0xOS43MDYxNTEsNC45OTk5MjkgLTI1LjQ3ODUxOCwxMS4xNTQyOTkgLTQuODYwMjQ5LDUuMTgxODkgLTcuODUwMDUzLDExLjAzNjc3IC05LjY2MDE1NiwxNS45OTIxOSAtNy45MTYyNCwxLjUyOTA1IC0xNC45NzI2NTksNS44MzI0NCAtMTkuMDk5NjEsMTIuMTAxNTYgbCAtMC4wODIwMywwLjEyNSAtMC4wNzQyMiwwLjEyODkgYyAtMy44NTQxNTcsNi43NDA3NCAtNS4wNjQ5NTksMTIuNDUwODYgLTQuNjM4NjcyLDE3LjI5MTAyIDAuMjM0MDk5LDIuNjU4MDIgMC44OTI4Nyw0Ljk0NSAxLjYyNTExOCw2Ljk0OTk5IGwgNy45ODk2ODcsLTYuNjU1NTggYyAtMC4wNjcxMiwtMC4zNzM1IC0wLjExODQ2OCwtMC43NDg2NSAtMC4xNTE5MTQsLTEuMTI4NCAtMC4yNDI0LC0yLjc1MjI5IDAuMjUzNjU4LC02LjExNTY3IDMuMzMwMDc4LC0xMS41NTY2NCAyLjgwMDQzMiwtNC4xODk2NSA4Ljg1Mjc1NiwtNy44NjkzMyAxNS4xMDM1MTYsLTguNDIxODcgbCAzLjIwODk4NCwtMC4yODMyIDAuOTIzODI4LC0zLjA4NTk0IGMgMS4yNTQ5ODEsLTQuMTkwMDIgNC4wNDA3NTksLTEwLjI1NDYyIDguNDUzMTI1LC0xNC45NTg5OSA0LjQxMjM2NiwtNC43MDQzNiAxMC4xNzYxMywtOC4xNTg3NSAxOC41NTA3ODQsLTguMTUyMzQgeiIgc3R5bGU9ImNvbG9yOiMwMDAwMDA7b3BhY2l0eToxO2ZpbGw6I2FlY2JmYTtmaWxsLW9wYWNpdHk6MTstaW5rc2NhcGUtc3Ryb2tlOm5vbmUiLz4mI3hhOyAgICA8cGF0aCBpZD0icGF0aDM2MTQ4IiBkPSJtIDEwNS4zMzU5NCw5OC4zMzc4OTEgdiA5LjQ5OTk5OSBjIDkuNDA2OTksMCAxNi40NDYyOSwzLjY2MzUyIDIzLjU2OTA1LDEzLjkzMDExIGwgNi45OTQyOCwtNi41MzY0NSBDIDEyNy42MDIxOCwxMDMuOTc3ODYgMTE3LjE5MzcxLDk4LjMzNzg5MSAxMDUuMzM1OTQsOTguMzM3ODkxIFoiIHN0eWxlPSJjb2xvcjojMDAwMDAwO29wYWNpdHk6MTtmaWxsOiM2NjlkZjY7ZmlsbC1vcGFjaXR5OjE7LWlua3NjYXBlLXN0cm9rZTpub25lIi8+JiN4YTsgIDwvZz4mI3hhOzwvc3ZnPg==;rounded=0;shadow=0;glass=0;labelBackgroundColor=none;labelBorderColor=none;strokeColor=#E6E6E6;fillColor=none;gradientColor=none;" parent="6gJS4afnVGDZ6o405xp5-42" vertex="1">
          <mxGeometry x="241.5" y="222.78" width="36" height="30" as="geometry" />
        </mxCell>
        <mxCell id="6gJS4afnVGDZ6o405xp5-100" value="" style="strokeColor=#FFCE9F;strokeWidth=1;shadow=0;labelBackgroundColor=none;labelBorderColor=none;fontSize=13;rounded=0;fillColor=#f5f5f5;fontColor=#333333;" parent="6gJS4afnVGDZ6o405xp5-42" vertex="1">
          <mxGeometry x="480" y="310" width="180" height="230" as="geometry" />
        </mxCell>
        <mxCell id="6gJS4afnVGDZ6o405xp5-101" value="Token Security" style="sketch=0;html=1;verticalAlign=top;labelPosition=center;verticalLabelPosition=bottom;align=center;spacingTop=-6;fontSize=11;fontStyle=0;fontColor=#999999;shape=image;aspect=fixed;imageAspect=0;image=data:image/svg+xml,PHN2ZyB4bWxucz0iaHR0cDovL3d3dy53My5vcmcvMjAwMC9zdmciIHhtbG5zOnY9Imh0dHBzOi8vdmVjdGEuaW8vbmFubyIgd2lkdGg9IjIwIiBoZWlnaHQ9IjE3LjI3OTk5ODc3OTI5Njg3NSIgdmlld0JveD0iMCAwIDIwIDE3LjI3OTk5ODc3OTI5Njg3NSI+JiN4YTsJPHN0eWxlIHR5cGU9InRleHQvY3NzIj4mI3hhOwkuc3Qwe2ZpbGw6IzQyODVmNDt9JiN4YTsJLnN0MXtmaWxsOiM2NjlkZjY7fSYjeGE7CTwvc3R5bGU+JiN4YTsJPGNpcmNsZSBjbGFzcz0ic3QwIiBjeD0iOS40NCIgY3k9IjguMTQiIHI9IjIuOTciLz4mI3hhOwk8ZyBjbGFzcz0ic3QxIj4mI3hhOwkJPGNpcmNsZSBjeD0iMi4wMiIgY3k9IjcuNDMiIHI9IjIuMDIiLz4mI3hhOwkJPGNpcmNsZSBjeD0iMTIuNTIiIGN5PSIxNS4yNiIgcj0iMi4wMiIvPiYjeGE7CQk8cGF0aCBkPSJNMTcuNTcuODRBMi40MyAyLjQzIDAgMSAwIDIwIDMuMjcgMi40MyAyLjQzIDAgMCAwIDE3LjU3Ljg0em0wIDMuOGExLjM3IDEuMzcgMCAxIDEgMS4zNi0xLjM3aDBhMS4zNyAxLjM3IDAgMCAxLTEuMzYgMS4zN3oiLz4mI3hhOwkJPHBhdGggZD0iTTE2LjIgMy4zMkE4LjI5IDguMjkgMCAwIDAgMTEuMTQgMGwtLjI4IDEuMzRhNi45NSA2Ljk1IDAgMSAxLTguMjIgNS4zOCA2Ljg4IDYuODggMCAwIDEgMS44Ny0zLjQ3bC0xLTFhOC4zMSA4LjMxIDAgMSAwIDEzLjM4IDIuMiAxLjM2IDEuMzYgMCAwIDEtLjY5LTEuMTN6Ii8+JiN4YTsJPC9nPiYjeGE7PC9zdmc+;rounded=0;shadow=0;glass=0;labelBackgroundColor=none;labelBorderColor=none;strokeColor=#E6E6E6;fillColor=none;gradientColor=none;" parent="6gJS4afnVGDZ6o405xp5-42" vertex="1">
          <mxGeometry x="130.98" y="220" width="39.41" height="33.78" as="geometry" />
        </mxCell>
        <mxCell id="6gJS4afnVGDZ6o405xp5-102" value="Routes" style="sketch=0;html=1;verticalAlign=top;labelPosition=center;verticalLabelPosition=bottom;align=center;spacingTop=-6;fontSize=11;fontStyle=0;fontColor=#999999;shape=image;aspect=fixed;imageAspect=0;image=data:image/svg+xml,PHN2ZyB4bWxucz0iaHR0cDovL3d3dy53My5vcmcvMjAwMC9zdmciIHhtbG5zOnY9Imh0dHBzOi8vdmVjdGEuaW8vbmFubyIgd2lkdGg9IjIwIiBoZWlnaHQ9IjE0LjE0MzAxOTY3NjIwODQ5NiIgdmlld0JveD0iMCAwLjAwMDQ4OTk2NjI0NTM2ODEyMzEgMjAgMTQuMTQzMDE5Njc2MjA4NDk2Ij4mI3hhOwk8c3R5bGUgdHlwZT0idGV4dC9jc3MiPiYjeGE7CS5zdDB7ZmlsbDojNDI4NWY0O30mI3hhOwkuc3Qxe2ZpbGw6IzY2OWRmNjt9JiN4YTsJPC9zdHlsZT4mI3hhOwk8cGF0aCBjbGFzcz0ic3QwIiBkPSJNMTAgMS40NzJhNS41OSA1LjU5IDAgMCAxIDQgMS42bDEtMWE3LjA3IDcuMDcgMCAwIDAtMTAgMGgwbDEgMWE1LjU5IDUuNTkgMCAwIDEgNC0xLjZ6bTAgMTEuMmE1LjU5IDUuNTkgMCAwIDEtNC0xLjZsLTEgMWE3LjA3IDcuMDcgMCAwIDAgMTAgMGgwbC0xLTFhNS41OSA1LjU5IDAgMCAxLTQgMS42eiIvPiYjeGE7CTxwYXRoIGNsYXNzPSJzdDEiIGQ9Ik0xMCAxMC4xNDJhMy4wNiAzLjA2IDAgMCAxLTMtMi4zNEgzLjExdjIuMzhMMCA3LjA3MmwzLjExLTMuMXYyLjM4SDdhMy4wNiAzLjA2IDAgMCAxIDMtMi4zNGgwYTMuMDYgMy4wNiAwIDAgMSAzIDIuMzRoMy45MXYtMi4zOUwyMCA3LjA3MmwtMy4xMSAzLjEydi0yLjM5SDEzYTMuMDYgMy4wNiAwIDAgMS0zIDIuMzR6bTAtNC42OGExLjYxIDEuNjEgMCAxIDAgMS42MSAxLjYxaDBBMS42MSAxLjYxIDAgMCAwIDEwIDUuNDYyeiIvPiYjeGE7PC9zdmc+;rounded=0;shadow=0;glass=0;labelBackgroundColor=none;labelBorderColor=none;strokeColor=#E6E6E6;fillColor=none;gradientColor=none;" parent="6gJS4afnVGDZ6o405xp5-42" vertex="1">
          <mxGeometry x="334.02" y="224.75" width="42" height="29" as="geometry" />
        </mxCell>
        <mxCell id="6gJS4afnVGDZ6o405xp5-105" value="Whitelist" style="sketch=0;html=1;verticalAlign=top;labelPosition=center;verticalLabelPosition=bottom;align=center;spacingTop=-6;fontSize=11;fontStyle=0;fontColor=#999999;shape=image;aspect=fixed;imageAspect=0;image=data:image/svg+xml,PHN2ZyB4bWxucz0iaHR0cDovL3d3dy53My5vcmcvMjAwMC9zdmciIHhtbG5zOnY9Imh0dHBzOi8vdmVjdGEuaW8vbmFubyIgd2lkdGg9IjIwIiBoZWlnaHQ9IjE2IiB2aWV3Qm94PSIwIDAgMjAgMTYiPiYjeGE7CTxzdHlsZSB0eXBlPSJ0ZXh0L2NzcyI+JiN4YTsJLnN0MHtmaWxsOiM2NjlkZjY7fSYjeGE7CS5zdDF7ZmlsbDojNDI4NWY0O30mI3hhOwkuc3Qye2ZpbGw6I2FlY2JmYTt9JiN4YTsJPC9zdHlsZT4mI3hhOwk8cGF0aCBjbGFzcz0ic3QwIiBkPSJNMTUgMmgzdjEyaC0zdjJoMyAydi0yVjIgMGgtMi0zeiIvPiYjeGE7CTxwYXRoIGNsYXNzPSJzdDEiIGQ9Ik0xOCAydjFsMi0xem0yIDEydi0xbC0yIDF6Ii8+JiN4YTsJPHBhdGggY2xhc3M9InN0MCIgZD0iTTUgMTRIMlYyaDNWMEgyIDB2MiAxMiAyaDIgM3oiLz4mI3hhOwk8cGF0aCBjbGFzcz0ic3QxIiBkPSJNMCAxNHYtMWwyIDF6TTIgMnYxTDAgMnoiLz4mI3hhOwk8cGF0aCBjbGFzcz0ic3QyIiBkPSJNNSA3aDEwdjJINXptMCAzaDEwdjJINXptMC02aDEwdjJINXoiLz4mI3hhOzwvc3ZnPg==;rounded=0;shadow=0;glass=0;labelBackgroundColor=none;labelBorderColor=none;strokeColor=#E6E6E6;fillColor=none;gradientColor=none;" parent="6gJS4afnVGDZ6o405xp5-42" vertex="1">
          <mxGeometry x="422" y="225.78" width="33.35" height="27" as="geometry" />
        </mxCell>
        <mxCell id="6gJS4afnVGDZ6o405xp5-106" value="" style="strokeColor=#CCCCCC;strokeWidth=1;shadow=0;labelBackgroundColor=none;labelBorderColor=none;fontSize=13;rounded=1;fillColor=#f5f5f5;fontColor=#333333;verticalAlign=top;" parent="6gJS4afnVGDZ6o405xp5-42" vertex="1">
          <mxGeometry x="60.41" y="347" width="63.59" height="203" as="geometry" />
        </mxCell>
        <mxCell id="6gJS4afnVGDZ6o405xp5-372" style="rounded=0;orthogonalLoop=1;jettySize=auto;html=1;strokeColor=#808080;fontSize=15;fontColor=#666666;startArrow=none;startFill=0;exitX=0.5;exitY=1;exitDx=0;exitDy=0;entryX=0.478;entryY=-0.021;entryDx=0;entryDy=0;entryPerimeter=0;" parent="6gJS4afnVGDZ6o405xp5-42" source="6gJS4afnVGDZ6o405xp5-107" target="g3mcLFEqI1_pV3j1C8BT-7" edge="1">
          <mxGeometry relative="1" as="geometry">
            <mxPoint x="233" y="563" as="sourcePoint" />
            <mxPoint x="234" y="632" as="targetPoint" />
          </mxGeometry>
        </mxCell>
        <mxCell id="6gJS4afnVGDZ6o405xp5-107" value="" style="strokeColor=#CCCCCC;strokeWidth=1;shadow=0;labelBackgroundColor=none;labelBorderColor=none;fontSize=13;rounded=1;fillColor=#f5f5f5;fontColor=#333333;" parent="6gJS4afnVGDZ6o405xp5-42" vertex="1">
          <mxGeometry x="202.58" y="380" width="63" height="170" as="geometry" />
        </mxCell>
        <mxCell id="6gJS4afnVGDZ6o405xp5-108" value="" style="strokeColor=#CCCCCC;strokeWidth=1;shadow=0;labelBackgroundColor=none;labelBorderColor=none;fontSize=13;rounded=1;fillColor=#f5f5f5;fontColor=#333333;" parent="6gJS4afnVGDZ6o405xp5-42" vertex="1">
          <mxGeometry x="343" y="347" width="63" height="203" as="geometry" />
        </mxCell>
        <mxCell id="6gJS4afnVGDZ6o405xp5-109" value="scepter &lt;br&gt;server" style="sketch=0;html=1;verticalAlign=top;labelPosition=center;verticalLabelPosition=bottom;align=center;spacingTop=-6;fontSize=11;fontStyle=0;fontColor=#999999;shape=image;aspect=fixed;imageAspect=0;image=data:image/svg+xml,PHN2ZyB4bWxucz0iaHR0cDovL3d3dy53My5vcmcvMjAwMC9zdmciIHhtbG5zOnY9Imh0dHBzOi8vdmVjdGEuaW8vbmFubyIgd2lkdGg9IjE3LjE4MDAwMDMwNTE3NTc4IiBoZWlnaHQ9IjIwIiB2aWV3Qm94PSIwIDAgMTcuMTgwMDAwMzA1MTc1NzggMjAiPiYjeGE7CTxzdHlsZSB0eXBlPSJ0ZXh0L2NzcyI+JiN4YTsJLnN0MHtmaWxsOiM0Mjg1ZjQ7fSYjeGE7CS5zdDF7ZmlsbDojNjY5ZGY2O30mI3hhOwk8L3N0eWxlPiYjeGE7CTxwYXRoIGNsYXNzPSJzdDAiIGQ9Ik05LjkgNC44NWE1LjIzIDUuMjMgMCAwIDEgMy43NSAzLjc1aDMuNTNWMy4yNEw5LjkgMHpNMy41MiA4LjYxYTUuMjIgNS4yMiAwIDAgMSAzLjc1LTMuNzVWMEwwIDMuMjR2NS4zN3pNNy4yOCAxNWE1LjIzIDUuMjMgMCAwIDEtMy43NS0zLjc1SC4yMkExMiAxMiAwIDAgMCA3LjI4IDIwem02LjM4LTMuNzVBNS4yMyA1LjIzIDAgMCAxIDkuOTEgMTV2NWExMiAxMiAwIDAgMCA3LjA1LTguNzV6Ii8+JiN4YTsJPGNpcmNsZSBjbGFzcz0ic3QxIiBjeD0iOC41OSIgY3k9IjkuOTIiIHI9IjIuNjMiLz4mI3hhOzwvc3ZnPg==;rounded=0;shadow=0;glass=0;labelBackgroundColor=none;labelBorderColor=none;strokeColor=#E6E6E6;fillColor=none;gradientColor=none;" parent="6gJS4afnVGDZ6o405xp5-42" vertex="1">
          <mxGeometry x="356.5" y="366" width="36" height="42" as="geometry" />
        </mxCell>
        <mxCell id="6gJS4afnVGDZ6o405xp5-110" value="simhub&lt;br&gt;services" style="sketch=0;html=1;verticalAlign=top;labelPosition=center;verticalLabelPosition=bottom;align=center;spacingTop=-6;fontSize=11;fontStyle=0;fontColor=#999999;shape=image;aspect=fixed;imageAspect=0;imageAspect=0;image=data:image/svg+xml,PHN2ZyB4bWxucz0iaHR0cDovL3d3dy53My5vcmcvMjAwMC9zdmciIHhtbG5zOnY9Imh0dHBzOi8vdmVjdGEuaW8vbmFubyIgd2lkdGg9IjQwMi4zNDMyMDA2ODM1OTM3NSIgaGVpZ2h0PSI0MTYuMDAyNTMyOTU4OTg0NCIgdmlld0JveD0iMCAwLjAwMDQ5OTk2Mzc2MDM3NTk3NjYgNDAyLjM0MzIwMDY4MzU5Mzc1IDQxNi4wMDI1MzI5NTg5ODQ0Ij4mI3hhOwk8c3R5bGUgdHlwZT0idGV4dC9jc3MiPiYjeGE7CS5zdDB7ZmlsbDojNDI4NWY0O30mI3hhOwkuc3Qxe2ZpbGw6IzY2OWRmNjt9JiN4YTsJLnN0MntmaWxsOiNhZWNiZmE7fSYjeGE7CTwvc3R5bGU+JiN4YTsJPHBhdGggY2xhc3M9InN0MiIgZD0iTTM2Ni4xNyA5Mi4wMDNjLTE5LjA1IDAtMzYgMTYuODItMzYgMzUuNzYgMCAxMi42MiA4LjQ2IDI1LjI0IDE5LjA1IDMxLjU1djE0Ny4zbC0xMTAuMDUgNjUuMjEgMTYuOTMgMjcuMzUgMTE4LjUxLTY5LjQyYzQuMjQtMi4xIDguNDctOC40MSA4LjQ3LTE0Ljczdi0xNTUuNjdjMTIuNzEtNi4zNSAxOS4wOS0xOC45MyAxOS4wOS0zMS41NSAyLjA4LTE4Ljk0LTE0Ljg1LTM1LjgtMzYtMzUuOHptLTM4LjExLTIzLjFMMjA5LjU1IDEuNTgzYy00LjI0LTIuMTEtMTAuNTktMi4xMS0xNi45MyAwTDU3LjE3IDc5LjQxM0EzNiAzNiAwIDAgMCAzNiA3My4xMDNjLTE5IDAtMzYgMTYuODMtMzYgMzUuNzZzMTYuOTMgMzUuNzcgMzYgMzUuNzcgMzYtMTYuODMgMzYtMzUuNzdsMTI5LjEtNzMuNjIgMTEwIDYzLjExem0tMTQzLjg5IDI3Ny42OHEtOS41MyAwLTE5IDYuMzFsLTExMC02My4xMXYtMTI2LjIyaC0zNHYxMzQuNjNjMCA2LjMyIDQuMjMgMTIuNjMgOC40NiAxNC43M2wxMTguNTQgNjUuMjF2Mi4xMWMwIDE4LjkzIDE2LjkzIDM1Ljc2IDM2IDM1Ljc2czM2LTE2LjgzIDM2LTM1Ljc2LTE3LTMzLjY2LTM2LTMzLjY2eiIvPiYjeGE7CTxwYXRoIGNsYXNzPSJzdDEiIGQ9Ik05Ny4zOCAxMzYuMjEzbDEwNS44MiA1OC45MSAxMDMuNy01OC45MS0xMDMuNy02MXptLTYuMzUgNjcuMzJsMTEyLjE3IDYzLjExdi01MC40OWwtMTEyLjE3LTY1LjIxem0wIDYzLjExbDExMi4xNyA2NS4yMXYtNDQuMTdsLTExMi4xNy02NS4yMnoiLz4mI3hhOwk8cGF0aCBjbGFzcz0ic3QwIiBkPSJNMjAzLjE3IDIxNi4xMjN2NTAuNTZsMTEyLjE2LTY1LjI5di01MC4zOXptOTItMjBhOC4xNiA4LjE2IDAgMSAxIDguMTYtOC4xNiA4LjE5IDguMTkgMCAwIDEtOC4xNiA4LjE2em0tOTIgOTEuNTJ2NDQuMTZsMTEyLjE2LTY1LjEydi00NC4xNnptOTItMjIuODhhOC4xNiA4LjE2IDAgMSAxIDguMTYtOC4xNiA4LjE5IDguMTkgMCAwIDEtOC4xNiA4LjE2eiIvPiYjeGE7PC9zdmc+;rounded=0;shadow=0;glass=0;labelBackgroundColor=none;labelBorderColor=none;strokeColor=#E6E6E6;fillColor=none;gradientColor=none;" parent="6gJS4afnVGDZ6o405xp5-42" vertex="1">
          <mxGeometry x="215" y="395" width="40" height="42" as="geometry" />
        </mxCell>
        <mxCell id="6gJS4afnVGDZ6o405xp5-118" value="open feign" style="text;html=1;strokeColor=none;fillColor=none;align=center;verticalAlign=middle;whiteSpace=wrap;rounded=0;fontSize=11;fontColor=#666666;" parent="6gJS4afnVGDZ6o405xp5-42" vertex="1">
          <mxGeometry x="137.2" y="437" width="60" height="30" as="geometry" />
        </mxCell>
        <mxCell id="6gJS4afnVGDZ6o405xp5-120" style="rounded=0;orthogonalLoop=1;jettySize=auto;html=1;entryX=0;entryY=0.5;entryDx=0;entryDy=0;fontSize=11;fontColor=default;startArrow=classic;startFill=1;strokeColor=#CCCCCC;" parent="6gJS4afnVGDZ6o405xp5-42" target="6gJS4afnVGDZ6o405xp5-107" edge="1">
          <mxGeometry relative="1" as="geometry">
            <mxPoint x="130" y="465" as="sourcePoint" />
            <mxPoint x="278.5799999999999" y="387.5" as="targetPoint" />
          </mxGeometry>
        </mxCell>
        <mxCell id="6gJS4afnVGDZ6o405xp5-123" style="edgeStyle=orthogonalEdgeStyle;rounded=0;orthogonalLoop=1;jettySize=auto;html=1;entryX=-0.096;entryY=0.581;entryDx=0;entryDy=0;fontSize=11;fontColor=default;startArrow=classic;startFill=1;strokeColor=#CCCCCC;entryPerimeter=0;" parent="6gJS4afnVGDZ6o405xp5-42" source="6gJS4afnVGDZ6o405xp5-107" target="6gJS4afnVGDZ6o405xp5-108" edge="1">
          <mxGeometry relative="1" as="geometry">
            <mxPoint x="341.5799999999999" y="482.5" as="sourcePoint" />
            <mxPoint x="419" y="482.5" as="targetPoint" />
          </mxGeometry>
        </mxCell>
        <mxCell id="6gJS4afnVGDZ6o405xp5-128" value="simhub&lt;br&gt;services" style="sketch=0;html=1;verticalAlign=top;labelPosition=center;verticalLabelPosition=bottom;align=center;spacingTop=-6;fontSize=11;fontStyle=0;fontColor=#999999;shape=image;aspect=fixed;imageAspect=0;imageAspect=0;image=data:image/svg+xml,PHN2ZyB4bWxucz0iaHR0cDovL3d3dy53My5vcmcvMjAwMC9zdmciIHhtbG5zOnY9Imh0dHBzOi8vdmVjdGEuaW8vbmFubyIgd2lkdGg9IjQwMi4zNDMyMDA2ODM1OTM3NSIgaGVpZ2h0PSI0MTYuMDAyNTMyOTU4OTg0NCIgdmlld0JveD0iMCAwLjAwMDQ5OTk2Mzc2MDM3NTk3NjYgNDAyLjM0MzIwMDY4MzU5Mzc1IDQxNi4wMDI1MzI5NTg5ODQ0Ij4mI3hhOwk8c3R5bGUgdHlwZT0idGV4dC9jc3MiPiYjeGE7CS5zdDB7ZmlsbDojNDI4NWY0O30mI3hhOwkuc3Qxe2ZpbGw6IzY2OWRmNjt9JiN4YTsJLnN0MntmaWxsOiNhZWNiZmE7fSYjeGE7CTwvc3R5bGU+JiN4YTsJPHBhdGggY2xhc3M9InN0MiIgZD0iTTM2Ni4xNyA5Mi4wMDNjLTE5LjA1IDAtMzYgMTYuODItMzYgMzUuNzYgMCAxMi42MiA4LjQ2IDI1LjI0IDE5LjA1IDMxLjU1djE0Ny4zbC0xMTAuMDUgNjUuMjEgMTYuOTMgMjcuMzUgMTE4LjUxLTY5LjQyYzQuMjQtMi4xIDguNDctOC40MSA4LjQ3LTE0Ljczdi0xNTUuNjdjMTIuNzEtNi4zNSAxOS4wOS0xOC45MyAxOS4wOS0zMS41NSAyLjA4LTE4Ljk0LTE0Ljg1LTM1LjgtMzYtMzUuOHptLTM4LjExLTIzLjFMMjA5LjU1IDEuNTgzYy00LjI0LTIuMTEtMTAuNTktMi4xMS0xNi45MyAwTDU3LjE3IDc5LjQxM0EzNiAzNiAwIDAgMCAzNiA3My4xMDNjLTE5IDAtMzYgMTYuODMtMzYgMzUuNzZzMTYuOTMgMzUuNzcgMzYgMzUuNzcgMzYtMTYuODMgMzYtMzUuNzdsMTI5LjEtNzMuNjIgMTEwIDYzLjExem0tMTQzLjg5IDI3Ny42OHEtOS41MyAwLTE5IDYuMzFsLTExMC02My4xMXYtMTI2LjIyaC0zNHYxMzQuNjNjMCA2LjMyIDQuMjMgMTIuNjMgOC40NiAxNC43M2wxMTguNTQgNjUuMjF2Mi4xMWMwIDE4LjkzIDE2LjkzIDM1Ljc2IDM2IDM1Ljc2czM2LTE2LjgzIDM2LTM1Ljc2LTE3LTMzLjY2LTM2LTMzLjY2eiIvPiYjeGE7CTxwYXRoIGNsYXNzPSJzdDEiIGQ9Ik05Ny4zOCAxMzYuMjEzbDEwNS44MiA1OC45MSAxMDMuNy01OC45MS0xMDMuNy02MXptLTYuMzUgNjcuMzJsMTEyLjE3IDYzLjExdi01MC40OWwtMTEyLjE3LTY1LjIxem0wIDYzLjExbDExMi4xNyA2NS4yMXYtNDQuMTdsLTExMi4xNy02NS4yMnoiLz4mI3hhOwk8cGF0aCBjbGFzcz0ic3QwIiBkPSJNMjAzLjE3IDIxNi4xMjN2NTAuNTZsMTEyLjE2LTY1LjI5di01MC4zOXptOTItMjBhOC4xNiA4LjE2IDAgMSAxIDguMTYtOC4xNiA4LjE5IDguMTkgMCAwIDEtOC4xNiA4LjE2em0tOTIgOTEuNTJ2NDQuMTZsMTEyLjE2LTY1LjEydi00NC4xNnptOTItMjIuODhhOC4xNiA4LjE2IDAgMSAxIDguMTYtOC4xNiA4LjE5IDguMTkgMCAwIDEtOC4xNiA4LjE2eiIvPiYjeGE7PC9zdmc+;rounded=0;shadow=0;glass=0;labelBackgroundColor=none;labelBorderColor=none;strokeColor=#E6E6E6;fillColor=none;gradientColor=none;" parent="6gJS4afnVGDZ6o405xp5-42" vertex="1">
          <mxGeometry x="213.61999999999998" y="473" width="40" height="42" as="geometry" />
        </mxCell>
        <mxCell id="6gJS4afnVGDZ6o405xp5-129" value="scepter &lt;br&gt;server" style="sketch=0;html=1;verticalAlign=top;labelPosition=center;verticalLabelPosition=bottom;align=center;spacingTop=-6;fontSize=11;fontStyle=0;fontColor=#999999;shape=image;aspect=fixed;imageAspect=0;image=data:image/svg+xml,PHN2ZyB4bWxucz0iaHR0cDovL3d3dy53My5vcmcvMjAwMC9zdmciIHhtbG5zOnY9Imh0dHBzOi8vdmVjdGEuaW8vbmFubyIgd2lkdGg9IjE3LjE4MDAwMDMwNTE3NTc4IiBoZWlnaHQ9IjIwIiB2aWV3Qm94PSIwIDAgMTcuMTgwMDAwMzA1MTc1NzggMjAiPiYjeGE7CTxzdHlsZSB0eXBlPSJ0ZXh0L2NzcyI+JiN4YTsJLnN0MHtmaWxsOiM0Mjg1ZjQ7fSYjeGE7CS5zdDF7ZmlsbDojNjY5ZGY2O30mI3hhOwk8L3N0eWxlPiYjeGE7CTxwYXRoIGNsYXNzPSJzdDAiIGQ9Ik05LjkgNC44NWE1LjIzIDUuMjMgMCAwIDEgMy43NSAzLjc1aDMuNTNWMy4yNEw5LjkgMHpNMy41MiA4LjYxYTUuMjIgNS4yMiAwIDAgMSAzLjc1LTMuNzVWMEwwIDMuMjR2NS4zN3pNNy4yOCAxNWE1LjIzIDUuMjMgMCAwIDEtMy43NS0zLjc1SC4yMkExMiAxMiAwIDAgMCA3LjI4IDIwem02LjM4LTMuNzVBNS4yMyA1LjIzIDAgMCAxIDkuOTEgMTV2NWExMiAxMiAwIDAgMCA3LjA1LTguNzV6Ii8+JiN4YTsJPGNpcmNsZSBjbGFzcz0ic3QxIiBjeD0iOC41OSIgY3k9IjkuOTIiIHI9IjIuNjMiLz4mI3hhOzwvc3ZnPg==;rounded=0;shadow=0;glass=0;labelBackgroundColor=none;labelBorderColor=none;strokeColor=#E6E6E6;fillColor=none;gradientColor=none;" parent="6gJS4afnVGDZ6o405xp5-42" vertex="1">
          <mxGeometry x="357" y="451" width="36" height="42" as="geometry" />
        </mxCell>
        <mxCell id="6gJS4afnVGDZ6o405xp5-130" value="open feign" style="text;html=1;strokeColor=none;fillColor=none;align=center;verticalAlign=middle;whiteSpace=wrap;rounded=0;fontSize=11;fontColor=#666666;" parent="6gJS4afnVGDZ6o405xp5-42" vertex="1">
          <mxGeometry x="274.02" y="433.5" width="60" height="30" as="geometry" />
        </mxCell>
        <mxCell id="6gJS4afnVGDZ6o405xp5-149" style="rounded=0;orthogonalLoop=1;jettySize=auto;html=1;exitX=0;exitY=0.5;exitDx=0;exitDy=0;entryX=0.5;entryY=0;entryDx=0;entryDy=0;strokeColor=#CCCCCC;fontSize=11;fontColor=#666666;startArrow=classic;startFill=1;" parent="6gJS4afnVGDZ6o405xp5-42" source="6gJS4afnVGDZ6o405xp5-146" target="6gJS4afnVGDZ6o405xp5-147" edge="1">
          <mxGeometry relative="1" as="geometry" />
        </mxCell>
        <mxCell id="6gJS4afnVGDZ6o405xp5-150" style="rounded=0;orthogonalLoop=1;jettySize=auto;html=1;exitX=1;exitY=0.5;exitDx=0;exitDy=0;entryX=0.5;entryY=0;entryDx=0;entryDy=0;strokeColor=#CCCCCC;fontSize=11;fontColor=#666666;startArrow=classic;startFill=1;" parent="6gJS4afnVGDZ6o405xp5-42" source="6gJS4afnVGDZ6o405xp5-146" target="6gJS4afnVGDZ6o405xp5-148" edge="1">
          <mxGeometry relative="1" as="geometry" />
        </mxCell>
        <mxCell id="6gJS4afnVGDZ6o405xp5-146" value="consul" style="sketch=0;html=1;verticalAlign=top;labelPosition=center;verticalLabelPosition=bottom;align=center;spacingTop=-6;fontSize=11;fontStyle=0;fontColor=#999999;shape=image;aspect=fixed;imageAspect=0;image=data:image/svg+xml,PHN2ZyB4bWxucz0iaHR0cDovL3d3dy53My5vcmcvMjAwMC9zdmciIGlkPSJzdmcxMTkyNDEiIHZlcnNpb249IjEuMSIgdmlld0JveD0iMCAwIDI2NS4yMzA0NyAyODcuNzcxNDgiIGhlaWdodD0iMjg3Ljc3MTQ4bW0iIHdpZHRoPSIyNjUuMjMwNDdtbSI+JiN4YTsgICYjeGE7ICA8ZGVmcyBpZD0iZGVmczExOTIzOCIvPiYjeGE7ICA8ZyB0cmFuc2Zvcm09InRyYW5zbGF0ZSgyNS41NDQ5MjIsLTUuNzEyODkwNikiIGlkPSJsYXllcjEiPiYjeGE7ICAgIDxwYXRoIGQ9Im0gMjExLjAwMzkxLDE4OS44NzMwNSBjIC0xNS43NDAzMSwwIC0yOC42ODM2LDEyLjk0MzI5IC0yOC42ODM2LDI4LjY4MzU5IDAsMTUuNzQwMzEgMTIuOTQzMjksMjguNjgxNjQgMjguNjgzNiwyOC42ODE2NCAxNS43NDAzLDAgMjguNjgxNjQsLTEyLjk0MTMzIDI4LjY4MTY0LC0yOC42ODE2NCAwLC0xNS43NDAzIC0xMi45NDEzNCwtMjguNjgzNTkgLTI4LjY4MTY0LC0yOC42ODM1OSB6IE0gMy4wMzMyMDMxLDUxLjQ0OTIxOSBjIC0xNS42ODMyMDUxLDAgLTI4LjU3ODEyNTEsMTIuODk0OTIgLTI4LjU3ODEyNTEsMjguNTc4MTI1IDRlLTYsMTUuNjgzMjAyIDEyLjg5NDkyMywyOC41ODAwNzYgMjguNTc4MTI1MSwyOC41ODAwNzYgMTUuNjgzMjAxOSwwIDI4LjU4MDA3MzksLTEyLjg5Njg3NCAyOC41ODAwNzc5LC0yOC41ODAwNzYgMCwtMTUuNjgzMjA1IC0xMi44OTY4NzMsLTI4LjU3ODEyNSAtMjguNTgwMDc3OSwtMjguNTc4MTI1IHogTSAxMDcuNzcxNDgsNS43MTI4OTA2IDQ1LjU4Mzk4NCw0Mi4zODY3MTkgNTcuMjY3NTc4LDYyLjE5OTIxOSA5Ni40NDMzNTksMzkuMDk1NzAzIFYgMTI4LjI1MzkxIEwgMjQuOTE5OTIyLDgwLjAyNzM0NCAxMi4wNjA1NDcsOTkuMDk3NjU2IDg2LjY3NTc4MSwxNDkuNDA4MiAxMy45OTQxNDEsMTk4LjIwMTE3IFYgMTMyLjU5NTcgSCAtOS4wMDU4NTk0IHYgOTAuOTUzMTMgbCAxMTcuMTA1NDY5NCw2OS45MzU1NCA1OS42Nzc3MywtMzUuOTc0NiAtMTEuODc1LC0xOS42OTcyNyAtMzYuNDU4OTgsMjEuOTc2NTYgdiAtODguMjg3MTEgbCA3MC4wMDk3Niw0Ny4yMDUwOCAxMi44NTc0MywtMTkuMDcwMzEgLTc0LjQzMTY0LC01MC4xODc1IDczLjkxMDE1LC00OS42MTcxODkgdiA2Ni41ODAwNzkgaCAyMyBWIDc0LjkxNDA2MiBaIG0gMTEuNjcxODgsMzMuNjIzMDQ2NCA2OS43NSw0MS4yNDgwNDcgLTY5Ljc1LDQ2LjgyNjE3NiB6IE0gOTYuNDQzMzU5LDE3MC41NTQ2OSB2IDg5LjE3OTY4IEwgMjYuMTQyNTc4LDIxNy43NSBaIiBzdHlsZT0iY29sb3I6IzAwMDAwMDtvcGFjaXR5OjE7ZmlsbDojNTk4NmYyO2ZpbGwtb3BhY2l0eToxO3N0cm9rZS1saW5lam9pbjpyb3VuZDstaW5rc2NhcGUtc3Ryb2tlOm5vbmUiIGlkPSJwYXRoMTE5NDA3LTQiLz4mI3hhOyAgICA8cGF0aCBkPSJtIDMuMDMzMTk3Niw2OC40NDkyMTkgYyA2LjQ5NTczNjcsMCAxMS41ODAwODM0LDUuMDgyMzkzIDExLjU4MDA4MzQsMTEuNTc4MTI1IDAsNi40OTU3MzEgLTUuMDg0MzQ2NywxMS41ODAwNzggLTExLjU4MDA4MzQsMTEuNTgwMDc4IC02LjQ5NTcyNjcsMCAtMTEuNTc4MTIzNCwtNS4wODQzNDcgLTExLjU3ODEyMzQsLTExLjU4MDA3OCAwLC02LjQ5NTczMiA1LjA4MjM5NjcsLTExLjU3ODEyNSAxMS41NzgxMjM0LC0xMS41NzgxMjUgeiBNIDIxMS4wMDM5MSwyMDYuODczMDUgYyA2LjU1MjgzLDAgMTEuNjgxNjQsNS4xMzA3NiAxMS42ODE2NCwxMS42ODM1OSAwLDYuNTUyODMgLTUuMTI4ODEsMTEuNjgxNjQgLTExLjY4MTY0LDExLjY4MTY0IC02LjU1Mjg0LDAgLTExLjY4MzYsLTUuMTI4ODEgLTExLjY4MzYsLTExLjY4MTY0IDAsLTYuNTUyODMgNS4xMzA3NiwtMTEuNjgzNTkgMTEuNjgzNiwtMTEuNjgzNTkgeiBNIDEwNy43NjM2Nyw5OC41NTQ2ODcgYyAtMjcuNzcyNTc4LDNlLTYgLTUwLjUyMzQzMywyMi43NTA4NjMgLTUwLjUyMzQzMyw1MC41MjM0MzMgMCwyNy43NzI1OCAyMi43NTA4NTUsNTAuNTIxNDkgNTAuNTIzNDMzLDUwLjUyMTQ5IDI3Ljc3MjU4LDAgNTAuNTIzNDQsLTIyLjc0ODkxIDUwLjUyMzQ0LC01MC41MjE0OSAwLC0yNy43NzI1NyAtMjIuNzUwODYsLTUwLjUyMzQzNyAtNTAuNTIzNDQsLTUwLjUyMzQzMyB6IiBzdHlsZT0iY29sb3I6IzAwMDAwMDtvcGFjaXR5OjE7ZmlsbDojZmZmZmZmO2ZpbGwtb3BhY2l0eToxO3N0cm9rZS1saW5lam9pbjpyb3VuZDstaW5rc2NhcGUtc3Ryb2tlOm5vbmUiIGlkPSJwYXRoMTM3Mjg5Ii8+JiN4YTsgICAgPHBhdGggaWQ9InBhdGgxMjAyMDMiIGQ9Im0gMTA3Ljc2MzY3LDEyMC41NTQ2OSBjIDE1Ljg4MjkxLC0xMGUtNiAyOC41MjM0NCwxMi42NDA1MyAyOC41MjM0NCwyOC41MjM0MyAwLDE1Ljg4MjkxIC0xMi42NDA1MywyOC41MjE0OSAtMjguNTIzNDQsMjguNTIxNDkgLTE1Ljg4MjkwNCwwIC0yOC41MjM0MzgsLTEyLjYzODU4IC0yOC41MjM0MzgsLTI4LjUyMTQ5IDAsLTE1Ljg4MjkgMTIuNjQwNTM0LC0yOC41MjM0MyAyOC41MjM0MzgsLTI4LjUyMzQzIHoiIHN0eWxlPSJjb2xvcjojMDAwMDAwO29wYWNpdHk6MTtmaWxsOiM1OTg2ZjI7ZmlsbC1vcGFjaXR5OjE7c3Ryb2tlLWxpbmVqb2luOnJvdW5kOy1pbmtzY2FwZS1zdHJva2U6bm9uZSIvPiYjeGE7ICA8L2c+JiN4YTs8L3N2Zz4=;rounded=0;shadow=0;glass=0;labelBackgroundColor=none;labelBorderColor=none;strokeColor=#6666FF;fillColor=#66B2FF;gradientColor=none;" parent="6gJS4afnVGDZ6o405xp5-42" vertex="1">
          <mxGeometry x="553" y="371" width="39" height="42" as="geometry" />
        </mxCell>
        <mxCell id="g3mcLFEqI1_pV3j1C8BT-38" style="edgeStyle=orthogonalEdgeStyle;rounded=0;orthogonalLoop=1;jettySize=auto;html=1;exitX=1;exitY=0.5;exitDx=0;exitDy=0;entryX=0;entryY=0.5;entryDx=0;entryDy=0;strokeColor=#CCCCCC;fontSize=12;fontColor=#999999;startArrow=classic;startFill=1;" parent="6gJS4afnVGDZ6o405xp5-42" source="6gJS4afnVGDZ6o405xp5-147" target="6gJS4afnVGDZ6o405xp5-148" edge="1">
          <mxGeometry relative="1" as="geometry" />
        </mxCell>
        <mxCell id="6gJS4afnVGDZ6o405xp5-147" value="consul" style="sketch=0;html=1;verticalAlign=top;labelPosition=center;verticalLabelPosition=bottom;align=center;spacingTop=-6;fontSize=11;fontStyle=0;fontColor=#999999;shape=image;aspect=fixed;imageAspect=0;image=data:image/svg+xml,PHN2ZyB4bWxucz0iaHR0cDovL3d3dy53My5vcmcvMjAwMC9zdmciIGlkPSJzdmcxMTkyNDEiIHZlcnNpb249IjEuMSIgdmlld0JveD0iMCAwIDI2NS4yMzA0NyAyODcuNzcxNDgiIGhlaWdodD0iMjg3Ljc3MTQ4bW0iIHdpZHRoPSIyNjUuMjMwNDdtbSI+JiN4YTsgICYjeGE7ICA8ZGVmcyBpZD0iZGVmczExOTIzOCIvPiYjeGE7ICA8ZyB0cmFuc2Zvcm09InRyYW5zbGF0ZSgyNS41NDQ5MjIsLTUuNzEyODkwNikiIGlkPSJsYXllcjEiPiYjeGE7ICAgIDxwYXRoIGQ9Im0gMjExLjAwMzkxLDE4OS44NzMwNSBjIC0xNS43NDAzMSwwIC0yOC42ODM2LDEyLjk0MzI5IC0yOC42ODM2LDI4LjY4MzU5IDAsMTUuNzQwMzEgMTIuOTQzMjksMjguNjgxNjQgMjguNjgzNiwyOC42ODE2NCAxNS43NDAzLDAgMjguNjgxNjQsLTEyLjk0MTMzIDI4LjY4MTY0LC0yOC42ODE2NCAwLC0xNS43NDAzIC0xMi45NDEzNCwtMjguNjgzNTkgLTI4LjY4MTY0LC0yOC42ODM1OSB6IE0gMy4wMzMyMDMxLDUxLjQ0OTIxOSBjIC0xNS42ODMyMDUxLDAgLTI4LjU3ODEyNTEsMTIuODk0OTIgLTI4LjU3ODEyNTEsMjguNTc4MTI1IDRlLTYsMTUuNjgzMjAyIDEyLjg5NDkyMywyOC41ODAwNzYgMjguNTc4MTI1MSwyOC41ODAwNzYgMTUuNjgzMjAxOSwwIDI4LjU4MDA3MzksLTEyLjg5Njg3NCAyOC41ODAwNzc5LC0yOC41ODAwNzYgMCwtMTUuNjgzMjA1IC0xMi44OTY4NzMsLTI4LjU3ODEyNSAtMjguNTgwMDc3OSwtMjguNTc4MTI1IHogTSAxMDcuNzcxNDgsNS43MTI4OTA2IDQ1LjU4Mzk4NCw0Mi4zODY3MTkgNTcuMjY3NTc4LDYyLjE5OTIxOSA5Ni40NDMzNTksMzkuMDk1NzAzIFYgMTI4LjI1MzkxIEwgMjQuOTE5OTIyLDgwLjAyNzM0NCAxMi4wNjA1NDcsOTkuMDk3NjU2IDg2LjY3NTc4MSwxNDkuNDA4MiAxMy45OTQxNDEsMTk4LjIwMTE3IFYgMTMyLjU5NTcgSCAtOS4wMDU4NTk0IHYgOTAuOTUzMTMgbCAxMTcuMTA1NDY5NCw2OS45MzU1NCA1OS42Nzc3MywtMzUuOTc0NiAtMTEuODc1LC0xOS42OTcyNyAtMzYuNDU4OTgsMjEuOTc2NTYgdiAtODguMjg3MTEgbCA3MC4wMDk3Niw0Ny4yMDUwOCAxMi44NTc0MywtMTkuMDcwMzEgLTc0LjQzMTY0LC01MC4xODc1IDczLjkxMDE1LC00OS42MTcxODkgdiA2Ni41ODAwNzkgaCAyMyBWIDc0LjkxNDA2MiBaIG0gMTEuNjcxODgsMzMuNjIzMDQ2NCA2OS43NSw0MS4yNDgwNDcgLTY5Ljc1LDQ2LjgyNjE3NiB6IE0gOTYuNDQzMzU5LDE3MC41NTQ2OSB2IDg5LjE3OTY4IEwgMjYuMTQyNTc4LDIxNy43NSBaIiBzdHlsZT0iY29sb3I6IzAwMDAwMDtvcGFjaXR5OjE7ZmlsbDojNTk4NmYyO2ZpbGwtb3BhY2l0eToxO3N0cm9rZS1saW5lam9pbjpyb3VuZDstaW5rc2NhcGUtc3Ryb2tlOm5vbmUiIGlkPSJwYXRoMTE5NDA3LTQiLz4mI3hhOyAgICA8cGF0aCBkPSJtIDMuMDMzMTk3Niw2OC40NDkyMTkgYyA2LjQ5NTczNjcsMCAxMS41ODAwODM0LDUuMDgyMzkzIDExLjU4MDA4MzQsMTEuNTc4MTI1IDAsNi40OTU3MzEgLTUuMDg0MzQ2NywxMS41ODAwNzggLTExLjU4MDA4MzQsMTEuNTgwMDc4IC02LjQ5NTcyNjcsMCAtMTEuNTc4MTIzNCwtNS4wODQzNDcgLTExLjU3ODEyMzQsLTExLjU4MDA3OCAwLC02LjQ5NTczMiA1LjA4MjM5NjcsLTExLjU3ODEyNSAxMS41NzgxMjM0LC0xMS41NzgxMjUgeiBNIDIxMS4wMDM5MSwyMDYuODczMDUgYyA2LjU1MjgzLDAgMTEuNjgxNjQsNS4xMzA3NiAxMS42ODE2NCwxMS42ODM1OSAwLDYuNTUyODMgLTUuMTI4ODEsMTEuNjgxNjQgLTExLjY4MTY0LDExLjY4MTY0IC02LjU1Mjg0LDAgLTExLjY4MzYsLTUuMTI4ODEgLTExLjY4MzYsLTExLjY4MTY0IDAsLTYuNTUyODMgNS4xMzA3NiwtMTEuNjgzNTkgMTEuNjgzNiwtMTEuNjgzNTkgeiBNIDEwNy43NjM2Nyw5OC41NTQ2ODcgYyAtMjcuNzcyNTc4LDNlLTYgLTUwLjUyMzQzMywyMi43NTA4NjMgLTUwLjUyMzQzMyw1MC41MjM0MzMgMCwyNy43NzI1OCAyMi43NTA4NTUsNTAuNTIxNDkgNTAuNTIzNDMzLDUwLjUyMTQ5IDI3Ljc3MjU4LDAgNTAuNTIzNDQsLTIyLjc0ODkxIDUwLjUyMzQ0LC01MC41MjE0OSAwLC0yNy43NzI1NyAtMjIuNzUwODYsLTUwLjUyMzQzNyAtNTAuNTIzNDQsLTUwLjUyMzQzMyB6IiBzdHlsZT0iY29sb3I6IzAwMDAwMDtvcGFjaXR5OjE7ZmlsbDojZmZmZmZmO2ZpbGwtb3BhY2l0eToxO3N0cm9rZS1saW5lam9pbjpyb3VuZDstaW5rc2NhcGUtc3Ryb2tlOm5vbmUiIGlkPSJwYXRoMTM3Mjg5Ii8+JiN4YTsgICAgPHBhdGggaWQ9InBhdGgxMjAyMDMiIGQ9Im0gMTA3Ljc2MzY3LDEyMC41NTQ2OSBjIDE1Ljg4MjkxLC0xMGUtNiAyOC41MjM0NCwxMi42NDA1MyAyOC41MjM0NCwyOC41MjM0MyAwLDE1Ljg4MjkxIC0xMi42NDA1MywyOC41MjE0OSAtMjguNTIzNDQsMjguNTIxNDkgLTE1Ljg4MjkwNCwwIC0yOC41MjM0MzgsLTEyLjYzODU4IC0yOC41MjM0MzgsLTI4LjUyMTQ5IDAsLTE1Ljg4MjkgMTIuNjQwNTM0LC0yOC41MjM0MyAyOC41MjM0MzgsLTI4LjUyMzQzIHoiIHN0eWxlPSJjb2xvcjojMDAwMDAwO29wYWNpdHk6MTtmaWxsOiM1OTg2ZjI7ZmlsbC1vcGFjaXR5OjE7c3Ryb2tlLWxpbmVqb2luOnJvdW5kOy1pbmtzY2FwZS1zdHJva2U6bm9uZSIvPiYjeGE7ICA8L2c+JiN4YTs8L3N2Zz4=;rounded=0;shadow=0;glass=0;labelBackgroundColor=none;labelBorderColor=none;strokeColor=#6666FF;fillColor=#66B2FF;gradientColor=none;" parent="6gJS4afnVGDZ6o405xp5-42" vertex="1">
          <mxGeometry x="501.94" y="448" width="39" height="42" as="geometry" />
        </mxCell>
        <mxCell id="6gJS4afnVGDZ6o405xp5-148" value="consul" style="sketch=0;html=1;verticalAlign=top;labelPosition=center;verticalLabelPosition=bottom;align=center;spacingTop=-6;fontSize=11;fontStyle=0;fontColor=#999999;shape=image;aspect=fixed;imageAspect=0;image=data:image/svg+xml,PHN2ZyB4bWxucz0iaHR0cDovL3d3dy53My5vcmcvMjAwMC9zdmciIGlkPSJzdmcxMTkyNDEiIHZlcnNpb249IjEuMSIgdmlld0JveD0iMCAwIDI2NS4yMzA0NyAyODcuNzcxNDgiIGhlaWdodD0iMjg3Ljc3MTQ4bW0iIHdpZHRoPSIyNjUuMjMwNDdtbSI+JiN4YTsgICYjeGE7ICA8ZGVmcyBpZD0iZGVmczExOTIzOCIvPiYjeGE7ICA8ZyB0cmFuc2Zvcm09InRyYW5zbGF0ZSgyNS41NDQ5MjIsLTUuNzEyODkwNikiIGlkPSJsYXllcjEiPiYjeGE7ICAgIDxwYXRoIGQ9Im0gMjExLjAwMzkxLDE4OS44NzMwNSBjIC0xNS43NDAzMSwwIC0yOC42ODM2LDEyLjk0MzI5IC0yOC42ODM2LDI4LjY4MzU5IDAsMTUuNzQwMzEgMTIuOTQzMjksMjguNjgxNjQgMjguNjgzNiwyOC42ODE2NCAxNS43NDAzLDAgMjguNjgxNjQsLTEyLjk0MTMzIDI4LjY4MTY0LC0yOC42ODE2NCAwLC0xNS43NDAzIC0xMi45NDEzNCwtMjguNjgzNTkgLTI4LjY4MTY0LC0yOC42ODM1OSB6IE0gMy4wMzMyMDMxLDUxLjQ0OTIxOSBjIC0xNS42ODMyMDUxLDAgLTI4LjU3ODEyNTEsMTIuODk0OTIgLTI4LjU3ODEyNTEsMjguNTc4MTI1IDRlLTYsMTUuNjgzMjAyIDEyLjg5NDkyMywyOC41ODAwNzYgMjguNTc4MTI1MSwyOC41ODAwNzYgMTUuNjgzMjAxOSwwIDI4LjU4MDA3MzksLTEyLjg5Njg3NCAyOC41ODAwNzc5LC0yOC41ODAwNzYgMCwtMTUuNjgzMjA1IC0xMi44OTY4NzMsLTI4LjU3ODEyNSAtMjguNTgwMDc3OSwtMjguNTc4MTI1IHogTSAxMDcuNzcxNDgsNS43MTI4OTA2IDQ1LjU4Mzk4NCw0Mi4zODY3MTkgNTcuMjY3NTc4LDYyLjE5OTIxOSA5Ni40NDMzNTksMzkuMDk1NzAzIFYgMTI4LjI1MzkxIEwgMjQuOTE5OTIyLDgwLjAyNzM0NCAxMi4wNjA1NDcsOTkuMDk3NjU2IDg2LjY3NTc4MSwxNDkuNDA4MiAxMy45OTQxNDEsMTk4LjIwMTE3IFYgMTMyLjU5NTcgSCAtOS4wMDU4NTk0IHYgOTAuOTUzMTMgbCAxMTcuMTA1NDY5NCw2OS45MzU1NCA1OS42Nzc3MywtMzUuOTc0NiAtMTEuODc1LC0xOS42OTcyNyAtMzYuNDU4OTgsMjEuOTc2NTYgdiAtODguMjg3MTEgbCA3MC4wMDk3Niw0Ny4yMDUwOCAxMi44NTc0MywtMTkuMDcwMzEgLTc0LjQzMTY0LC01MC4xODc1IDczLjkxMDE1LC00OS42MTcxODkgdiA2Ni41ODAwNzkgaCAyMyBWIDc0LjkxNDA2MiBaIG0gMTEuNjcxODgsMzMuNjIzMDQ2NCA2OS43NSw0MS4yNDgwNDcgLTY5Ljc1LDQ2LjgyNjE3NiB6IE0gOTYuNDQzMzU5LDE3MC41NTQ2OSB2IDg5LjE3OTY4IEwgMjYuMTQyNTc4LDIxNy43NSBaIiBzdHlsZT0iY29sb3I6IzAwMDAwMDtvcGFjaXR5OjE7ZmlsbDojNTk4NmYyO2ZpbGwtb3BhY2l0eToxO3N0cm9rZS1saW5lam9pbjpyb3VuZDstaW5rc2NhcGUtc3Ryb2tlOm5vbmUiIGlkPSJwYXRoMTE5NDA3LTQiLz4mI3hhOyAgICA8cGF0aCBkPSJtIDMuMDMzMTk3Niw2OC40NDkyMTkgYyA2LjQ5NTczNjcsMCAxMS41ODAwODM0LDUuMDgyMzkzIDExLjU4MDA4MzQsMTEuNTc4MTI1IDAsNi40OTU3MzEgLTUuMDg0MzQ2NywxMS41ODAwNzggLTExLjU4MDA4MzQsMTEuNTgwMDc4IC02LjQ5NTcyNjcsMCAtMTEuNTc4MTIzNCwtNS4wODQzNDcgLTExLjU3ODEyMzQsLTExLjU4MDA3OCAwLC02LjQ5NTczMiA1LjA4MjM5NjcsLTExLjU3ODEyNSAxMS41NzgxMjM0LC0xMS41NzgxMjUgeiBNIDIxMS4wMDM5MSwyMDYuODczMDUgYyA2LjU1MjgzLDAgMTEuNjgxNjQsNS4xMzA3NiAxMS42ODE2NCwxMS42ODM1OSAwLDYuNTUyODMgLTUuMTI4ODEsMTEuNjgxNjQgLTExLjY4MTY0LDExLjY4MTY0IC02LjU1Mjg0LDAgLTExLjY4MzYsLTUuMTI4ODEgLTExLjY4MzYsLTExLjY4MTY0IDAsLTYuNTUyODMgNS4xMzA3NiwtMTEuNjgzNTkgMTEuNjgzNiwtMTEuNjgzNTkgeiBNIDEwNy43NjM2Nyw5OC41NTQ2ODcgYyAtMjcuNzcyNTc4LDNlLTYgLTUwLjUyMzQzMywyMi43NTA4NjMgLTUwLjUyMzQzMyw1MC41MjM0MzMgMCwyNy43NzI1OCAyMi43NTA4NTUsNTAuNTIxNDkgNTAuNTIzNDMzLDUwLjUyMTQ5IDI3Ljc3MjU4LDAgNTAuNTIzNDQsLTIyLjc0ODkxIDUwLjUyMzQ0LC01MC41MjE0OSAwLC0yNy43NzI1NyAtMjIuNzUwODYsLTUwLjUyMzQzNyAtNTAuNTIzNDQsLTUwLjUyMzQzMyB6IiBzdHlsZT0iY29sb3I6IzAwMDAwMDtvcGFjaXR5OjE7ZmlsbDojZmZmZmZmO2ZpbGwtb3BhY2l0eToxO3N0cm9rZS1saW5lam9pbjpyb3VuZDstaW5rc2NhcGUtc3Ryb2tlOm5vbmUiIGlkPSJwYXRoMTM3Mjg5Ii8+JiN4YTsgICAgPHBhdGggaWQ9InBhdGgxMjAyMDMiIGQ9Im0gMTA3Ljc2MzY3LDEyMC41NTQ2OSBjIDE1Ljg4MjkxLC0xMGUtNiAyOC41MjM0NCwxMi42NDA1MyAyOC41MjM0NCwyOC41MjM0MyAwLDE1Ljg4MjkxIC0xMi42NDA1MywyOC41MjE0OSAtMjguNTIzNDQsMjguNTIxNDkgLTE1Ljg4MjkwNCwwIC0yOC41MjM0MzgsLTEyLjYzODU4IC0yOC41MjM0MzgsLTI4LjUyMTQ5IDAsLTE1Ljg4MjkgMTIuNjQwNTM0LC0yOC41MjM0MyAyOC41MjM0MzgsLTI4LjUyMzQzIHoiIHN0eWxlPSJjb2xvcjojMDAwMDAwO29wYWNpdHk6MTtmaWxsOiM1OTg2ZjI7ZmlsbC1vcGFjaXR5OjE7c3Ryb2tlLWxpbmVqb2luOnJvdW5kOy1pbmtzY2FwZS1zdHJva2U6bm9uZSIvPiYjeGE7ICA8L2c+JiN4YTs8L3N2Zz4=;rounded=0;shadow=0;glass=0;labelBackgroundColor=none;labelBorderColor=none;strokeColor=#6666FF;fillColor=#66B2FF;gradientColor=none;" parent="6gJS4afnVGDZ6o405xp5-42" vertex="1">
          <mxGeometry x="601" y="448" width="39" height="42" as="geometry" />
        </mxCell>
        <mxCell id="6gJS4afnVGDZ6o405xp5-165" value="网关&amp;amp;BFF集群" style="text;html=1;strokeColor=none;fillColor=none;align=center;verticalAlign=middle;whiteSpace=wrap;rounded=0;fontSize=11;fontColor=#666666;" parent="6gJS4afnVGDZ6o405xp5-42" vertex="1">
          <mxGeometry x="40" y="211.25" width="80" height="30" as="geometry" />
        </mxCell>
        <mxCell id="6gJS4afnVGDZ6o405xp5-168" value="应用服务" style="text;html=1;strokeColor=none;fillColor=none;align=center;verticalAlign=middle;whiteSpace=wrap;rounded=0;fontSize=11;fontColor=#666666;" parent="6gJS4afnVGDZ6o405xp5-42" vertex="1">
          <mxGeometry x="39.99999999999997" y="310" width="60" height="30" as="geometry" />
        </mxCell>
        <mxCell id="6gJS4afnVGDZ6o405xp5-169" value="注册&amp;amp;配置中心" style="text;html=1;strokeColor=none;fillColor=none;align=center;verticalAlign=middle;whiteSpace=wrap;rounded=0;fontSize=11;fontColor=#666666;" parent="6gJS4afnVGDZ6o405xp5-42" vertex="1">
          <mxGeometry x="528.01" y="321" width="83.99" height="30" as="geometry" />
        </mxCell>
        <mxCell id="6gJS4afnVGDZ6o405xp5-178" value="" style="strokeColor=#B9E0A5;strokeWidth=1;shadow=0;labelBackgroundColor=none;labelBorderColor=none;fontSize=13;rounded=0;fillColor=#f5f5f5;fontColor=#333333;" parent="6gJS4afnVGDZ6o405xp5-42" vertex="1">
          <mxGeometry x="720" y="210" width="150" height="380" as="geometry" />
        </mxCell>
        <mxCell id="6gJS4afnVGDZ6o405xp5-180" value="CircuitBreaker" style="sketch=0;html=1;verticalAlign=top;labelPosition=center;verticalLabelPosition=bottom;align=center;spacingTop=-6;fontSize=11;fontStyle=0;fontColor=#999999;shape=image;aspect=fixed;imageAspect=0;image=data:image/svg+xml,PHN2ZyB4bWxucz0iaHR0cDovL3d3dy53My5vcmcvMjAwMC9zdmciIHhtbG5zOnY9Imh0dHBzOi8vdmVjdGEuaW8vbmFubyIgd2lkdGg9IjM3OC45OTYwMDM2OTA5NDU4IiBoZWlnaHQ9IjM3My40ODg4MDkyODIxODgyNCIgdmlld0JveD0iMCAwIDEwMC4yNzYwMDA5NzY1NjI1IDk4LjgxOTAwNzg3MzUzNTE2Ij4mI3hhOzxzdHlsZSB0eXBlPSJ0ZXh0L2NzcyI+JiN4YTsJLnN0MHtmaWxsOiM0Mjg1ZjQ7fSYjeGE7CS5zdDF7ZmlsbDojNjY5ZGY2O30mI3hhOwkuc3Qye2ZpbGw6I2FlY2JmYTt9JiN4YTs8L3N0eWxlPiYjeGE7CTxwYXRoIGNsYXNzPSJzdDAiIGQ9Ik0xNC42MTQgMjQuNzc1TDAgMzQuNzA5bDE0LjYxNCA5LjkzM1YzOS45NWMzLjU0NSAxLjQwMyA3LjcwNCAzLjY1OSAxMS4yMjYgNi44NDggNS4yMjQgNC43MyA5LjIzNSAxMS4yIDkuMjM1IDIwLjk2NXYxMS41MzJoMTBWNjcuNzYyYzAtMTIuNjQ0LTUuNjcxLTIyLjE3NS0xMi41MjMtMjguMzc5LTUuOTI5LTUuMzY4LTEyLjU5Mi04LjQ3LTE3LjkzNy0xMC4wMjR6Ii8+JiN4YTsJPHBhdGggY2xhc3M9InN0MSIgZD0iTTU0Ljg4NiAxOC41NTR2NjYuMDIxaC00LjUzNWwxMC4xOSAxNC4yNDQgMTAuMTktMTQuMjQ0aC01Ljg0NlYxOC41NTR6TTM5Ljk2MSAwbC05LjcwNSAxMy45NThoNC44MTl2NjUuMzM2aDEwVjEzLjk1N2g0LjU5MXoiLz4mI3hhOwk8cGF0aCBjbGFzcz0ic3QyIiBkPSJNNTQuODg2IDE4LjU1NHYxMi45YzAgMTMuNDY0IDYuNzE5IDIzLjE0OCAxNC4wNTIgMjkuMTI1IDUuOTI1IDQuODI5IDEyLjE0NiA3LjUxIDE2LjQxNCA4Ljg3NnY0LjcyMmwxNC45MjQtOS41NzEtMTQuOTI0LTkuNTcxdjMuNzI1Yy0zLjA0My0xLjI3OC02Ljc3LTMuMjIxLTEwLjA5OC01LjkzMy01LjY5OC00LjY0NC0xMC4zNjktMTEuMTEtMTAuMzY5LTIxLjM3M3YtMTIuOXoiLz4mI3hhOzwvc3ZnPg==;rounded=0;shadow=0;glass=0;labelBackgroundColor=none;labelBorderColor=none;strokeColor=#6666FF;fillColor=#66B2FF;gradientColor=none;" parent="6gJS4afnVGDZ6o405xp5-42" vertex="1">
          <mxGeometry x="592" y="218.56" width="33" height="33" as="geometry" />
        </mxCell>
        <mxCell id="6gJS4afnVGDZ6o405xp5-181" value="RateLimiter" style="sketch=0;html=1;verticalAlign=top;labelPosition=center;verticalLabelPosition=bottom;align=center;spacingTop=-6;fontSize=11;fontStyle=0;fontColor=#999999;shape=image;aspect=fixed;imageAspect=0;image=data:image/svg+xml,PHN2ZyB4bWxuczppbmtzY2FwZT0iaHR0cDovL3d3dy5pbmtzY2FwZS5vcmcvbmFtZXNwYWNlcy9pbmtzY2FwZSIgeG1sbnM6c29kaXBvZGk9Imh0dHA6Ly9zb2RpcG9kaS5zb3VyY2Vmb3JnZS5uZXQvRFREL3NvZGlwb2RpLTAuZHRkIiB4bWxucz0iaHR0cDovL3d3dy53My5vcmcvMjAwMC9zdmciIHhtbG5zOnN2Zz0iaHR0cDovL3d3dy53My5vcmcvMjAwMC9zdmciIHdpZHRoPSI5OS45OTczMDIyMDQ4OTI5NiIgaGVpZ2h0PSI5Ny44ODA4NTM5MDQyOTYzMyIgdmlld0JveD0iLTAuMDQ1Nzc2MzY3MTg3NSAxLjA4Nzc4ODU4MTg0ODE0NDUgOTkuOTk3Mjk5MTk0MzM1OTQgOTcuODgwODQ0MTE2MjEwOTQiIHZlcnNpb249IjEuMSIgaWQ9InN2ZzUiIGlua3NjYXBlOnZlcnNpb249IjEuMSAoYzY4ZTIyYzM4NywgMjAyMS0wNS0yMykiIHNvZGlwb2RpOmRvY25hbWU9ImNsb3VkX25hdC5zdmciPiYjeGE7ICA8c29kaXBvZGk6bmFtZWR2aWV3IGlkPSJuYW1lZHZpZXc3IiBwYWdlY29sb3I9IiNmZmZmZmYiIGJvcmRlcmNvbG9yPSIjNjY2NjY2IiBib3JkZXJvcGFjaXR5PSIxLjAiIGlua3NjYXBlOnBhZ2VzaGFkb3c9IjIiIGlua3NjYXBlOnBhZ2VvcGFjaXR5PSIwLjAiIGlua3NjYXBlOnBhZ2VjaGVja2VyYm9hcmQ9IjAiIGlua3NjYXBlOmRvY3VtZW50LXVuaXRzPSJtbSIgc2hvd2dyaWQ9ImZhbHNlIiBpbmtzY2FwZTp6b29tPSIwLjU3OTMzNzQ0IiBpbmtzY2FwZTpjeD0iLTQyLjI4OTY4OSIgaW5rc2NhcGU6Y3k9IjI1NC42MDExOSIgaW5rc2NhcGU6d2luZG93LXdpZHRoPSIxOTIwIiBpbmtzY2FwZTp3aW5kb3ctaGVpZ2h0PSIxMDE3IiBpbmtzY2FwZTp3aW5kb3cteD0iLTgiIGlua3NjYXBlOndpbmRvdy15PSItOCIgaW5rc2NhcGU6d2luZG93LW1heGltaXplZD0iMSIgaW5rc2NhcGU6Y3VycmVudC1sYXllcj0ibGF5ZXIxIiBmaXQtbWFyZ2luLXRvcD0iMCIgZml0LW1hcmdpbi1sZWZ0PSIwIiBmaXQtbWFyZ2luLXJpZ2h0PSIwIiBmaXQtbWFyZ2luLWJvdHRvbT0iMCIvPiYjeGE7ICA8ZGVmcyBpZD0iZGVmczIiLz4mI3hhOyAgPGcgaW5rc2NhcGU6bGFiZWw9IkxheWVyIDEiIGlua3NjYXBlOmdyb3VwbW9kZT0ibGF5ZXIiIGlkPSJsYXllcjEiIHRyYW5zZm9ybT0idHJhbnNsYXRlKDI1OC42MTk3NSwxNi42Njc3MTUpIj4mI3hhOyAgICA8cGF0aCBpZD0icGF0aDE3MzYyIiBzdHlsZT0ib3BhY2l0eToxO2ZpbGw6IzQyODVmNDtmaWxsLW9wYWNpdHk6MTtzdHJva2U6bm9uZTtzdHJva2Utd2lkdGg6MC45OTk5OTlweDtzdHJva2UtbGluZWNhcDpidXR0O3N0cm9rZS1saW5lam9pbjptaXRlcjtzdHJva2Utb3BhY2l0eToxIiBkPSJNIDE0MS40MTc5Nyw0LjExMTMyODEgMTI0LjQwMjM0LDI0LjM3NSBjIDU3Ljg5NTM3LDQ4LjYxNjQyNiA4My40MTQwNyw5Ni4wNjQ2NyA4My40MTQwNywxNjMuOTQzMzYgMCw3Mi4zMTIyOCAtMzYuMTA3MzEsMTI0LjgyOTc3IC04Mi4wMTk1MywxNjYuMDQ4ODMgbCAxNy42Nzk2OCwxOS42ODc1IGMgNDkuMjAyOTksLTQ0LjE3MzQyIDkwLjc5Njg4LC0xMDQuNDk4MzcgOTAuNzk2ODgsLTE4NS43MzYzMyAwLC03NC44ODE1MiAtMzEuMTU5NDEsLTEzMi4zOTkwMjIgLTkyLjg1NTQ3LC0xODQuMjA3MDMxOSB6IE0gOTYuNTU2NjQxLDc1Ljg4NDc2NiBWIDEwMi4zNDE4IEggMTY2LjQ4MzA1IEMgMTYyLjM5Mjc0LDk0LjU1NDQyIDE1OC40NTE0Myw4Ni44NDE1NDIgMTQ4LjAyMjMzLDc1Ljg4NDc2NiBaIE0gMzE3Ljc3OTMsMjAyLjMwNjY0IHYgMzIuMjkyOTcgbCA1OS45OTAyMywtNDUuNTE3NTggLTU5Ljk5MDIzLC00NS41MTc1OCB2IDMyLjI4NTE2IGggLTY0LjQ3NDYxIHYgMjYuNDU3MDMgeiBNIDUwLjA1ODU5NCwxNzUuODQ5NjEgdiAyNi40NTcwMyBIIDE4Ny4yODEyNSBjIDEuMTU3NDUsLTguMDQ3MzcgMS4yODIzMSwtMTYuNzgzMTUgMCwtMjYuNDU3MDMgeiBtIDQ3LjAzNzEwOSwxMDAuMDQ2ODcgdiAyNi40NTcwNCBoIDUwLjY4MjY3NyBjIDguMDE2NTcsLTguMDE0NjYgMTQuNDYxNjksLTE2LjgxNTA0IDE5LjIyMzU3LC0yNi40NTcwNCB6IiB0cmFuc2Zvcm09Im1hdHJpeCgwLjI2NDU4MzMzLDAsMCwwLjI2NDU4MzMzLC0yNTguNjE5NzUsLTE2LjY2NzcxNSkiIHNvZGlwb2RpOm5vZGV0eXBlcz0iY2NzY2NzY2NjY2NjY2NjY2NjY2NjY2NjY2NjY2NjIi8+JiN4YTsgICAgPHBhdGggaWQ9InBhdGgxNjI3MS03IiBzdHlsZT0iY29sb3I6IzAwMDAwMDtvcGFjaXR5OjE7ZmlsbDojNjY5ZGY2O3N0cm9rZS1saW5lam9pbjpyb3VuZDstaW5rc2NhcGUtc3Ryb2tlOm5vbmU7ZmlsbC1vcGFjaXR5OjEiIGQ9Im0gLTIzNy45NTQwOCw1MS45MDU2ODYgYyAtNC4zNDYzLDEwZS03IC03LjkyMzgyLDMuNTc3NTIxIC03LjkyMzgyLDcuOTIzODI4IDAsNC4zNDYzMDcgMy41Nzc1Miw3LjkyMzgyOCA3LjkyMzgyLDcuOTIzODI4IDQuMzQ2MzEsMCA3LjkyMzgzLC0zLjU3NzUyMSA3LjkyMzgzLC03LjkyMzgyOCAwLC00LjM0NjMwNyAtMy41Nzc1MiwtNy45MjM4MjcgLTcuOTIzODMsLTcuOTIzODI4IHogbSAwLDUgYyAxLjY0NDExLDAgMi45MjM4MywxLjI3OTcxOCAyLjkyMzgzLDIuOTIzODI4IDAsMS42NDQxMSAtMS4yNzk3MiwyLjkyMzgyOCAtMi45MjM4MywyLjkyMzgyOCAtMS42NDQxMSwwIC0yLjkyMzgyLC0xLjI3OTcxOCAtMi45MjM4MiwtMi45MjM4MjggMCwtMS42NDQxMSAxLjI3OTcxLC0yLjkyMzgyOCAyLjkyMzgyLC0yLjkyMzgyOCB6IG0gLTEyLjc4NzYxLC0zMS40ODg1OTMgYyAtNC4zNDYzLDEwZS03IC03LjkyMzgyLDMuNTc3NTIxIC03LjkyMzgyLDcuOTIzODI4IDAsNC4zNDYzMDcgMy41Nzc1Miw3LjkyMzgyOCA3LjkyMzgyLDcuOTIzODI4IDQuMzQ2MzEsMCA3LjkyMzgzLC0zLjU3NzUyMSA3LjkyMzgzLC03LjkyMzgyOCAwLC00LjM0NjMwNyAtMy41Nzc1MiwtNy45MjM4MjcgLTcuOTIzODMsLTcuOTIzODI4IHogbSAwLDUgYyAxLjY0NDExLDAgMi45MjM4MywxLjI3OTcxOCAyLjkyMzgzLDIuOTIzODI4IDAsMS42NDQxMSAtMS4yNzk3MiwyLjkyMzgyOCAtMi45MjM4MywyLjkyMzgyOCAtMS42NDQxMSwwIC0yLjkyMzgyLC0xLjI3OTcxOCAtMi45MjM4MiwtMi45MjM4MjggMCwtMS42NDQxMSAxLjI3OTcxLC0yLjkyMzgyOCAyLjkyMzgyLC0yLjkyMzgyOCB6IG0gMTIuNjE2NTIsLTMxLjQzMTQ5MjkgYyAtNC4zNDYzLDZlLTcgLTcuOTIzODIsMy41Nzc1MjA4IC03LjkyMzgyLDcuOTIzODI4MSAwLDQuMzQ2MzA2OCAzLjU3NzUyLDcuOTIzODI3OCA3LjkyMzgyLDcuOTIzODI3OCA0LjM0NjMxLDAgNy45MjM4MywtMy41Nzc1MjEgNy45MjM4MywtNy45MjM4Mjc4IDAsLTQuMzQ2MzA3MyAtMy41Nzc1MiwtNy45MjM4Mjc1IC03LjkyMzgzLC03LjkyMzgyODEgeiBtIDAsNSBjIDEuNjQ0MTEsMmUtNyAyLjkyMzgzLDEuMjc5NzE4NCAyLjkyMzgzLDIuOTIzODI4MSAwLDEuNjQ0MTA5NiAtMS4yNzk3MiwyLjkyMzgyNzkgLTIuOTIzODMsMi45MjM4Mjc5IC0xLjY0NDExLDAgLTIuOTIzODIsLTEuMjc5NzE4MyAtMi45MjM4MiwtMi45MjM4Mjc5IDAsLTEuNjQ0MTA5NyAxLjI3OTcxLC0yLjkyMzgyNzkgMi45MjM4MiwtMi45MjM4MjgxIHoiLz4mI3hhOyAgPC9nPiYjeGE7PC9zdmc+;rounded=0;shadow=0;glass=0;labelBackgroundColor=none;labelBorderColor=none;strokeColor=#6666FF;fillColor=#66B2FF;gradientColor=none;" parent="6gJS4afnVGDZ6o405xp5-42" vertex="1">
          <mxGeometry x="506.38" y="219.22" width="34.56" height="34.56" as="geometry" />
        </mxCell>
        <mxCell id="6gJS4afnVGDZ6o405xp5-183" value="注册" style="text;html=1;strokeColor=none;fillColor=none;align=center;verticalAlign=middle;whiteSpace=wrap;rounded=0;fontSize=11;fontColor=#666666;" parent="6gJS4afnVGDZ6o405xp5-42" vertex="1">
          <mxGeometry x="563.99" y="271.25" width="30" height="30" as="geometry" />
        </mxCell>
        <mxCell id="6gJS4afnVGDZ6o405xp5-184" value="注册" style="text;html=1;strokeColor=none;fillColor=none;align=center;verticalAlign=middle;whiteSpace=wrap;rounded=0;fontSize=11;fontColor=#666666;" parent="6gJS4afnVGDZ6o405xp5-42" vertex="1">
          <mxGeometry x="434" y="430" width="30" height="20" as="geometry" />
        </mxCell>
        <mxCell id="6gJS4afnVGDZ6o405xp5-193" value="基础服务" style="text;html=1;strokeColor=none;fillColor=none;align=center;verticalAlign=middle;whiteSpace=wrap;rounded=0;fontSize=11;fontColor=#666666;" parent="6gJS4afnVGDZ6o405xp5-42" vertex="1">
          <mxGeometry x="768.5" y="211.25" width="50" height="30" as="geometry" />
        </mxCell>
        <mxCell id="g3mcLFEqI1_pV3j1C8BT-46" style="edgeStyle=none;rounded=0;orthogonalLoop=1;jettySize=auto;html=1;exitX=1;exitY=0.5;exitDx=0;exitDy=0;entryX=0;entryY=0.5;entryDx=0;entryDy=0;strokeColor=#CCCCCC;fontSize=12;fontColor=#999999;startArrow=none;startFill=0;" parent="6gJS4afnVGDZ6o405xp5-42" source="6gJS4afnVGDZ6o405xp5-198" target="g3mcLFEqI1_pV3j1C8BT-44" edge="1">
          <mxGeometry relative="1" as="geometry" />
        </mxCell>
        <mxCell id="6gJS4afnVGDZ6o405xp5-198" value="DB-Master" style="sketch=0;html=1;verticalAlign=top;labelPosition=center;verticalLabelPosition=bottom;align=center;spacingTop=-6;fontSize=11;fontStyle=0;fontColor=#999999;shape=image;aspect=fixed;imageAspect=0;image=data:image/svg+xml,PHN2ZyB4bWxucz0iaHR0cDovL3d3dy53My5vcmcvMjAwMC9zdmciIHhtbG5zOnY9Imh0dHBzOi8vdmVjdGEuaW8vbmFubyIgd2lkdGg9IjE0LjY1OTk5OTg0NzQxMjExIiBoZWlnaHQ9IjIwIiB2aWV3Qm94PSIwIDAgMTQuNjU5OTk5ODQ3NDEyMTEgMjAiPiYjeGE7CTxzdHlsZSB0eXBlPSJ0ZXh0L2NzcyI+JiN4YTsJLnN0MHtmaWxsOiM0Mjg1ZjQ7fSYjeGE7CS5zdDF7ZmlsbDojNjY5ZGY2O30mI3hhOwkuc3Qye2ZpbGw6I2FlY2JmYTt9JiN4YTsJPC9zdHlsZT4mI3hhOwk8c3R5bGU+JiN4YTsJCS5Ee2ZpbGwtcnVsZTpldmVub2RkfSYjeGE7CTwvc3R5bGU+JiN4YTsJPHBhdGggZD0iTTcuMzMgMTUuMzV2LTMuMDFMMCA4LjQ0djMuMDF6bTAgNC42NXYtMy4wMUwwIDEzLjA5djMuMDF6IiBjbGFzcz0ic3QyIEQiLz4mI3hhOwk8cGF0aCBkPSJNMTQuNjYgOC40NGwtNy4zMyAzLjl2My4wMWw3LjMzLTMuOXptMCA0LjY1bC03LjMzIDMuOVYyMGw3LjMzLTMuOXoiIGNsYXNzPSJzdDEgRCIvPiYjeGE7CTxwYXRoIGQ9Ik03LjMzIDB2My4wMWw3LjMzIDMuOVYzLjl6IiBjbGFzcz0ic3QwIEQiLz4mI3hhOwk8cGF0aCBkPSJNMCA2LjkxbDcuMzMtMy45VjBMMCAzLjl6IiBjbGFzcz0iRCBzdDEiLz4mI3hhOwk8cGF0aCBkPSJNNy4zMyAxMC43OVY3Ljc3TDAgMy44N3YzLjAyeiIgY2xhc3M9IkQgc3QyIi8+JiN4YTsJPHBhdGggZD0iTTE0LjY2IDMuODdsLTcuMzMgMy45djMuMDJsNy4zMy0zLjl6IiBjbGFzcz0iRCBzdDEiLz4mI3hhOzwvc3ZnPg==;rounded=0;shadow=0;glass=0;labelBackgroundColor=none;labelBorderColor=none;strokeColor=#D5E8D4;fillColor=#66B2FF;gradientColor=none;" parent="6gJS4afnVGDZ6o405xp5-42" vertex="1">
          <mxGeometry x="740" y="245" width="32" height="42" as="geometry" />
        </mxCell>
        <mxCell id="g3mcLFEqI1_pV3j1C8BT-47" style="edgeStyle=none;rounded=0;orthogonalLoop=1;jettySize=auto;html=1;exitX=1;exitY=0.5;exitDx=0;exitDy=0;entryX=0;entryY=0.5;entryDx=0;entryDy=0;strokeColor=#CCCCCC;fontSize=12;fontColor=#999999;startArrow=none;startFill=0;" parent="6gJS4afnVGDZ6o405xp5-42" source="6gJS4afnVGDZ6o405xp5-200" target="g3mcLFEqI1_pV3j1C8BT-45" edge="1">
          <mxGeometry relative="1" as="geometry" />
        </mxCell>
        <mxCell id="6gJS4afnVGDZ6o405xp5-200" value="Redis-Master" style="sketch=0;html=1;verticalAlign=top;labelPosition=center;verticalLabelPosition=bottom;align=center;spacingTop=-6;fontSize=11;fontStyle=0;fontColor=#999999;shape=image;aspect=fixed;imageAspect=0;image=data:image/svg+xml,PHN2ZyB4bWxucz0iaHR0cDovL3d3dy53My5vcmcvMjAwMC9zdmciIHhtbG5zOnY9Imh0dHBzOi8vdmVjdGEuaW8vbmFubyIgd2lkdGg9IjIwIiBoZWlnaHQ9IjIwIiB2aWV3Qm94PSIwIDAgMjAgMjAiPiYjeGE7CTxzdHlsZSB0eXBlPSJ0ZXh0L2NzcyI+JiN4YTsJLnN0MHtmaWxsOiM0Mjg1ZjQ7fSYjeGE7CS5zdDF7ZmlsbDojNjY5ZGY2O30mI3hhOwkuc3Qye2ZpbGw6I2FlY2JmYTt9JiN4YTsJPC9zdHlsZT4mI3hhOwk8cGF0aCBjbGFzcz0ic3QxIiBkPSJNMCAxLjk0aDMuMzN2Mi41OEgwem0wIDQuNTFoMy4zM3YyLjU4SDB6bTAgNC41MmgzLjMzdjIuNThIMHptMCA0LjUxaDMuMzN2Mi41OEgwek0xNi42NyAxLjk0SDIwdjIuNThoLTMuMzN6bTAgNC41MUgyMHYyLjU4aC0zLjMzem0wIDQuNTJIMjB2Mi41OGgtMy4zM3ptMCA0LjUxSDIwdjIuNThoLTMuMzN6Ii8+JiN4YTsJPHBhdGggY2xhc3M9InN0MCIgZD0iTTE2LjY3IDEuOTRsMi42NiAyLjU4aC0yLjY2em0wIDQuNTFsMi42NiAyLjU4aC0yLjY2em0wIDQuNTJsMi42NiAyLjU4aC0yLjY2em0wIDQuNTFsMi42NiAyLjU5aC0yLjY2eiIgZmlsbC1ydWxlPSJldmVub2RkIi8+JiN4YTsJPHBhdGggY2xhc3M9InN0MiIgZD0iTTMuMzMgMjBoMTMuMzRWMEgzLjMzem02LTlINmw0LjY3LTcuNzRWOUgxNGwtNC42NyA3Ljc0eiIgZmlsbC1ydWxlPSJldmVub2RkIi8+JiN4YTsJPHBhdGggY2xhc3M9InN0MSIgZD0iTTE0IDkuMDNoLTMuMzNWMGg2djIwSDkuMzN2LTMuMjN6IiBmaWxsLXJ1bGU9ImV2ZW5vZGQiLz4mI3hhOzwvc3ZnPg==;rounded=0;shadow=0;glass=0;labelBackgroundColor=none;labelBorderColor=none;strokeColor=#D5E8D4;fillColor=#66B2FF;gradientColor=none;" parent="6gJS4afnVGDZ6o405xp5-42" vertex="1">
          <mxGeometry x="738.5" y="316" width="35" height="35" as="geometry" />
        </mxCell>
        <mxCell id="6gJS4afnVGDZ6o405xp5-274" value="sim-plan&lt;br&gt;services" style="sketch=0;html=1;verticalAlign=top;labelPosition=center;verticalLabelPosition=bottom;align=center;spacingTop=-6;fontSize=11;fontStyle=0;fontColor=#999999;shape=image;aspect=fixed;imageAspect=0;image=data:image/svg+xml,PHN2ZyB4bWxucz0iaHR0cDovL3d3dy53My5vcmcvMjAwMC9zdmciIHhtbG5zOnY9Imh0dHBzOi8vdmVjdGEuaW8vbmFubyIgd2lkdGg9IjQxNiIgaGVpZ2h0PSIzNjIuMjAwMDEyMjA3MDMxMjUiIHZpZXdCb3g9IjAgMCA0MTYgMzYyLjIwMDAxMjIwNzAzMTI1Ij4mI3hhOwk8c3R5bGUgdHlwZT0idGV4dC9jc3MiPiYjeGE7CS5zdDB7ZmlsbDojNDI4NWY0O30mI3hhOwkuc3Qxe2ZpbGw6IzY2OWRmNjt9JiN4YTsJLnN0MntmaWxsOiNhZWNiZmE7fSYjeGE7CTwvc3R5bGU+JiN4YTsJPHBhdGggY2xhc3M9InN0MiIgZD0iTTk2LjAzIDBMMCAxNjcuMTdoMTkwLjY3TDI4Ny45NCAweiIvPiYjeGE7CTxwYXRoIGNsYXNzPSJzdDAiIGQ9Ik0yODcuNTkgMzYyLjJsLTk1LjY4LTE2Ny4xN0gwTDk1LjY4IDM2Mi4yeiIvPiYjeGE7CTxwYXRoIGNsYXNzPSJzdDEiIGQ9Ik00MTYgMTgxLjFMMzIwIDEzLjMxIDIyMy44OCAxODEuMSAzMjAgMzQ4Ljl6Ii8+JiN4YTs8L3N2Zz4=;rounded=0;shadow=0;glass=0;labelBackgroundColor=none;labelBorderColor=none;strokeColor=#6666FF;fillColor=#66B2FF;gradientColor=none;" parent="6gJS4afnVGDZ6o405xp5-42" vertex="1">
          <mxGeometry x="69.74999999999999" y="366" width="42" height="36" as="geometry" />
        </mxCell>
        <mxCell id="6gJS4afnVGDZ6o405xp5-275" value="sim-plan&lt;br&gt;services" style="sketch=0;html=1;verticalAlign=top;labelPosition=center;verticalLabelPosition=bottom;align=center;spacingTop=-6;fontSize=11;fontStyle=0;fontColor=#999999;shape=image;aspect=fixed;imageAspect=0;image=data:image/svg+xml,PHN2ZyB4bWxucz0iaHR0cDovL3d3dy53My5vcmcvMjAwMC9zdmciIHhtbG5zOnY9Imh0dHBzOi8vdmVjdGEuaW8vbmFubyIgd2lkdGg9IjQxNiIgaGVpZ2h0PSIzNjIuMjAwMDEyMjA3MDMxMjUiIHZpZXdCb3g9IjAgMCA0MTYgMzYyLjIwMDAxMjIwNzAzMTI1Ij4mI3hhOwk8c3R5bGUgdHlwZT0idGV4dC9jc3MiPiYjeGE7CS5zdDB7ZmlsbDojNDI4NWY0O30mI3hhOwkuc3Qxe2ZpbGw6IzY2OWRmNjt9JiN4YTsJLnN0MntmaWxsOiNhZWNiZmE7fSYjeGE7CTwvc3R5bGU+JiN4YTsJPHBhdGggY2xhc3M9InN0MiIgZD0iTTk2LjAzIDBMMCAxNjcuMTdoMTkwLjY3TDI4Ny45NCAweiIvPiYjeGE7CTxwYXRoIGNsYXNzPSJzdDAiIGQ9Ik0yODcuNTkgMzYyLjJsLTk1LjY4LTE2Ny4xN0gwTDk1LjY4IDM2Mi4yeiIvPiYjeGE7CTxwYXRoIGNsYXNzPSJzdDEiIGQ9Ik00MTYgMTgxLjFMMzIwIDEzLjMxIDIyMy44OCAxODEuMSAzMjAgMzQ4Ljl6Ii8+JiN4YTs8L3N2Zz4=;rounded=0;shadow=0;glass=0;labelBackgroundColor=none;labelBorderColor=none;strokeColor=#6666FF;fillColor=#66B2FF;gradientColor=none;" parent="6gJS4afnVGDZ6o405xp5-42" vertex="1">
          <mxGeometry x="67.99999999999999" y="454" width="42" height="36" as="geometry" />
        </mxCell>
        <mxCell id="6gJS4afnVGDZ6o405xp5-289" value="Kubernetes" style="text;html=1;strokeColor=none;fillColor=none;align=center;verticalAlign=middle;whiteSpace=wrap;rounded=0;fontSize=15;fontColor=#666666;fontStyle=1" parent="6gJS4afnVGDZ6o405xp5-42" vertex="1">
          <mxGeometry x="780" y="67.84" width="80" height="40" as="geometry" />
        </mxCell>
        <mxCell id="6gJS4afnVGDZ6o405xp5-373" style="rounded=0;orthogonalLoop=1;jettySize=auto;html=1;exitX=1;exitY=0.75;exitDx=0;exitDy=0;entryX=0.01;entryY=0.906;entryDx=0;entryDy=0;strokeColor=#CCCCCC;fontSize=15;fontColor=#666666;startArrow=classic;startFill=1;elbow=vertical;entryPerimeter=0;" parent="6gJS4afnVGDZ6o405xp5-42" edge="1">
          <mxGeometry relative="1" as="geometry">
            <mxPoint x="123.37000000000023" y="361.65000000000003" as="sourcePoint" />
            <mxPoint x="342.99999999999983" y="360.29000000000013" as="targetPoint" />
          </mxGeometry>
        </mxCell>
        <mxCell id="6gJS4afnVGDZ6o405xp5-374" value="open feign" style="text;html=1;strokeColor=none;fillColor=none;align=center;verticalAlign=middle;whiteSpace=wrap;rounded=0;fontSize=11;fontColor=#666666;" parent="6gJS4afnVGDZ6o405xp5-42" vertex="1">
          <mxGeometry x="205.58000000000004" y="333" width="60" height="30" as="geometry" />
        </mxCell>
        <mxCell id="g3mcLFEqI1_pV3j1C8BT-4" value="DMP" style="html=1;shadow=0;dashed=0;shape=mxgraph.bootstrap.rrect;rSize=5;strokeColor=none;strokeWidth=1;fillColor=#4285F4;fontColor=#FFFFFF;whiteSpace=wrap;align=center;verticalAlign=middle;spacingLeft=0;fontStyle=0;fontSize=16;spacing=5;rounded=0;glass=0;labelBackgroundColor=none;labelBorderColor=none;" parent="6gJS4afnVGDZ6o405xp5-42" vertex="1">
          <mxGeometry x="238.5" y="675" width="50" height="40" as="geometry" />
        </mxCell>
        <mxCell id="g3mcLFEqI1_pV3j1C8BT-17" value="&lt;font color=&quot;#999999&quot;&gt;Pod&lt;/font&gt;" style="text;html=1;strokeColor=none;fillColor=none;align=center;verticalAlign=middle;whiteSpace=wrap;rounded=0;fontSize=12;fontColor=#666666;" parent="6gJS4afnVGDZ6o405xp5-42" vertex="1">
          <mxGeometry x="63" y="637" width="27" height="30" as="geometry" />
        </mxCell>
        <mxCell id="g3mcLFEqI1_pV3j1C8BT-18" value="" style="editableCssRules=.*;shape=image;verticalLabelPosition=bottom;labelBackgroundColor=#ffffff;verticalAlign=top;aspect=fixed;imageAspect=0;image=data:image/svg+xml,PHN2ZyB4bWxucz0iaHR0cDovL3d3dy53My5vcmcvMjAwMC9zdmciIHhtbG5zOnY9Imh0dHBzOi8vdmVjdGEuaW8vbmFubyIgd2lkdGg9IjIxLjk5OTAwMDU0OTMxNjQwNiIgaGVpZ2h0PSIyMC4zOTM5OTkwOTk3MzE0NDUiIHZpZXdCb3g9IjAgMCAyMS45OTkwMDA1NDkzMTY0MDYgMjAuMzkzOTk5MDk5NzMxNDQ1Ij4mI3hhOwk8c3R5bGUgdHlwZT0idGV4dC9jc3MiPiYjeGE7CS5zdDB7ZmlsbDojNDI4NWY0O2ZpbGwtcnVsZTpldmVub2RkfSYjeGE7CTwvc3R5bGU+JiN4YTsJPHBhdGggY2xhc3M9InN0MCIgZD0iTTUgMHYyLjQ1OEwxLjk5OSA0LjE5N3YxMi4wMUw1IDE3LjkzOHYyLjQ1NmwtNS0yLjg4N1YyLjg4NnptMTIgMGw0Ljk5OSAyLjg4NnYxNC42MjFMMTcgMjAuMzk0di0yLjQ1NmwzLTEuNzMxVjQuMTk3bC0zLTEuNzM5em0tNi4wMTYgNi42NzNsMi45NDctMS42NDYtMi45NDctMS42NDYtMi45NDcgMS42NDZ6bTMuMjY4LTEuMDk2bC0yLjg3MSAxLjY3OHYzLjI4N2wyLjg3MS0xLjY3NnpNNy43NzMgOC44NjZsMi44NzEgMS42NzRWNy4yNTZMNy43NzMgNS41Nzd6bS0uMjEyIDMuODc4bDIuODItMS42NDYtMi44Mi0xLjY0Ni0yLjgyIDEuNjQ2em0zLjEzMi0xLjA5OGwtMi44NzEgMS42Nzh2My4yODdsMi44NzEtMS42NzZ6bS02LjI2NCAzLjI4OUw3LjMgMTYuNjA5di0zLjI4NWwtMi44NzEtMS42Nzl6bTEwLjAyOS0yLjE5MWwyLjgyLTEuNjQ2LTIuODItMS42NDYtMi44MiAxLjY0NnptMy4xMzItMS4wOThsLTIuODcxIDEuNjc4djMuMjg3bDIuODcxLTEuNjc2em0tNi4yNjQgMy4yODlsMi44NzEgMS42NzR2LTMuMjg1bC0yLjg3MS0xLjY3OXoiLz4mI3hhOzwvc3ZnPg==;strokeColor=#CCCCCC;" parent="6gJS4afnVGDZ6o405xp5-42" vertex="1">
          <mxGeometry x="40" y="643" width="20" height="18" as="geometry" />
        </mxCell>
        <mxCell id="g3mcLFEqI1_pV3j1C8BT-40" style="edgeStyle=none;rounded=0;orthogonalLoop=1;jettySize=auto;html=1;exitX=1;exitY=0.5;exitDx=0;exitDy=0;entryX=0;entryY=0.5;entryDx=0;entryDy=0;strokeColor=#808080;fontSize=12;fontColor=#999999;startArrow=none;startFill=0;" parent="6gJS4afnVGDZ6o405xp5-42" source="g3mcLFEqI1_pV3j1C8BT-21" target="6gJS4afnVGDZ6o405xp5-76" edge="1">
          <mxGeometry relative="1" as="geometry" />
        </mxCell>
        <mxCell id="g3mcLFEqI1_pV3j1C8BT-21" value="" style="strokeColor=#9AC7BF;strokeWidth=1;shadow=0;labelBackgroundColor=none;labelBorderColor=none;fontSize=13;rounded=0;fillColor=#f5f5f5;fontColor=#333333;" parent="6gJS4afnVGDZ6o405xp5-42" vertex="1">
          <mxGeometry x="137.2" y="92" width="192.8" height="88" as="geometry" />
        </mxCell>
        <mxCell id="g3mcLFEqI1_pV3j1C8BT-29" style="rounded=0;orthogonalLoop=1;jettySize=auto;html=1;exitX=1;exitY=0.5;exitDx=0;exitDy=0;strokeColor=#CCCCCC;fontSize=12;fontColor=#999999;startArrow=classic;startFill=1;entryX=0.5;entryY=0;entryDx=0;entryDy=0;" parent="6gJS4afnVGDZ6o405xp5-42" source="g3mcLFEqI1_pV3j1C8BT-26" target="g3mcLFEqI1_pV3j1C8BT-27" edge="1">
          <mxGeometry relative="1" as="geometry" />
        </mxCell>
        <mxCell id="g3mcLFEqI1_pV3j1C8BT-31" style="rounded=0;orthogonalLoop=1;jettySize=auto;html=1;exitX=0;exitY=0.5;exitDx=0;exitDy=0;entryX=0.5;entryY=0;entryDx=0;entryDy=0;strokeColor=#CCCCCC;fontSize=12;fontColor=#999999;startArrow=classic;startFill=1;" parent="6gJS4afnVGDZ6o405xp5-42" source="g3mcLFEqI1_pV3j1C8BT-26" target="g3mcLFEqI1_pV3j1C8BT-28" edge="1">
          <mxGeometry relative="1" as="geometry" />
        </mxCell>
        <mxCell id="g3mcLFEqI1_pV3j1C8BT-26" value="" style="sketch=0;html=1;verticalAlign=top;labelPosition=center;verticalLabelPosition=bottom;align=center;spacingTop=-6;fontSize=11;fontStyle=0;fontColor=#999999;shape=image;aspect=fixed;imageAspect=0;image=data:image/svg+xml,PHN2ZyB4bWxucz0iaHR0cDovL3d3dy53My5vcmcvMjAwMC9zdmciIHhtbG5zOnY9Imh0dHBzOi8vdmVjdGEuaW8vbmFubyIgd2lkdGg9IjIwIiBoZWlnaHQ9IjIwIiB2aWV3Qm94PSIwIDAgMjAgMjAiPiYjeGE7CTxzdHlsZSB0eXBlPSJ0ZXh0L2NzcyI+JiN4YTsJLnN0MHtmaWxsOiM0Mjg1ZjQ7fSYjeGE7CS5zdDF7ZmlsbDojNjY5ZGY2O30mI3hhOwkuc3Qye2ZpbGw6I2FlY2JmYTt9JiN4YTsJPC9zdHlsZT4mI3hhOwk8cGF0aCBjbGFzcz0ic3QxIiBkPSJNMTMuMTMgNS42M1YzLjIxTDEwIDB2Mi40MXptMy43NSA3LjVMMjAgMTBoLTIuNWwtMy4xMiAzLjEzem0tMTMuNzUgMEwwIDEwaDIuNWwzLjEzIDMuMTN6bTEwIDEuMjV2Mi40MUwxMCAyMHYtMi40MXoiIGZpbGwtcnVsZT0iZXZlbm9kZCIvPiYjeGE7CTxwYXRoIGNsYXNzPSJzdDIiIGQ9Ik02Ljg4IDUuNjNMMTAgMi40MVYwTDYuODggMy4yMXpNMTcuNSAxMEgyMGwtMy4xMi0zLjEyaC0yLjV6bS0xNSAwSDBsMy4xMy0zLjEyaDIuNXptNC4zOCA0LjM4TDEwIDE3LjU5VjIwbC0zLjEyLTMuMjF6bTAtNy41aDYuMjV2Ni4yNUg2Ljg4eiIgZmlsbC1ydWxlPSJldmVub2RkIi8+JiN4YTsJPHBhdGggY2xhc3M9InN0MSIgZD0iTTYuODggMTMuMTNsNi4yNS02LjI1djYuMjV6IiBmaWxsLXJ1bGU9ImV2ZW5vZGQiLz4mI3hhOwk8cGF0aCBjbGFzcz0ic3QwIiBkPSJNMTAgMTBsMy4xMy0zLjEydjYuMjV6IiBmaWxsLXJ1bGU9ImV2ZW5vZGQiLz4mI3hhOzwvc3ZnPg==;dashed=1;strokeColor=#CCCCCC;fillColor=none;" parent="6gJS4afnVGDZ6o405xp5-42" vertex="1">
          <mxGeometry x="218.00000000000003" y="95.84" width="37" height="37" as="geometry" />
        </mxCell>
        <mxCell id="g3mcLFEqI1_pV3j1C8BT-27" value="" style="sketch=0;html=1;verticalAlign=top;labelPosition=center;verticalLabelPosition=bottom;align=center;spacingTop=-6;fontSize=11;fontStyle=0;fontColor=#999999;shape=image;aspect=fixed;imageAspect=0;image=data:image/svg+xml,PHN2ZyB4bWxucz0iaHR0cDovL3d3dy53My5vcmcvMjAwMC9zdmciIHhtbG5zOnY9Imh0dHBzOi8vdmVjdGEuaW8vbmFubyIgd2lkdGg9IjIwIiBoZWlnaHQ9IjIwIiB2aWV3Qm94PSIwIDAgMjAgMjAiPiYjeGE7CTxzdHlsZSB0eXBlPSJ0ZXh0L2NzcyI+JiN4YTsJLnN0MHtmaWxsOiM0Mjg1ZjQ7fSYjeGE7CS5zdDF7ZmlsbDojNjY5ZGY2O30mI3hhOwkuc3Qye2ZpbGw6I2FlY2JmYTt9JiN4YTsJPC9zdHlsZT4mI3hhOwk8cGF0aCBjbGFzcz0ic3QxIiBkPSJNMTMuMTMgNS42M1YzLjIxTDEwIDB2Mi40MXptMy43NSA3LjVMMjAgMTBoLTIuNWwtMy4xMiAzLjEzem0tMTMuNzUgMEwwIDEwaDIuNWwzLjEzIDMuMTN6bTEwIDEuMjV2Mi40MUwxMCAyMHYtMi40MXoiIGZpbGwtcnVsZT0iZXZlbm9kZCIvPiYjeGE7CTxwYXRoIGNsYXNzPSJzdDIiIGQ9Ik02Ljg4IDUuNjNMMTAgMi40MVYwTDYuODggMy4yMXpNMTcuNSAxMEgyMGwtMy4xMi0zLjEyaC0yLjV6bS0xNSAwSDBsMy4xMy0zLjEyaDIuNXptNC4zOCA0LjM4TDEwIDE3LjU5VjIwbC0zLjEyLTMuMjF6bTAtNy41aDYuMjV2Ni4yNUg2Ljg4eiIgZmlsbC1ydWxlPSJldmVub2RkIi8+JiN4YTsJPHBhdGggY2xhc3M9InN0MSIgZD0iTTYuODggMTMuMTNsNi4yNS02LjI1djYuMjV6IiBmaWxsLXJ1bGU9ImV2ZW5vZGQiLz4mI3hhOwk8cGF0aCBjbGFzcz0ic3QwIiBkPSJNMTAgMTBsMy4xMy0zLjEydjYuMjV6IiBmaWxsLXJ1bGU9ImV2ZW5vZGQiLz4mI3hhOzwvc3ZnPg==;dashed=1;strokeColor=#CCCCCC;fillColor=none;" parent="6gJS4afnVGDZ6o405xp5-42" vertex="1">
          <mxGeometry x="273" y="143" width="37" height="37" as="geometry" />
        </mxCell>
        <mxCell id="g3mcLFEqI1_pV3j1C8BT-32" style="edgeStyle=orthogonalEdgeStyle;rounded=0;orthogonalLoop=1;jettySize=auto;html=1;exitX=1;exitY=0.5;exitDx=0;exitDy=0;strokeColor=#CCCCCC;fontSize=12;fontColor=#999999;startArrow=classic;startFill=1;" parent="6gJS4afnVGDZ6o405xp5-42" source="g3mcLFEqI1_pV3j1C8BT-28" target="g3mcLFEqI1_pV3j1C8BT-27" edge="1">
          <mxGeometry relative="1" as="geometry" />
        </mxCell>
        <mxCell id="g3mcLFEqI1_pV3j1C8BT-28" value="" style="sketch=0;html=1;verticalAlign=top;labelPosition=center;verticalLabelPosition=bottom;align=center;spacingTop=-6;fontSize=11;fontStyle=0;fontColor=#999999;shape=image;aspect=fixed;imageAspect=0;image=data:image/svg+xml,PHN2ZyB4bWxucz0iaHR0cDovL3d3dy53My5vcmcvMjAwMC9zdmciIHhtbG5zOnY9Imh0dHBzOi8vdmVjdGEuaW8vbmFubyIgd2lkdGg9IjIwIiBoZWlnaHQ9IjIwIiB2aWV3Qm94PSIwIDAgMjAgMjAiPiYjeGE7CTxzdHlsZSB0eXBlPSJ0ZXh0L2NzcyI+JiN4YTsJLnN0MHtmaWxsOiM0Mjg1ZjQ7fSYjeGE7CS5zdDF7ZmlsbDojNjY5ZGY2O30mI3hhOwkuc3Qye2ZpbGw6I2FlY2JmYTt9JiN4YTsJPC9zdHlsZT4mI3hhOwk8cGF0aCBjbGFzcz0ic3QxIiBkPSJNMTMuMTMgNS42M1YzLjIxTDEwIDB2Mi40MXptMy43NSA3LjVMMjAgMTBoLTIuNWwtMy4xMiAzLjEzem0tMTMuNzUgMEwwIDEwaDIuNWwzLjEzIDMuMTN6bTEwIDEuMjV2Mi40MUwxMCAyMHYtMi40MXoiIGZpbGwtcnVsZT0iZXZlbm9kZCIvPiYjeGE7CTxwYXRoIGNsYXNzPSJzdDIiIGQ9Ik02Ljg4IDUuNjNMMTAgMi40MVYwTDYuODggMy4yMXpNMTcuNSAxMEgyMGwtMy4xMi0zLjEyaC0yLjV6bS0xNSAwSDBsMy4xMy0zLjEyaDIuNXptNC4zOCA0LjM4TDEwIDE3LjU5VjIwbC0zLjEyLTMuMjF6bTAtNy41aDYuMjV2Ni4yNUg2Ljg4eiIgZmlsbC1ydWxlPSJldmVub2RkIi8+JiN4YTsJPHBhdGggY2xhc3M9InN0MSIgZD0iTTYuODggMTMuMTNsNi4yNS02LjI1djYuMjV6IiBmaWxsLXJ1bGU9ImV2ZW5vZGQiLz4mI3hhOwk8cGF0aCBjbGFzcz0ic3QwIiBkPSJNMTAgMTBsMy4xMy0zLjEydjYuMjV6IiBmaWxsLXJ1bGU9ImV2ZW5vZGQiLz4mI3hhOzwvc3ZnPg==;dashed=1;strokeColor=#CCCCCC;fillColor=none;" parent="6gJS4afnVGDZ6o405xp5-42" vertex="1">
          <mxGeometry x="170" y="143" width="37" height="37" as="geometry" />
        </mxCell>
        <mxCell id="g3mcLFEqI1_pV3j1C8BT-34" value="CDN" style="text;html=1;strokeColor=none;fillColor=none;align=center;verticalAlign=middle;whiteSpace=wrap;rounded=0;fontSize=11;fontColor=#666666;" parent="6gJS4afnVGDZ6o405xp5-42" vertex="1">
          <mxGeometry x="137.2" y="92" width="40" height="30" as="geometry" />
        </mxCell>
        <mxCell id="g3mcLFEqI1_pV3j1C8BT-37" style="edgeStyle=orthogonalEdgeStyle;rounded=0;orthogonalLoop=1;jettySize=auto;html=1;exitX=1;exitY=0.5;exitDx=0;exitDy=0;entryX=0;entryY=0.5;entryDx=0;entryDy=0;strokeColor=#808080;fontSize=12;fontColor=#999999;startArrow=none;startFill=0;" parent="6gJS4afnVGDZ6o405xp5-42" source="g3mcLFEqI1_pV3j1C8BT-36" target="g3mcLFEqI1_pV3j1C8BT-21" edge="1">
          <mxGeometry relative="1" as="geometry" />
        </mxCell>
        <mxCell id="g3mcLFEqI1_pV3j1C8BT-36" value="IE" style="sketch=0;html=1;verticalAlign=top;labelPosition=center;verticalLabelPosition=bottom;align=center;spacingTop=-6;fontSize=11;fontStyle=1;fontColor=#999999;shape=image;aspect=fixed;imageAspect=0;image=data:image/svg+xml,PHN2ZyB4bWxucz0iaHR0cDovL3d3dy53My5vcmcvMjAwMC9zdmciIHhtbG5zOnY9Imh0dHBzOi8vdmVjdGEuaW8vbmFubyIgd2lkdGg9IjIwIiBoZWlnaHQ9IjE4Ljk1MDAwMDc2MjkzOTQ1MyIgdmlld0JveD0iMCAwIDIwIDE4Ljk1MDAwMDc2MjkzOTQ1MyI+JiN4YTsJPHN0eWxlIHR5cGU9InRleHQvY3NzIj4mI3hhOwkuc3Qwe2ZpbGw6IzQyODVmNDt9JiN4YTsJLnN0MXtmaWxsOiM2NjlkZjY7fSYjeGE7CS5zdDJ7ZmlsbDojYWVjYmZhO30mI3hhOwk8L3N0eWxlPiYjeGE7CTxwYXRoIGNsYXNzPSJzdDAiIGQ9Ik04IDEzLjk1aDR2NEg4eiIvPiYjeGE7CTxnIGZpbGwtcnVsZT0iZXZlbm9kZCI+JiN4YTsJCTxwYXRoIGNsYXNzPSJzdDEiIGQ9Ik0xMS42NSA0LjQ3TDE3IDkuOFY3Ljc5bC00LjM0LTQuMzN6Ii8+JiN4YTsJCTxwYXRoIGNsYXNzPSJzdDAiIGQ9Ik0xMi42NiAzLjQ2bDEuMDEgMS4wMXYyLjAxbC0yLjAyLTIuMDF6Ii8+JiN4YTsJCTxwYXRoIGNsYXNzPSJzdDIiIGQ9Ik0xMi42NiAzLjQ2bDEuMDEgMS4wMS00LjczIDQuNzItMS4wMS0xLjAxeiIvPiYjeGE7CQk8cGF0aCBjbGFzcz0ic3QxIiBkPSJNNy4xIDUuMzNsMi44NSAyLjg1LTEuMDEgMS4wMS0yLjg2LTIuODV6Ii8+JiN4YTsJCTxwYXRoIGNsYXNzPSJzdDAiIGQ9Ik03LjEgNS4zM2wuOTguOTh2Mi4wMmwtMi0xLjk5eiIvPiYjeGE7CQk8cGF0aCBjbGFzcz0ic3QyIiBkPSJNNy4wNyA1LjNMMyA5LjM2djEuNThoLjQ0bDQuNjQtNC42M3oiLz4mI3hhOwkJPHBhdGggY2xhc3M9InN0MSIgZD0iTTIwIDFhMS4yNCAxLjI0IDAgMCAwLTEtMUgxYTEuMjQgMS4yNCAwIDAgMC0xIDF2MTIuOTVhMS4xOSAxLjE5IDAgMCAwIDEgMWgxOGExLjE5IDEuMTkgMCAwIDAgMS0xem0tMiAxMS45NUgydi0xMWgxNnptLTEyIDZjMC0uNjkuMzEtMSAxLTFoNmMuNjkgMCAxIC4zMSAxIDF6Ii8+JiN4YTsJPC9nPiYjeGE7PC9zdmc+;dashed=1;strokeColor=#CCCCCC;fillColor=none;" parent="6gJS4afnVGDZ6o405xp5-42" vertex="1">
          <mxGeometry x="40" y="116" width="42" height="40" as="geometry" />
        </mxCell>
        <mxCell id="g3mcLFEqI1_pV3j1C8BT-43" style="edgeStyle=none;rounded=0;orthogonalLoop=1;jettySize=auto;html=1;exitX=0.5;exitY=1;exitDx=0;exitDy=0;entryX=0.772;entryY=0.029;entryDx=0;entryDy=0;entryPerimeter=0;strokeColor=#808080;fontSize=12;fontColor=#999999;startArrow=none;startFill=0;" parent="6gJS4afnVGDZ6o405xp5-42" source="6gJS4afnVGDZ6o405xp5-76" target="6gJS4afnVGDZ6o405xp5-90" edge="1">
          <mxGeometry relative="1" as="geometry" />
        </mxCell>
        <mxCell id="6gJS4afnVGDZ6o405xp5-76" value="" style="strokeColor=#C3ABD0;strokeWidth=1;shadow=0;labelBackgroundColor=none;labelBorderColor=none;fontSize=13;rounded=0;fillColor=#f5f5f5;fontColor=#333333;" parent="6gJS4afnVGDZ6o405xp5-42" vertex="1">
          <mxGeometry x="376.02" y="93.5" width="283.98" height="85" as="geometry" />
        </mxCell>
        <mxCell id="6gJS4afnVGDZ6o405xp5-74" value="Nginx Master" style="sketch=0;html=1;verticalAlign=top;labelPosition=center;verticalLabelPosition=bottom;align=center;spacingTop=-6;fontSize=11;fontStyle=0;fontColor=#999999;shape=image;aspect=fixed;imageAspect=0;image=data:image/svg+xml,PHN2ZyB4bWxucz0iaHR0cDovL3d3dy53My5vcmcvMjAwMC9zdmciIGlkPSJzdmc1IiB2ZXJzaW9uPSIxLjEiIHZpZXdCb3g9IjAgMCAyMzkuNzA4MjUgMjc0Ljg2MzI4IiBoZWlnaHQ9IjI3NC44NjMyOG1tIiB3aWR0aD0iMjM5LjcwODI1bW0iPiYjeGE7ICAmI3hhOyAgPGRlZnMgaWQ9ImRlZnMyIi8+JiN4YTsgIDxnIHRyYW5zZm9ybT0idHJhbnNsYXRlKC02Ni42ODYzNjEsNjAuMjU5NzY2KSIgaWQ9ImxheWVyMSI+JiN4YTsgICAgPGcgc3R5bGU9Im9wYWNpdHk6MC45OSIgaWQ9InBhdGg4NjkiLz4mI3hhOyAgICA8ZyBzdHlsZT0ib3BhY2l0eTowLjk5IiBpZD0icGF0aDg2OS0yIi8+JiN4YTsgICAgPGcgc3R5bGU9Im9wYWNpdHk6MC45OSIgaWQ9InBhdGg4NjktMyIvPiYjeGE7ICAgIDxnIHN0eWxlPSJvcGFjaXR5OjAuOTkiIGlkPSJwYXRoODY5LTEiLz4mI3hhOyAgICA8ZyBzdHlsZT0ib3BhY2l0eTowLjk5IiBpZD0icGF0aDg2OS04Ii8+JiN4YTsgICAgPGcgc3R5bGU9Im9wYWNpdHk6MC45OSIgaWQ9InBhdGg4NzEiPiYjeGE7ICAgICAgPHBhdGggaWQ9InBhdGgzMzU3IiBkPSJtIDc3LjE4Njc3NSwxMTAuODgyNTIgOTQuMjM5Njk1LDY5Ljc0NTc1IiBzdHlsZT0iY29sb3I6IzAwMDAwMDtmaWxsOiMwMDgwMDA7c3Ryb2tlLXdpZHRoOjIxO3N0cm9rZS1saW5lY2FwOnJvdW5kOy1pbmtzY2FwZS1zdHJva2U6bm9uZSIvPiYjeGE7ICAgIDwvZz4mI3hhOyAgICA8ZyBzdHlsZT0ib3BhY2l0eTowLjk5IiBpZD0icGF0aDg3MyIvPiYjeGE7ICAgIDxwYXRoIGQ9Im0gMTUzLjA4MTIsMTA5LjAzNTY4IGMgMCw2LjEyMDQ3IC00Ljk2MTYyLDExLjA4MjA5IC0xMS4wODIwOSwxMS4wODIwOSAtNi4xMjA0NywwIC0xMS4wODIwOCwtNC45NjE2MiAtMTEuMDgyMDgsLTExLjA4MjA5IDAsLTYuMTIwNDYgNC45NjE2MiwtMTEuMDgyMDgyIDExLjA4MjA4LC0xMS4wODIwODcgNi4xMjA0NywtMTBlLTcgMTEuMDgyMDksNC45NjE2MTcgMTEuMDgyMDksMTEuMDgyMDg3IHogbSAwLC05Mi41MTMzODEgYyAwLDYuMTIwNDY5IC00Ljk2MTYyLDExLjA4MjA5IC0xMS4wODIwOSwxMS4wODIwODkgLTYuMTIwNDcsLTVlLTYgLTExLjA4MjA4LC00Ljk2MTYyNCAtMTEuMDgyMDgsLTExLjA4MjA4OSAwLC02LjEyMDQ2NSA0Ljk2MTYxLC0xMS4wODIwODQ2IDExLjA4MjA4LC0xMS4wODIwODk2IDYuMTIwNDcsLTZlLTcgMTEuMDgyMDksNC45NjE2MjA2IDExLjA4MjA5LDExLjA4MjA4OTYgeiBtIDAsLTMyLjkyMTY4MyBjIDAsNi4xMjA0NjkgLTQuOTYxNjIsMTEuMDgyMDkwNSAtMTEuMDgyMDksMTEuMDgyMDg5OSAtNi4xMjA0NywtNWUtNiAtMTEuMDgyMDgsLTQuOTYxNjIzOSAtMTEuMDgyMDgsLTExLjA4MjA4OTkgMCwtNi4xMjA0NjUgNC45NjE2MSwtMTEuMDgyMDg0IDExLjA4MjA4LC0xMS4wODIwODkgNi4xMjA0NywtMTBlLTcgMTEuMDgyMDksNC45NjE2MiAxMS4wODIwOSwxMS4wODIwODkgeiBNIDEwOC43NDE4MSw3Ni43MTgwMSBjIDAsNi4xMjA0NjkgLTQuOTYxNjIsMTEuMDgyMDg5IC0xMS4wODIwODksMTEuMDgyMDg5IC02LjEyMDQ2OSwwIC0xMS4wODIwODksLTQuOTYxNjIgLTExLjA4MjA4OSwtMTEuMDgyMDg5IDAsLTYuMTIwNDY5IDQuOTYxNjIsLTExLjA4MjA4OSAxMS4wODIwODksLTExLjA4MjA4OSA2LjEyMDQ2OSwwIDExLjA4MjA4OSw0Ljk2MTYyIDExLjA4MjA4OSwxMS4wODIwODkgeiBtIDAsLTMyLjY4MDYyNiBjIDAsNi4xMjA0NjkgLTQuOTYxNjIsMTEuMDgyMDg5IC0xMS4wODIwODksMTEuMDgyMDg5IC02LjEyMDQ2OSwwIC0xMS4wODIwODksLTQuOTYxNjIgLTExLjA4MjA4OSwtMTEuMDgyMDg5IDAsLTYuMTIwNDY5IDQuOTYxNjIsLTExLjA4MjA4OSAxMS4wODIwODksLTExLjA4MjA4OSA2LjEyMDQ2OSwwIDExLjA4MjA4OSw0Ljk2MTYyIDExLjA4MjA4OSwxMS4wODIwODkgeiBtIDAsLTMyLjY3ODI0MyBjIDAsNi4xMjA0NjkgLTQuOTYxNjIsMTEuMDgyMDkgLTExLjA4MjA4OSwxMS4wODIwOSAtNi4xMjA0NjksMCAtMTEuMDgyMDksLTQuOTYxNjIxIC0xMS4wODIwODksLTExLjA4MjA5IDAsLTYuMTIwNDY4OCA0Ljk2MTYyLC0xMS4wODIwODkwNyAxMS4wODIwODksLTExLjA4MjA4OTA3IDYuMTIwNDY5LDAgMTEuMDgyMDg5LDQuOTYxNjIwMjcgMTEuMDgyMDg5LDExLjA4MjA4OTA3IHogTSAxNDIsMzcuNzc5Mjk3IGMgLTUuNzk4OTksMCAtMTAuNSw0LjcwMTAxIC0xMC41LDEwLjUgdiAyOC45OTQxNCBjIDAsNS43OTg5OSA0LjcwMTAxLDEwLjUgMTAuNSwxMC41IDUuNzk4OTksMCAxMC41LC00LjcwMTAxIDEwLjUsLTEwLjUgdiAtMjguOTk0MTQgYyAwLC01Ljc5ODk5IC00LjcwMTAxLC0xMC41IC0xMC41LC0xMC41IHogbSAtOC45ZS00LDEwLjUwMDM3NyBWIDc3LjI3MzY5MSBNIDk3LjY2MDE1NiwtNjAuMjU5NzY2IGMgLTUuNzk4OTksMCAtMTAuNSw0LjcwMTAxIC0xMC41LDEwLjUgdiAyOC45OTQxNDEgYyAwLDUuNzk4OTkgNC43MDEwMSwxMC41IDEwLjUsMTAuNSA1Ljc5ODk5NCwyZS02IDEwLjUwMDAwNCwtNC43MDEwMDkgMTAuNTAwMDA0LC0xMC41IHYgLTI4Ljk5NDE0MSBjIDAsLTUuNzk4OTkxIC00LjcwMTAxLC0xMC41MDAwMDIgLTEwLjUwMDAwNCwtMTAuNSB6IG0gLTQuMzVlLTQsMTAuNDk5NzY1IHYgMjguOTk0MDE3IE0gNzUuNjM0NzY2LDEwMC40OTgwNSBjIC0yLjc1NDE5MSwwLjQxMTQ4IC01LjIzMjExOSwxLjkwMDIxIC02Ljg4ODY3Miw0LjEzODY3IC0zLjQ0ODg3NCw0LjY2MTU3IC0yLjQ2NjAyNCwxMS4yMzYzNSAyLjE5NTMxMiwxNC42ODU1NSBsIDk0LjIzODI4NCw2OS43NDYwOSAxMi43ODYwNCwtMTYuNjY2NTkgLTk0LjUzMjEzNiwtNjkuOTU4NDEgYyAtMi4yMzg2OTksLTEuNjU3MTYgLTUuMDQ0MTAxLC0yLjM1NjkzIC03Ljc5ODgyOCwtMS45NDUzMSB6IiBzdHlsZT0iY29sb3I6IzAwMDAwMDtvcGFjaXR5OjAuOTk7ZmlsbDojYjVjYmY5O2ZpbGwtb3BhY2l0eToxO3N0cm9rZS13aWR0aDoyMTtzdHJva2UtbGluZWNhcDpyb3VuZDtzdHJva2UtbGluZWpvaW46cm91bmQ7LWlua3NjYXBlLXN0cm9rZTpub25lIiBpZD0icGF0aDE4NDAtNSIvPiYjeGE7ICAgIDxwYXRoIGQ9Im0gMTk3LjM5Mjc2LDE0MS45NzM2NiBjIDAsNi4xMjA0NyAtNC45NjE2MiwxMS4wODIwOSAtMTEuMDgyMDksMTEuMDgyMDkgLTYuMTIwNDcsMCAtMTEuMDgyMDksLTQuOTYxNjIgLTExLjA4MjA5LC0xMS4wODIwOSAwLC02LjEyMDQ3IDQuOTYxNjIsLTExLjA4MjA5IDExLjA4MjA5LC0xMS4wODIwOSA2LjEyMDQ3LDAgMTEuMDgyMDksNC45NjE2MiAxMS4wODIwOSwxMS4wODIwOSB6IG0gMCwtOTIuNzI1NTg2IGMgMCw2LjEyMDQ2OSAtNC45NjE2MiwxMS4wODIwOSAtMTEuMDgyMDksMTEuMDgyMDg5IC02LjEyMDQ3LDFlLTYgLTExLjA4MjA5LC00Ljk2MTYyIC0xMS4wODIwOSwtMTEuMDgyMDg5IDAsLTYuMTIwNDcgNC45NjE2MiwtMTEuMDgyMDkxIDExLjA4MjA5LC0xMS4wODIwOSA2LjEyMDQ3LC0xZS02IDExLjA4MjA5LDQuOTYxNjIgMTEuMDgyMDksMTEuMDgyMDkgeiBtIDAsLTMyLjg1NDQ1OCBjIDAsNi4xMjA0NjkgLTQuOTYxNjIsMTEuMDgyMDkgLTExLjA4MjA5LDExLjA4MjA4OSAtNi4xMjA0NywxMGUtNyAtMTEuMDgyMDksLTQuOTYxNjIgLTExLjA4MjA5LC0xMS4wODIwODkgMCwtNi4xMjA0NjkgNC45NjE2MiwtMTEuMDgyMDkwMyAxMS4wODIwOSwtMTEuMDgyMDg5NyA2LjEyMDQ3LC02ZS03IDExLjA4MjA5LDQuOTYxNjIwNyAxMS4wODIwOSwxMS4wODIwODk3IHogbSAxMDAuMDI5MTEsODQuMDA2Nzc0IGMgLTIuNzU1MTcsLTAuNDA1MDA0IC01LjU1ODM4LDAuMzAxMDcgLTcuNzkyOTYsMS45NjI4OSBsIC05NC43NDYxLDcwLjQzNzUgMTIuNTI5MywxNi44NTM1MiA5NC43NDYwOSwtNzAuNDM3NSBjIDQuNjU0MTIsLTMuNDU5NzggNS42MjIxNSwtMTAuMDM3NDggMi4xNjIxMSwtMTQuNjkxNDEgLTEuNjYxMzYsLTIuMjM1NTMgLTQuMTQyODcsLTMuNzE5MzcgLTYuODk4NDQsLTQuMTI1IHogTSAxODYuMzEwNTUsNzAuODY3MTg3IGMgLTUuNzk4OTksMCAtMTAuNSw0LjcwMTAxIC0xMC41LDEwLjUgdiAyOC45OTQxNDMgYyAwLDUuNzk4OTkgNC43MDEwMSwxMC41IDEwLjUsMTAuNSA1Ljc5ODk5LDAgMTAuNSwtNC43MDEwMSAxMC41LC0xMC41IFYgODEuMzY3MTg3IGMgMCwtNS43OTg5OSAtNC43MDEwMSwtMTAuNSAtMTAuNSwtMTAuNSB6IG0gMS4yZS00LDEwLjUwMDgyNyB2IDI4Ljk5NDAxNiIgc3R5bGU9ImNvbG9yOiMwMDAwMDA7b3BhY2l0eTowLjk5O2ZpbGw6Izc2OWVmNTtmaWxsLW9wYWNpdHk6MTtzdHJva2Utd2lkdGg6MjE7c3Ryb2tlLWxpbmVjYXA6cm91bmQ7c3Ryb2tlLWxpbmVqb2luOnJvdW5kOy1pbmtzY2FwZS1zdHJva2U6bm9uZSIgaWQ9InBhdGgxODQwLTMiLz4mI3hhOyAgICA8cGF0aCBkPSJtIDE4Ni4zNDU3LDE3MC42ODE2NCBjIC0xMi4wNDU3LDAgLTIxLjk2MDkzLDkuOTE1MjQgLTIxLjk2MDkzLDIxLjk2MDk0IDAsMTIuMDQ1NyA5LjkxNTIzLDIxLjk2MDk0IDIxLjk2MDkzLDIxLjk2MDk0IDEyLjA0NTcsMCAyMS45NjA5NCwtOS45MTUyNCAyMS45NjA5NCwtMjEuOTYwOTQgMCwtMTIuMDQ1NyAtOS45MTUyNCwtMjEuOTYwOTQgLTIxLjk2MDk0LC0yMS45NjA5NCB6IG0gMCwxNCBjIDQuNDc5NTUsMCA3Ljk2MDk0LDMuNDgxMzkgNy45NjA5NCw3Ljk2MDk0IDAsNC40Nzk1NSAtMy40ODEzOSw3Ljk2MDk0IC03Ljk2MDk0LDcuOTYwOTQgLTQuNDc5NTQsMCAtNy45NjA5MywtMy40ODEzOSAtNy45NjA5MywtNy45NjA5NCAwLC00LjQ3OTU1IDMuNDgxMzksLTcuOTYwOTQgNy45NjA5MywtNy45NjA5NCB6IE0gMjg2LjE2MTM3LDc2Ljc5MTAwOCBBIDExLjA4MjA4OSwxMS4wODIwODkgMCAwIDEgMjc1LjA3OTI4LDg3Ljg3MzA5NyAxMS4wODIwODksMTEuMDgyMDg5IDAgMCAxIDI2My45OTcyLDc2Ljc5MTAwOCAxMS4wODIwODksMTEuMDgyMDg5IDAgMCAxIDI3NS4wNzkyOCw2NS43MDg5MTkgMTEuMDgyMDg5LDExLjA4MjA4OSAwIDAgMSAyODYuMTYxMzcsNzYuNzkxMDA4IFogbSAwLC0zMy4xNDU0MzUgYSAxMS4wODIwODksMTEuMDgyMDg5IDAgMCAxIC0xMS4wODIwOSwxMS4wODIwODkgMTEuMDgyMDg5LDExLjA4MjA4OSAwIDAgMSAtMTEuMDgyMDgsLTExLjA4MjA4OSAxMS4wODIwODksMTEuMDgyMDg5IDAgMCAxIDExLjA4MjA4LC0xMS4wODIwOSAxMS4wODIwODksMTEuMDgyMDg5IDAgMCAxIDExLjA4MjA5LDExLjA4MjA5IHogbSAwLC05Mi40NjgyMjQgYSAxMS4wODIwODksMTEuMDgyMDg5IDAgMCAxIC0xMS4wODIwOSwxMS4wODIwOSAxMS4wODIwODksMTEuMDgyMDg5IDAgMCAxIC0xMS4wODIwOCwtMTEuMDgyMDkgMTEuMDgyMDg5LDExLjA4MjA4OSAwIDAgMSAxMS4wODIwOCwtMTEuMDgyMDg5IDExLjA4MjA4OSwxMS4wODIwODkgMCAwIDEgMTEuMDgyMDksMTEuMDgyMDg5IHogbSAtNDQuMjEzNjIsMzIuNTU3NzE2IGEgMTEuMDgyMDg5LDExLjA4MjA4OSAwIDAgMSAtMTEuMDgyMDksMTEuMDgyMDg5OSAxMS4wODIwODksMTEuMDgyMDg5IDAgMCAxIC0xMS4wODIwOSwtMTEuMDgyMDg5OSAxMS4wODIwODksMTEuMDgyMDg5IDAgMCAxIDExLjA4MjA5LC0xMS4wODIwODkgMTEuMDgyMDg5LDExLjA4MjA4OSAwIDAgMSAxMS4wODIwOSwxMS4wODIwODkgeiBtIDAsOTIuNTM1NDQzIGEgMTEuMDgyMDg5LDExLjA4MjA4OSAwIDAgMSAtMTEuMDgyMDksMTEuMDgyMDg5IDExLjA4MjA4OSwxMS4wODIwODkgMCAwIDEgLTExLjA4MjA5LC0xMS4wODIwODkgMTEuMDgyMDg5LDExLjA4MjA4OSAwIDAgMSAxMS4wODIwOSwtMTEuMDgyMDkgMTEuMDgyMDg5LDExLjA4MjA4OSAwIDAgMSAxMS4wODIwOSwxMS4wODIwOSB6IG0gMCwzMi44ODIzMTIgYSAxMS4wODIwODksMTEuMDgyMDg5IDAgMCAxIC0xMS4wODIwOSwxMS4wODIwOSAxMS4wODIwODksMTEuMDgyMDg5IDAgMCAxIC0xMS4wODIwOSwtMTEuMDgyMDkgMTEuMDgyMDg5LDExLjA4MjA4OSAwIDAgMSAxMS4wODIwOSwtMTEuMDgyMDkzIDExLjA4MjA4OSwxMS4wODIwODkgMCAwIDEgMTEuMDgyMDksMTEuMDgyMDkzIHogbSAzMy4xMzIzMywtMTM2LjU4ODM2NyBhIDEwLjUsMTAuNSAwIDAgMCAtMTAuNSwxMC41IHYgMjguOTk0MTQxIGEgMTAuNSwxMC41IDAgMCAwIDEwLjUsMTAuNSAxMC41LDEwLjUgMCAwIDAgMTAuNSwtMTAuNSB2IC0yOC45OTQxNDEgYSAxMC41LDEwLjUgMCAwIDAgLTEwLjUsLTEwLjUgeiBtIC04ZS00LDEwLjUwMDc1OSBWIDEyLjA1OTIyOSBNIDIzMC44NjUyMyw1LjI0MDIzNDQgYSAxMC41LDEwLjUgMCAwIDAgLTEwLjUsMTAuNDk5OTk5NiB2IDI4Ljk5NDE0MSBhIDEwLjUsMTAuNSAwIDAgMCAxMC41LDEwLjUgMTAuNSwxMC41IDAgMCAwIDEwLjUsLTEwLjUgViAxNS43NDAyMzQgYSAxMC41LDEwLjUgMCAwIDAgLTEwLjUsLTEwLjQ5OTk5OTYgeiBtIDQuMmUtNCwxMC40OTk0MzA2IHYgMjguOTk0MDE3IiBzdHlsZT0iY29sb3I6IzAwMDAwMDtvcGFjaXR5OjAuOTk7ZmlsbDojNTk4NmYyO2ZpbGwtb3BhY2l0eToxO3N0cm9rZS1saW5lY2FwOnJvdW5kO3N0cm9rZS1saW5lam9pbjpyb3VuZDstaW5rc2NhcGUtc3Ryb2tlOm5vbmUiIGlkPSJwYXRoMTg0MC04Ii8+JiN4YTsgIDwvZz4mI3hhOzwvc3ZnPg==;rounded=1;shadow=1;dashed=1;labelBackgroundColor=none;labelBorderColor=none;strokeColor=default;" parent="6gJS4afnVGDZ6o405xp5-42" vertex="1">
          <mxGeometry x="453.0257635467981" y="120.69172043010752" width="26.97536945812808" height="30.620689655172413" as="geometry" />
        </mxCell>
        <mxCell id="6gJS4afnVGDZ6o405xp5-75" value="Nginx Slave" style="sketch=0;html=1;verticalAlign=top;labelPosition=center;verticalLabelPosition=bottom;align=center;spacingTop=-6;fontSize=11;fontStyle=0;fontColor=#999999;shape=image;aspect=fixed;imageAspect=0;image=data:image/svg+xml,PHN2ZyB4bWxucz0iaHR0cDovL3d3dy53My5vcmcvMjAwMC9zdmciIGlkPSJzdmc1IiB2ZXJzaW9uPSIxLjEiIHZpZXdCb3g9IjAgMCAyMzkuNzA4MjUgMjc0Ljg2MzI4IiBoZWlnaHQ9IjI3NC44NjMyOG1tIiB3aWR0aD0iMjM5LjcwODI1bW0iPiYjeGE7ICAmI3hhOyAgPGRlZnMgaWQ9ImRlZnMyIi8+JiN4YTsgIDxnIHRyYW5zZm9ybT0idHJhbnNsYXRlKC02Ni42ODYzNjEsNjAuMjU5NzY2KSIgaWQ9ImxheWVyMSI+JiN4YTsgICAgPGcgc3R5bGU9Im9wYWNpdHk6MC45OSIgaWQ9InBhdGg4NjkiLz4mI3hhOyAgICA8ZyBzdHlsZT0ib3BhY2l0eTowLjk5IiBpZD0icGF0aDg2OS0yIi8+JiN4YTsgICAgPGcgc3R5bGU9Im9wYWNpdHk6MC45OSIgaWQ9InBhdGg4NjktMyIvPiYjeGE7ICAgIDxnIHN0eWxlPSJvcGFjaXR5OjAuOTkiIGlkPSJwYXRoODY5LTEiLz4mI3hhOyAgICA8ZyBzdHlsZT0ib3BhY2l0eTowLjk5IiBpZD0icGF0aDg2OS04Ii8+JiN4YTsgICAgPGcgc3R5bGU9Im9wYWNpdHk6MC45OSIgaWQ9InBhdGg4NzEiPiYjeGE7ICAgICAgPHBhdGggaWQ9InBhdGgzMzU3IiBkPSJtIDc3LjE4Njc3NSwxMTAuODgyNTIgOTQuMjM5Njk1LDY5Ljc0NTc1IiBzdHlsZT0iY29sb3I6IzAwMDAwMDtmaWxsOiMwMDgwMDA7c3Ryb2tlLXdpZHRoOjIxO3N0cm9rZS1saW5lY2FwOnJvdW5kOy1pbmtzY2FwZS1zdHJva2U6bm9uZSIvPiYjeGE7ICAgIDwvZz4mI3hhOyAgICA8ZyBzdHlsZT0ib3BhY2l0eTowLjk5IiBpZD0icGF0aDg3MyIvPiYjeGE7ICAgIDxwYXRoIGQ9Im0gMTUzLjA4MTIsMTA5LjAzNTY4IGMgMCw2LjEyMDQ3IC00Ljk2MTYyLDExLjA4MjA5IC0xMS4wODIwOSwxMS4wODIwOSAtNi4xMjA0NywwIC0xMS4wODIwOCwtNC45NjE2MiAtMTEuMDgyMDgsLTExLjA4MjA5IDAsLTYuMTIwNDYgNC45NjE2MiwtMTEuMDgyMDgyIDExLjA4MjA4LC0xMS4wODIwODcgNi4xMjA0NywtMTBlLTcgMTEuMDgyMDksNC45NjE2MTcgMTEuMDgyMDksMTEuMDgyMDg3IHogbSAwLC05Mi41MTMzODEgYyAwLDYuMTIwNDY5IC00Ljk2MTYyLDExLjA4MjA5IC0xMS4wODIwOSwxMS4wODIwODkgLTYuMTIwNDcsLTVlLTYgLTExLjA4MjA4LC00Ljk2MTYyNCAtMTEuMDgyMDgsLTExLjA4MjA4OSAwLC02LjEyMDQ2NSA0Ljk2MTYxLC0xMS4wODIwODQ2IDExLjA4MjA4LC0xMS4wODIwODk2IDYuMTIwNDcsLTZlLTcgMTEuMDgyMDksNC45NjE2MjA2IDExLjA4MjA5LDExLjA4MjA4OTYgeiBtIDAsLTMyLjkyMTY4MyBjIDAsNi4xMjA0NjkgLTQuOTYxNjIsMTEuMDgyMDkwNSAtMTEuMDgyMDksMTEuMDgyMDg5OSAtNi4xMjA0NywtNWUtNiAtMTEuMDgyMDgsLTQuOTYxNjIzOSAtMTEuMDgyMDgsLTExLjA4MjA4OTkgMCwtNi4xMjA0NjUgNC45NjE2MSwtMTEuMDgyMDg0IDExLjA4MjA4LC0xMS4wODIwODkgNi4xMjA0NywtMTBlLTcgMTEuMDgyMDksNC45NjE2MiAxMS4wODIwOSwxMS4wODIwODkgeiBNIDEwOC43NDE4MSw3Ni43MTgwMSBjIDAsNi4xMjA0NjkgLTQuOTYxNjIsMTEuMDgyMDg5IC0xMS4wODIwODksMTEuMDgyMDg5IC02LjEyMDQ2OSwwIC0xMS4wODIwODksLTQuOTYxNjIgLTExLjA4MjA4OSwtMTEuMDgyMDg5IDAsLTYuMTIwNDY5IDQuOTYxNjIsLTExLjA4MjA4OSAxMS4wODIwODksLTExLjA4MjA4OSA2LjEyMDQ2OSwwIDExLjA4MjA4OSw0Ljk2MTYyIDExLjA4MjA4OSwxMS4wODIwODkgeiBtIDAsLTMyLjY4MDYyNiBjIDAsNi4xMjA0NjkgLTQuOTYxNjIsMTEuMDgyMDg5IC0xMS4wODIwODksMTEuMDgyMDg5IC02LjEyMDQ2OSwwIC0xMS4wODIwODksLTQuOTYxNjIgLTExLjA4MjA4OSwtMTEuMDgyMDg5IDAsLTYuMTIwNDY5IDQuOTYxNjIsLTExLjA4MjA4OSAxMS4wODIwODksLTExLjA4MjA4OSA2LjEyMDQ2OSwwIDExLjA4MjA4OSw0Ljk2MTYyIDExLjA4MjA4OSwxMS4wODIwODkgeiBtIDAsLTMyLjY3ODI0MyBjIDAsNi4xMjA0NjkgLTQuOTYxNjIsMTEuMDgyMDkgLTExLjA4MjA4OSwxMS4wODIwOSAtNi4xMjA0NjksMCAtMTEuMDgyMDksLTQuOTYxNjIxIC0xMS4wODIwODksLTExLjA4MjA5IDAsLTYuMTIwNDY4OCA0Ljk2MTYyLC0xMS4wODIwODkwNyAxMS4wODIwODksLTExLjA4MjA4OTA3IDYuMTIwNDY5LDAgMTEuMDgyMDg5LDQuOTYxNjIwMjcgMTEuMDgyMDg5LDExLjA4MjA4OTA3IHogTSAxNDIsMzcuNzc5Mjk3IGMgLTUuNzk4OTksMCAtMTAuNSw0LjcwMTAxIC0xMC41LDEwLjUgdiAyOC45OTQxNCBjIDAsNS43OTg5OSA0LjcwMTAxLDEwLjUgMTAuNSwxMC41IDUuNzk4OTksMCAxMC41LC00LjcwMTAxIDEwLjUsLTEwLjUgdiAtMjguOTk0MTQgYyAwLC01Ljc5ODk5IC00LjcwMTAxLC0xMC41IC0xMC41LC0xMC41IHogbSAtOC45ZS00LDEwLjUwMDM3NyBWIDc3LjI3MzY5MSBNIDk3LjY2MDE1NiwtNjAuMjU5NzY2IGMgLTUuNzk4OTksMCAtMTAuNSw0LjcwMTAxIC0xMC41LDEwLjUgdiAyOC45OTQxNDEgYyAwLDUuNzk4OTkgNC43MDEwMSwxMC41IDEwLjUsMTAuNSA1Ljc5ODk5NCwyZS02IDEwLjUwMDAwNCwtNC43MDEwMDkgMTAuNTAwMDA0LC0xMC41IHYgLTI4Ljk5NDE0MSBjIDAsLTUuNzk4OTkxIC00LjcwMTAxLC0xMC41MDAwMDIgLTEwLjUwMDAwNCwtMTAuNSB6IG0gLTQuMzVlLTQsMTAuNDk5NzY1IHYgMjguOTk0MDE3IE0gNzUuNjM0NzY2LDEwMC40OTgwNSBjIC0yLjc1NDE5MSwwLjQxMTQ4IC01LjIzMjExOSwxLjkwMDIxIC02Ljg4ODY3Miw0LjEzODY3IC0zLjQ0ODg3NCw0LjY2MTU3IC0yLjQ2NjAyNCwxMS4yMzYzNSAyLjE5NTMxMiwxNC42ODU1NSBsIDk0LjIzODI4NCw2OS43NDYwOSAxMi43ODYwNCwtMTYuNjY2NTkgLTk0LjUzMjEzNiwtNjkuOTU4NDEgYyAtMi4yMzg2OTksLTEuNjU3MTYgLTUuMDQ0MTAxLC0yLjM1NjkzIC03Ljc5ODgyOCwtMS45NDUzMSB6IiBzdHlsZT0iY29sb3I6IzAwMDAwMDtvcGFjaXR5OjAuOTk7ZmlsbDojYjVjYmY5O2ZpbGwtb3BhY2l0eToxO3N0cm9rZS13aWR0aDoyMTtzdHJva2UtbGluZWNhcDpyb3VuZDtzdHJva2UtbGluZWpvaW46cm91bmQ7LWlua3NjYXBlLXN0cm9rZTpub25lIiBpZD0icGF0aDE4NDAtNSIvPiYjeGE7ICAgIDxwYXRoIGQ9Im0gMTk3LjM5Mjc2LDE0MS45NzM2NiBjIDAsNi4xMjA0NyAtNC45NjE2MiwxMS4wODIwOSAtMTEuMDgyMDksMTEuMDgyMDkgLTYuMTIwNDcsMCAtMTEuMDgyMDksLTQuOTYxNjIgLTExLjA4MjA5LC0xMS4wODIwOSAwLC02LjEyMDQ3IDQuOTYxNjIsLTExLjA4MjA5IDExLjA4MjA5LC0xMS4wODIwOSA2LjEyMDQ3LDAgMTEuMDgyMDksNC45NjE2MiAxMS4wODIwOSwxMS4wODIwOSB6IG0gMCwtOTIuNzI1NTg2IGMgMCw2LjEyMDQ2OSAtNC45NjE2MiwxMS4wODIwOSAtMTEuMDgyMDksMTEuMDgyMDg5IC02LjEyMDQ3LDFlLTYgLTExLjA4MjA5LC00Ljk2MTYyIC0xMS4wODIwOSwtMTEuMDgyMDg5IDAsLTYuMTIwNDcgNC45NjE2MiwtMTEuMDgyMDkxIDExLjA4MjA5LC0xMS4wODIwOSA2LjEyMDQ3LC0xZS02IDExLjA4MjA5LDQuOTYxNjIgMTEuMDgyMDksMTEuMDgyMDkgeiBtIDAsLTMyLjg1NDQ1OCBjIDAsNi4xMjA0NjkgLTQuOTYxNjIsMTEuMDgyMDkgLTExLjA4MjA5LDExLjA4MjA4OSAtNi4xMjA0NywxMGUtNyAtMTEuMDgyMDksLTQuOTYxNjIgLTExLjA4MjA5LC0xMS4wODIwODkgMCwtNi4xMjA0NjkgNC45NjE2MiwtMTEuMDgyMDkwMyAxMS4wODIwOSwtMTEuMDgyMDg5NyA2LjEyMDQ3LC02ZS03IDExLjA4MjA5LDQuOTYxNjIwNyAxMS4wODIwOSwxMS4wODIwODk3IHogbSAxMDAuMDI5MTEsODQuMDA2Nzc0IGMgLTIuNzU1MTcsLTAuNDA1MDA0IC01LjU1ODM4LDAuMzAxMDcgLTcuNzkyOTYsMS45NjI4OSBsIC05NC43NDYxLDcwLjQzNzUgMTIuNTI5MywxNi44NTM1MiA5NC43NDYwOSwtNzAuNDM3NSBjIDQuNjU0MTIsLTMuNDU5NzggNS42MjIxNSwtMTAuMDM3NDggMi4xNjIxMSwtMTQuNjkxNDEgLTEuNjYxMzYsLTIuMjM1NTMgLTQuMTQyODcsLTMuNzE5MzcgLTYuODk4NDQsLTQuMTI1IHogTSAxODYuMzEwNTUsNzAuODY3MTg3IGMgLTUuNzk4OTksMCAtMTAuNSw0LjcwMTAxIC0xMC41LDEwLjUgdiAyOC45OTQxNDMgYyAwLDUuNzk4OTkgNC43MDEwMSwxMC41IDEwLjUsMTAuNSA1Ljc5ODk5LDAgMTAuNSwtNC43MDEwMSAxMC41LC0xMC41IFYgODEuMzY3MTg3IGMgMCwtNS43OTg5OSAtNC43MDEwMSwtMTAuNSAtMTAuNSwtMTAuNSB6IG0gMS4yZS00LDEwLjUwMDgyNyB2IDI4Ljk5NDAxNiIgc3R5bGU9ImNvbG9yOiMwMDAwMDA7b3BhY2l0eTowLjk5O2ZpbGw6Izc2OWVmNTtmaWxsLW9wYWNpdHk6MTtzdHJva2Utd2lkdGg6MjE7c3Ryb2tlLWxpbmVjYXA6cm91bmQ7c3Ryb2tlLWxpbmVqb2luOnJvdW5kOy1pbmtzY2FwZS1zdHJva2U6bm9uZSIgaWQ9InBhdGgxODQwLTMiLz4mI3hhOyAgICA8cGF0aCBkPSJtIDE4Ni4zNDU3LDE3MC42ODE2NCBjIC0xMi4wNDU3LDAgLTIxLjk2MDkzLDkuOTE1MjQgLTIxLjk2MDkzLDIxLjk2MDk0IDAsMTIuMDQ1NyA5LjkxNTIzLDIxLjk2MDk0IDIxLjk2MDkzLDIxLjk2MDk0IDEyLjA0NTcsMCAyMS45NjA5NCwtOS45MTUyNCAyMS45NjA5NCwtMjEuOTYwOTQgMCwtMTIuMDQ1NyAtOS45MTUyNCwtMjEuOTYwOTQgLTIxLjk2MDk0LC0yMS45NjA5NCB6IG0gMCwxNCBjIDQuNDc5NTUsMCA3Ljk2MDk0LDMuNDgxMzkgNy45NjA5NCw3Ljk2MDk0IDAsNC40Nzk1NSAtMy40ODEzOSw3Ljk2MDk0IC03Ljk2MDk0LDcuOTYwOTQgLTQuNDc5NTQsMCAtNy45NjA5MywtMy40ODEzOSAtNy45NjA5MywtNy45NjA5NCAwLC00LjQ3OTU1IDMuNDgxMzksLTcuOTYwOTQgNy45NjA5MywtNy45NjA5NCB6IE0gMjg2LjE2MTM3LDc2Ljc5MTAwOCBBIDExLjA4MjA4OSwxMS4wODIwODkgMCAwIDEgMjc1LjA3OTI4LDg3Ljg3MzA5NyAxMS4wODIwODksMTEuMDgyMDg5IDAgMCAxIDI2My45OTcyLDc2Ljc5MTAwOCAxMS4wODIwODksMTEuMDgyMDg5IDAgMCAxIDI3NS4wNzkyOCw2NS43MDg5MTkgMTEuMDgyMDg5LDExLjA4MjA4OSAwIDAgMSAyODYuMTYxMzcsNzYuNzkxMDA4IFogbSAwLC0zMy4xNDU0MzUgYSAxMS4wODIwODksMTEuMDgyMDg5IDAgMCAxIC0xMS4wODIwOSwxMS4wODIwODkgMTEuMDgyMDg5LDExLjA4MjA4OSAwIDAgMSAtMTEuMDgyMDgsLTExLjA4MjA4OSAxMS4wODIwODksMTEuMDgyMDg5IDAgMCAxIDExLjA4MjA4LC0xMS4wODIwOSAxMS4wODIwODksMTEuMDgyMDg5IDAgMCAxIDExLjA4MjA5LDExLjA4MjA5IHogbSAwLC05Mi40NjgyMjQgYSAxMS4wODIwODksMTEuMDgyMDg5IDAgMCAxIC0xMS4wODIwOSwxMS4wODIwOSAxMS4wODIwODksMTEuMDgyMDg5IDAgMCAxIC0xMS4wODIwOCwtMTEuMDgyMDkgMTEuMDgyMDg5LDExLjA4MjA4OSAwIDAgMSAxMS4wODIwOCwtMTEuMDgyMDg5IDExLjA4MjA4OSwxMS4wODIwODkgMCAwIDEgMTEuMDgyMDksMTEuMDgyMDg5IHogbSAtNDQuMjEzNjIsMzIuNTU3NzE2IGEgMTEuMDgyMDg5LDExLjA4MjA4OSAwIDAgMSAtMTEuMDgyMDksMTEuMDgyMDg5OSAxMS4wODIwODksMTEuMDgyMDg5IDAgMCAxIC0xMS4wODIwOSwtMTEuMDgyMDg5OSAxMS4wODIwODksMTEuMDgyMDg5IDAgMCAxIDExLjA4MjA5LC0xMS4wODIwODkgMTEuMDgyMDg5LDExLjA4MjA4OSAwIDAgMSAxMS4wODIwOSwxMS4wODIwODkgeiBtIDAsOTIuNTM1NDQzIGEgMTEuMDgyMDg5LDExLjA4MjA4OSAwIDAgMSAtMTEuMDgyMDksMTEuMDgyMDg5IDExLjA4MjA4OSwxMS4wODIwODkgMCAwIDEgLTExLjA4MjA5LC0xMS4wODIwODkgMTEuMDgyMDg5LDExLjA4MjA4OSAwIDAgMSAxMS4wODIwOSwtMTEuMDgyMDkgMTEuMDgyMDg5LDExLjA4MjA4OSAwIDAgMSAxMS4wODIwOSwxMS4wODIwOSB6IG0gMCwzMi44ODIzMTIgYSAxMS4wODIwODksMTEuMDgyMDg5IDAgMCAxIC0xMS4wODIwOSwxMS4wODIwOSAxMS4wODIwODksMTEuMDgyMDg5IDAgMCAxIC0xMS4wODIwOSwtMTEuMDgyMDkgMTEuMDgyMDg5LDExLjA4MjA4OSAwIDAgMSAxMS4wODIwOSwtMTEuMDgyMDkzIDExLjA4MjA4OSwxMS4wODIwODkgMCAwIDEgMTEuMDgyMDksMTEuMDgyMDkzIHogbSAzMy4xMzIzMywtMTM2LjU4ODM2NyBhIDEwLjUsMTAuNSAwIDAgMCAtMTAuNSwxMC41IHYgMjguOTk0MTQxIGEgMTAuNSwxMC41IDAgMCAwIDEwLjUsMTAuNSAxMC41LDEwLjUgMCAwIDAgMTAuNSwtMTAuNSB2IC0yOC45OTQxNDEgYSAxMC41LDEwLjUgMCAwIDAgLTEwLjUsLTEwLjUgeiBtIC04ZS00LDEwLjUwMDc1OSBWIDEyLjA1OTIyOSBNIDIzMC44NjUyMyw1LjI0MDIzNDQgYSAxMC41LDEwLjUgMCAwIDAgLTEwLjUsMTAuNDk5OTk5NiB2IDI4Ljk5NDE0MSBhIDEwLjUsMTAuNSAwIDAgMCAxMC41LDEwLjUgMTAuNSwxMC41IDAgMCAwIDEwLjUsLTEwLjUgViAxNS43NDAyMzQgYSAxMC41LDEwLjUgMCAwIDAgLTEwLjUsLTEwLjQ5OTk5OTYgeiBtIDQuMmUtNCwxMC40OTk0MzA2IHYgMjguOTk0MDE3IiBzdHlsZT0iY29sb3I6IzAwMDAwMDtvcGFjaXR5OjAuOTk7ZmlsbDojNTk4NmYyO2ZpbGwtb3BhY2l0eToxO3N0cm9rZS1saW5lY2FwOnJvdW5kO3N0cm9rZS1saW5lam9pbjpyb3VuZDstaW5rc2NhcGUtc3Ryb2tlOm5vbmUiIGlkPSJwYXRoMTg0MC04Ii8+JiN4YTsgIDwvZz4mI3hhOzwvc3ZnPg==;rounded=1;shadow=1;dashed=1;labelBackgroundColor=none;labelBorderColor=none;strokeColor=default;" parent="6gJS4afnVGDZ6o405xp5-42" vertex="1">
          <mxGeometry x="574.0233004926108" y="120.69172043010755" width="26.97536945812808" height="30.620689655172413" as="geometry" />
        </mxCell>
        <mxCell id="6gJS4afnVGDZ6o405xp5-166" value="负载均衡" style="text;html=1;strokeColor=none;fillColor=none;align=center;verticalAlign=middle;whiteSpace=wrap;rounded=0;fontSize=11;fontColor=#666666;" parent="6gJS4afnVGDZ6o405xp5-42" vertex="1">
          <mxGeometry x="376.02" y="94.38" width="60" height="30" as="geometry" />
        </mxCell>
        <mxCell id="g3mcLFEqI1_pV3j1C8BT-44" value="DB-Slave" style="sketch=0;html=1;verticalAlign=top;labelPosition=center;verticalLabelPosition=bottom;align=center;spacingTop=-6;fontSize=11;fontStyle=0;fontColor=#999999;shape=image;aspect=fixed;imageAspect=0;image=data:image/svg+xml,PHN2ZyB4bWxucz0iaHR0cDovL3d3dy53My5vcmcvMjAwMC9zdmciIHhtbG5zOnY9Imh0dHBzOi8vdmVjdGEuaW8vbmFubyIgd2lkdGg9IjE0LjY1OTk5OTg0NzQxMjExIiBoZWlnaHQ9IjIwIiB2aWV3Qm94PSIwIDAgMTQuNjU5OTk5ODQ3NDEyMTEgMjAiPiYjeGE7CTxzdHlsZSB0eXBlPSJ0ZXh0L2NzcyI+JiN4YTsJLnN0MHtmaWxsOiM0Mjg1ZjQ7fSYjeGE7CS5zdDF7ZmlsbDojNjY5ZGY2O30mI3hhOwkuc3Qye2ZpbGw6I2FlY2JmYTt9JiN4YTsJPC9zdHlsZT4mI3hhOwk8c3R5bGU+JiN4YTsJCS5Ee2ZpbGwtcnVsZTpldmVub2RkfSYjeGE7CTwvc3R5bGU+JiN4YTsJPHBhdGggZD0iTTcuMzMgMTUuMzV2LTMuMDFMMCA4LjQ0djMuMDF6bTAgNC42NXYtMy4wMUwwIDEzLjA5djMuMDF6IiBjbGFzcz0ic3QyIEQiLz4mI3hhOwk8cGF0aCBkPSJNMTQuNjYgOC40NGwtNy4zMyAzLjl2My4wMWw3LjMzLTMuOXptMCA0LjY1bC03LjMzIDMuOVYyMGw3LjMzLTMuOXoiIGNsYXNzPSJzdDEgRCIvPiYjeGE7CTxwYXRoIGQ9Ik03LjMzIDB2My4wMWw3LjMzIDMuOVYzLjl6IiBjbGFzcz0ic3QwIEQiLz4mI3hhOwk8cGF0aCBkPSJNMCA2LjkxbDcuMzMtMy45VjBMMCAzLjl6IiBjbGFzcz0iRCBzdDEiLz4mI3hhOwk8cGF0aCBkPSJNNy4zMyAxMC43OVY3Ljc3TDAgMy44N3YzLjAyeiIgY2xhc3M9IkQgc3QyIi8+JiN4YTsJPHBhdGggZD0iTTE0LjY2IDMuODdsLTcuMzMgMy45djMuMDJsNy4zMy0zLjl6IiBjbGFzcz0iRCBzdDEiLz4mI3hhOzwvc3ZnPg==;rounded=0;shadow=0;glass=0;labelBackgroundColor=none;labelBorderColor=none;strokeColor=#D5E8D4;fillColor=#66B2FF;gradientColor=none;" parent="6gJS4afnVGDZ6o405xp5-42" vertex="1">
          <mxGeometry x="820" y="245" width="32" height="42" as="geometry" />
        </mxCell>
        <mxCell id="g3mcLFEqI1_pV3j1C8BT-45" value="Redis-Slave" style="sketch=0;html=1;verticalAlign=top;labelPosition=center;verticalLabelPosition=bottom;align=center;spacingTop=-6;fontSize=11;fontStyle=0;fontColor=#999999;shape=image;aspect=fixed;imageAspect=0;image=data:image/svg+xml,PHN2ZyB4bWxucz0iaHR0cDovL3d3dy53My5vcmcvMjAwMC9zdmciIHhtbG5zOnY9Imh0dHBzOi8vdmVjdGEuaW8vbmFubyIgd2lkdGg9IjIwIiBoZWlnaHQ9IjIwIiB2aWV3Qm94PSIwIDAgMjAgMjAiPiYjeGE7CTxzdHlsZSB0eXBlPSJ0ZXh0L2NzcyI+JiN4YTsJLnN0MHtmaWxsOiM0Mjg1ZjQ7fSYjeGE7CS5zdDF7ZmlsbDojNjY5ZGY2O30mI3hhOwkuc3Qye2ZpbGw6I2FlY2JmYTt9JiN4YTsJPC9zdHlsZT4mI3hhOwk8cGF0aCBjbGFzcz0ic3QxIiBkPSJNMCAxLjk0aDMuMzN2Mi41OEgwem0wIDQuNTFoMy4zM3YyLjU4SDB6bTAgNC41MmgzLjMzdjIuNThIMHptMCA0LjUxaDMuMzN2Mi41OEgwek0xNi42NyAxLjk0SDIwdjIuNThoLTMuMzN6bTAgNC41MUgyMHYyLjU4aC0zLjMzem0wIDQuNTJIMjB2Mi41OGgtMy4zM3ptMCA0LjUxSDIwdjIuNThoLTMuMzN6Ii8+JiN4YTsJPHBhdGggY2xhc3M9InN0MCIgZD0iTTE2LjY3IDEuOTRsMi42NiAyLjU4aC0yLjY2em0wIDQuNTFsMi42NiAyLjU4aC0yLjY2em0wIDQuNTJsMi42NiAyLjU4aC0yLjY2em0wIDQuNTFsMi42NiAyLjU5aC0yLjY2eiIgZmlsbC1ydWxlPSJldmVub2RkIi8+JiN4YTsJPHBhdGggY2xhc3M9InN0MiIgZD0iTTMuMzMgMjBoMTMuMzRWMEgzLjMzem02LTlINmw0LjY3LTcuNzRWOUgxNGwtNC42NyA3Ljc0eiIgZmlsbC1ydWxlPSJldmVub2RkIi8+JiN4YTsJPHBhdGggY2xhc3M9InN0MSIgZD0iTTE0IDkuMDNoLTMuMzNWMGg2djIwSDkuMzN2LTMuMjN6IiBmaWxsLXJ1bGU9ImV2ZW5vZGQiLz4mI3hhOzwvc3ZnPg==;rounded=0;shadow=0;glass=0;labelBackgroundColor=none;labelBorderColor=none;strokeColor=#D5E8D4;fillColor=#66B2FF;gradientColor=none;" parent="6gJS4afnVGDZ6o405xp5-42" vertex="1">
          <mxGeometry x="818.5" y="316" width="35" height="35" as="geometry" />
        </mxCell>
        <mxCell id="g3mcLFEqI1_pV3j1C8BT-48" value="Aliyun OSS" style="sketch=0;html=1;verticalAlign=top;labelPosition=center;verticalLabelPosition=bottom;align=center;spacingTop=-6;fontSize=11;fontStyle=0;fontColor=#999999;shape=image;aspect=fixed;imageAspect=0;image=data:image/svg+xml,PHN2ZyB4bWxucz0iaHR0cDovL3d3dy53My5vcmcvMjAwMC9zdmciIHhtbG5zOnY9Imh0dHBzOi8vdmVjdGEuaW8vbmFubyIgd2lkdGg9IjQyNCIgaGVpZ2h0PSI0MjQiIHZpZXdCb3g9IjAgMCA0MjQgNDI0Ij4mI3hhOwk8c3R5bGUgdHlwZT0idGV4dC9jc3MiPiYjeGE7CS5zdDB7ZmlsbDojNDI4NWY0O30mI3hhOwk8L3N0eWxlPiYjeGE7CTxwYXRoIGNsYXNzPSJzdDAiIGQ9Ik00MjQgMHY0MjRIMFYwek0yMTIgOTcuODQ2Yy0zNy44ODQgMC03MC4xNjQgMjMuOTktODIuNDc4IDU3LjYwOGgwbC0zLjQwMy4wMDFjLTQyLjYzNCAwLTc3LjE5NiAzNC41NjItNzcuMTk2IDc3LjE5NnMzNC41NjIgNzcuMTk2IDc3LjE5NiA3Ny4xOTZoMCAxNzEuNzYzYzQyLjYzNCAwIDc3LjE5Ni0zNC41NjIgNzcuMTk2LTc3LjE5NnMtMzQuNTYyLTc3LjE5Ni03Ny4xOTYtNzcuMTk2aDBsLTMuNDAzLS4wMDFDMjgyLjE2NCAxMjEuODM3IDI0OS44ODQgOTcuODQ2IDIxMiA5Ny44NDZ6IiBmaWxsLXJ1bGU9ImV2ZW5vZGQiLz4mI3hhOzwvc3ZnPg==;dashed=1;strokeColor=#C3ABD0;fillColor=none;" parent="6gJS4afnVGDZ6o405xp5-42" vertex="1">
          <mxGeometry x="739" y="383" width="36" height="36" as="geometry" />
        </mxCell>
        <mxCell id="g3mcLFEqI1_pV3j1C8BT-49" value="Azure OSS" style="sketch=0;html=1;verticalAlign=top;labelPosition=center;verticalLabelPosition=bottom;align=center;spacingTop=-6;fontSize=11;fontStyle=0;fontColor=#999999;shape=image;aspect=fixed;imageAspect=0;image=data:image/svg+xml,PHN2ZyB4bWxucz0iaHR0cDovL3d3dy53My5vcmcvMjAwMC9zdmciIHhtbG5zOnY9Imh0dHBzOi8vdmVjdGEuaW8vbmFubyIgd2lkdGg9IjQyNCIgaGVpZ2h0PSI0MjQiIHZpZXdCb3g9IjAgMCA0MjQgNDI0Ij4mI3hhOwk8c3R5bGUgdHlwZT0idGV4dC9jc3MiPiYjeGE7CS5zdDB7ZmlsbDojNDI4NWY0O30mI3hhOwk8L3N0eWxlPiYjeGE7CTxwYXRoIGNsYXNzPSJzdDAiIGQ9Ik00MjQgMHY0MjRIMFYwek0yMTIgOTcuODQ2Yy0zNy44ODQgMC03MC4xNjQgMjMuOTktODIuNDc4IDU3LjYwOGgwbC0zLjQwMy4wMDFjLTQyLjYzNCAwLTc3LjE5NiAzNC41NjItNzcuMTk2IDc3LjE5NnMzNC41NjIgNzcuMTk2IDc3LjE5NiA3Ny4xOTZoMCAxNzEuNzYzYzQyLjYzNCAwIDc3LjE5Ni0zNC41NjIgNzcuMTk2LTc3LjE5NnMtMzQuNTYyLTc3LjE5Ni03Ny4xOTYtNzcuMTk2aDBsLTMuNDAzLS4wMDFDMjgyLjE2NCAxMjEuODM3IDI0OS44ODQgOTcuODQ2IDIxMiA5Ny44NDZ6IiBmaWxsLXJ1bGU9ImV2ZW5vZGQiLz4mI3hhOzwvc3ZnPg==;dashed=1;strokeColor=#C3ABD0;fillColor=none;" parent="6gJS4afnVGDZ6o405xp5-42" vertex="1">
          <mxGeometry x="815.5" y="383" width="36" height="36" as="geometry" />
        </mxCell>
        <mxCell id="g3mcLFEqI1_pV3j1C8BT-50" value="Loki" style="sketch=0;html=1;verticalAlign=top;labelPosition=center;verticalLabelPosition=bottom;align=center;spacingTop=-6;fontSize=11;fontStyle=0;fontColor=#999999;shape=image;aspect=fixed;imageAspect=0;image=data:image/svg+xml,PHN2ZyB4bWxucz0iaHR0cDovL3d3dy53My5vcmcvMjAwMC9zdmciIHhtbG5zOnY9Imh0dHBzOi8vdmVjdGEuaW8vbmFubyIgd2lkdGg9IjM3Ni4yNzQ4ODc3NTcyNjMyIiBoZWlnaHQ9IjMzOS42NzM1NDQyMTc3NjM4MyIgdmlld0JveD0iMC4xMTQwMDAwMDAwNTk2MDQ2NCAtMC4wOTAwMDAwMDM1NzYyNzg2OSA5OS41NTU5OTk3NTU4NTkzOCA4OS44NzE5OTQwMTg1NTQ2OSI+JiN4YTs8c3R5bGUgdHlwZT0idGV4dC9jc3MiPiYjeGE7CS5zdDB7ZmlsbDojNDI4NWY0O30mI3hhOwkuc3Qxe2ZpbGw6I2FlY2JmYTt9JiN4YTs8L3N0eWxlPiYjeGE7CTxwYXRoIGNsYXNzPSJzdDAiIGQ9Ik03Ny41MjMgNDMuMzk3bDEyLjg0NCA3LjU3MnYxNC43NjdsLTEyLjg0NCA2LjY4ek01MC4zMTItLjA5bDEyLjg0NCA3LjU3MnYxNC43NjdsLTEyLjg0NCA2LjY4ek0yMy4xIDQzLjM5N2wxMi44NDQgNy41NzJ2MTQuNzY3TDIzLjEgNzIuNDE3em02OS40Ny0uNTExbDcuMS0xMS4xNjktMTIuNjY2LTIxLjU5NEg3MC42NDR2OS41aDEwLjkxOWw2Ljk3NyAxMS44OTUtNC4yNTYgNi42OTR6bS03Ni45NzktNC42TDExLjMgMzEuNDg1bDcuMjY0LTExLjg2MWg5Ljk3OWwuMDk5LTkuNUgxMy4yNDFMLjExNCAzMS41NjFsMS41NzYgMi40OTggNS41MTUgOC43Mzl6bTEzLjY2MiAzOS40NDlsNy42MDMgMTIuMDQ3aDI1LjkwMmw3LjczMy0xMi4xNjQtOC4xNDMtNC44OTktNC44MDggNy41NjRINDIuMDk1bC00Ljc0LTcuNTExeiIvPiYjeGE7CTxwYXRoIGNsYXNzPSJzdDEiIGQ9Ik03Ny41MjMgNDMuMzk3bC0xMi44NDQgNy41NzJ2MTQuNzY3bDEyLjg0NCA2LjY4ek01MC4zMTItLjA5TDM3LjQ2OCA3LjQ4MnYxNC43NjdsMTIuODQ0IDYuNjh6TTIzLjEgNDMuMzk3bC0xMi44NDQgNy41NzJ2MTQuNzY3bDEyLjg0NCA2LjY4eiIvPiYjeGE7PC9zdmc+;dashed=1;strokeColor=#C3ABD0;fillColor=none;" parent="6gJS4afnVGDZ6o405xp5-42" vertex="1">
          <mxGeometry x="738.5" y="450" width="42" height="42" as="geometry" />
        </mxCell>
        <mxCell id="QQVwfaRXn0pB_fzaaOhz-1" value="GPS" style="html=1;shadow=0;dashed=0;shape=mxgraph.bootstrap.rrect;rSize=5;strokeColor=none;strokeWidth=1;fillColor=#4285F4;fontColor=#FFFFFF;whiteSpace=wrap;align=center;verticalAlign=middle;spacingLeft=0;fontStyle=0;fontSize=16;spacing=5;rounded=0;glass=0;labelBackgroundColor=none;labelBorderColor=none;" parent="6gJS4afnVGDZ6o405xp5-42" vertex="1">
          <mxGeometry x="49.64" y="675" width="50" height="40" as="geometry" />
        </mxCell>
        <mxCell id="QQVwfaRXn0pB_fzaaOhz-2" value="GMS" style="html=1;shadow=0;dashed=0;shape=mxgraph.bootstrap.rrect;rSize=5;strokeColor=none;strokeWidth=1;fillColor=#4285F4;fontColor=#FFFFFF;whiteSpace=wrap;align=center;verticalAlign=middle;spacingLeft=0;fontStyle=0;fontSize=16;spacing=5;rounded=0;glass=0;labelBackgroundColor=none;labelBorderColor=none;" parent="6gJS4afnVGDZ6o405xp5-42" vertex="1">
          <mxGeometry x="114.64" y="675" width="50" height="40" as="geometry" />
        </mxCell>
        <mxCell id="QQVwfaRXn0pB_fzaaOhz-3" value="RMS" style="html=1;shadow=0;dashed=0;shape=mxgraph.bootstrap.rrect;rSize=5;strokeColor=none;strokeWidth=1;fillColor=#4285F4;fontColor=#FFFFFF;whiteSpace=wrap;align=center;verticalAlign=middle;spacingLeft=0;fontStyle=0;fontSize=16;spacing=5;rounded=0;glass=0;labelBackgroundColor=none;labelBorderColor=none;" parent="6gJS4afnVGDZ6o405xp5-42" vertex="1">
          <mxGeometry x="178.14000000000004" y="675" width="50" height="40" as="geometry" />
        </mxCell>
        <mxCell id="QQVwfaRXn0pB_fzaaOhz-8" value="Promtail" style="sketch=0;html=1;verticalAlign=top;labelPosition=center;verticalLabelPosition=bottom;align=center;spacingTop=-6;fontSize=11;fontStyle=0;fontColor=#999999;shape=image;aspect=fixed;imageAspect=0;image=data:image/svg+xml,PHN2ZyB4bWxucz0iaHR0cDovL3d3dy53My5vcmcvMjAwMC9zdmciIHhtbG5zOnY9Imh0dHBzOi8vdmVjdGEuaW8vbmFubyIgd2lkdGg9IjIwLjAwMTA0NTIyNzA1MDc4IiBoZWlnaHQ9IjIwLjAwMTA0NTIyNzA1MDc4IiBmaWxsLXJ1bGU9ImV2ZW5vZGQiIHZpZXdCb3g9IjAgMCAyMC4wMDEwNDUyMjcwNTA3OCAyMC4wMDEwNDUyMjcwNTA3OCI+JiN4YTsJPHN0eWxlIHR5cGU9InRleHQvY3NzIj4mI3hhOwkuc3Qwe2ZpbGw6I2FlY2JmYTt9JiN4YTsJLnN0MXtmaWxsOiM2NjlkZjY7fSYjeGE7CS5zdDJ7ZmlsbDojNDI4NWY0O30mI3hhOwk8L3N0eWxlPiYjeGE7CTxwYXRoIGNsYXNzPSJzdDAiIGQ9Ik00LjczIDguODN2Mi42M2E0LjkxIDQuOTEgMCAwIDAgMS43MSAxLjc0VjguODN6Ii8+JiN4YTsJPHBhdGggY2xhc3M9InN0MSIgZD0iTTcuODkgNi40MXY3LjUzQTcuNjIgNy42MiAwIDAgMCA5IDE0YTggOCAwIDAgMCAxIDBWNi40MXoiLz4mI3hhOwk8cGF0aCBjbGFzcz0ic3QwIiBkPSJNMTEuNjQgOS44NnYzLjI5YTUgNSAwIDAgMCAxLjctMS44MlY5Ljg2eiIvPiYjeGE7CTxwYXRoIGNsYXNzPSJzdDIiIGQ9Ik0xNS43NCAxNC4zMmwtMS40MiAxLjQyYS40Mi40MiAwIDAgMCAwIC42bDMuNTQgMy41NGEuNDIuNDIgMCAwIDAgLjU5IDBsMS40My0xLjQzYS40Mi40MiAwIDAgMCAwLS41OWwtMy41NC0zLjU0YS40Mi40MiAwIDAgMC0uNiAwIi8+JiN4YTsJPHBhdGggY2xhc3M9InN0MSIgZD0iTTkgMGE5IDkgMCAxIDAgMCAxOEE5IDkgMCAxIDAgOSAwbTAgMTUuNjlhNi42OCA2LjY4IDAgMCAxIC4wMDctMTMuMzYgNi42OCA2LjY4IDAgMCAxIDQuNzI3IDExLjQwM0E2LjY4IDYuNjggMCAwIDEgOSAxNS42OSIvPiYjeGE7PC9zdmc+;" parent="6gJS4afnVGDZ6o405xp5-42" vertex="1">
          <mxGeometry x="812" y="450" width="42" height="42" as="geometry" />
        </mxCell>
        <mxCell id="QQVwfaRXn0pB_fzaaOhz-9" value="Grafana" style="sketch=0;html=1;verticalAlign=top;labelPosition=center;verticalLabelPosition=bottom;align=center;spacingTop=-6;fontSize=11;fontStyle=0;fontColor=#999999;shape=image;aspect=fixed;imageAspect=0;image=data:image/svg+xml,PHN2ZyB4bWxucz0iaHR0cDovL3d3dy53My5vcmcvMjAwMC9zdmciIGlkPSJzdmcxMTkyNDEiIHZlcnNpb249IjEuMSIgdmlld0JveD0iMCAwIDI2NS4yMzA0NyAyODcuNzcxNDgiIGhlaWdodD0iMjg3Ljc3MTQ4bW0iIHdpZHRoPSIyNjUuMjMwNDdtbSI+JiN4YTsgICYjeGE7ICA8ZGVmcyBpZD0iZGVmczExOTIzOCIvPiYjeGE7ICA8ZyB0cmFuc2Zvcm09InRyYW5zbGF0ZSgyNS41NDQ5MjIsLTUuNzEyODkwNikiIGlkPSJsYXllcjEiPiYjeGE7ICAgIDxwYXRoIGQ9Im0gMjExLjAwMzkxLDE4OS44NzMwNSBjIC0xNS43NDAzMSwwIC0yOC42ODM2LDEyLjk0MzI5IC0yOC42ODM2LDI4LjY4MzU5IDAsMTUuNzQwMzEgMTIuOTQzMjksMjguNjgxNjQgMjguNjgzNiwyOC42ODE2NCAxNS43NDAzLDAgMjguNjgxNjQsLTEyLjk0MTMzIDI4LjY4MTY0LC0yOC42ODE2NCAwLC0xNS43NDAzIC0xMi45NDEzNCwtMjguNjgzNTkgLTI4LjY4MTY0LC0yOC42ODM1OSB6IE0gMy4wMzMyMDMxLDUxLjQ0OTIxOSBjIC0xNS42ODMyMDUxLDAgLTI4LjU3ODEyNTEsMTIuODk0OTIgLTI4LjU3ODEyNTEsMjguNTc4MTI1IDRlLTYsMTUuNjgzMjAyIDEyLjg5NDkyMywyOC41ODAwNzYgMjguNTc4MTI1MSwyOC41ODAwNzYgMTUuNjgzMjAxOSwwIDI4LjU4MDA3MzksLTEyLjg5Njg3NCAyOC41ODAwNzc5LC0yOC41ODAwNzYgMCwtMTUuNjgzMjA1IC0xMi44OTY4NzMsLTI4LjU3ODEyNSAtMjguNTgwMDc3OSwtMjguNTc4MTI1IHogTSAxMDcuNzcxNDgsNS43MTI4OTA2IDQ1LjU4Mzk4NCw0Mi4zODY3MTkgNTcuMjY3NTc4LDYyLjE5OTIxOSA5Ni40NDMzNTksMzkuMDk1NzAzIFYgMTI4LjI1MzkxIEwgMjQuOTE5OTIyLDgwLjAyNzM0NCAxMi4wNjA1NDcsOTkuMDk3NjU2IDg2LjY3NTc4MSwxNDkuNDA4MiAxMy45OTQxNDEsMTk4LjIwMTE3IFYgMTMyLjU5NTcgSCAtOS4wMDU4NTk0IHYgOTAuOTUzMTMgbCAxMTcuMTA1NDY5NCw2OS45MzU1NCA1OS42Nzc3MywtMzUuOTc0NiAtMTEuODc1LC0xOS42OTcyNyAtMzYuNDU4OTgsMjEuOTc2NTYgdiAtODguMjg3MTEgbCA3MC4wMDk3Niw0Ny4yMDUwOCAxMi44NTc0MywtMTkuMDcwMzEgLTc0LjQzMTY0LC01MC4xODc1IDczLjkxMDE1LC00OS42MTcxODkgdiA2Ni41ODAwNzkgaCAyMyBWIDc0LjkxNDA2MiBaIG0gMTEuNjcxODgsMzMuNjIzMDQ2NCA2OS43NSw0MS4yNDgwNDcgLTY5Ljc1LDQ2LjgyNjE3NiB6IE0gOTYuNDQzMzU5LDE3MC41NTQ2OSB2IDg5LjE3OTY4IEwgMjYuMTQyNTc4LDIxNy43NSBaIiBzdHlsZT0iY29sb3I6IzAwMDAwMDtvcGFjaXR5OjE7ZmlsbDojNTk4NmYyO2ZpbGwtb3BhY2l0eToxO3N0cm9rZS1saW5lam9pbjpyb3VuZDstaW5rc2NhcGUtc3Ryb2tlOm5vbmUiIGlkPSJwYXRoMTE5NDA3LTQiLz4mI3hhOyAgICA8cGF0aCBkPSJtIDMuMDMzMTk3Niw2OC40NDkyMTkgYyA2LjQ5NTczNjcsMCAxMS41ODAwODM0LDUuMDgyMzkzIDExLjU4MDA4MzQsMTEuNTc4MTI1IDAsNi40OTU3MzEgLTUuMDg0MzQ2NywxMS41ODAwNzggLTExLjU4MDA4MzQsMTEuNTgwMDc4IC02LjQ5NTcyNjcsMCAtMTEuNTc4MTIzNCwtNS4wODQzNDcgLTExLjU3ODEyMzQsLTExLjU4MDA3OCAwLC02LjQ5NTczMiA1LjA4MjM5NjcsLTExLjU3ODEyNSAxMS41NzgxMjM0LC0xMS41NzgxMjUgeiBNIDIxMS4wMDM5MSwyMDYuODczMDUgYyA2LjU1MjgzLDAgMTEuNjgxNjQsNS4xMzA3NiAxMS42ODE2NCwxMS42ODM1OSAwLDYuNTUyODMgLTUuMTI4ODEsMTEuNjgxNjQgLTExLjY4MTY0LDExLjY4MTY0IC02LjU1Mjg0LDAgLTExLjY4MzYsLTUuMTI4ODEgLTExLjY4MzYsLTExLjY4MTY0IDAsLTYuNTUyODMgNS4xMzA3NiwtMTEuNjgzNTkgMTEuNjgzNiwtMTEuNjgzNTkgeiBNIDEwNy43NjM2Nyw5OC41NTQ2ODcgYyAtMjcuNzcyNTc4LDNlLTYgLTUwLjUyMzQzMywyMi43NTA4NjMgLTUwLjUyMzQzMyw1MC41MjM0MzMgMCwyNy43NzI1OCAyMi43NTA4NTUsNTAuNTIxNDkgNTAuNTIzNDMzLDUwLjUyMTQ5IDI3Ljc3MjU4LDAgNTAuNTIzNDQsLTIyLjc0ODkxIDUwLjUyMzQ0LC01MC41MjE0OSAwLC0yNy43NzI1NyAtMjIuNzUwODYsLTUwLjUyMzQzNyAtNTAuNTIzNDQsLTUwLjUyMzQzMyB6IiBzdHlsZT0iY29sb3I6IzAwMDAwMDtvcGFjaXR5OjE7ZmlsbDojZmZmZmZmO2ZpbGwtb3BhY2l0eToxO3N0cm9rZS1saW5lam9pbjpyb3VuZDstaW5rc2NhcGUtc3Ryb2tlOm5vbmUiIGlkPSJwYXRoMTM3Mjg5Ii8+JiN4YTsgICAgPHBhdGggaWQ9InBhdGgxMjAyMDMiIGQ9Im0gMTA3Ljc2MzY3LDEyMC41NTQ2OSBjIDE1Ljg4MjkxLC0xMGUtNiAyOC41MjM0NCwxMi42NDA1MyAyOC41MjM0NCwyOC41MjM0MyAwLDE1Ljg4MjkxIC0xMi42NDA1MywyOC41MjE0OSAtMjguNTIzNDQsMjguNTIxNDkgLTE1Ljg4MjkwNCwwIC0yOC41MjM0MzgsLTEyLjYzODU4IC0yOC41MjM0MzgsLTI4LjUyMTQ5IDAsLTE1Ljg4MjkgMTIuNjQwNTM0LC0yOC41MjM0MyAyOC41MjM0MzgsLTI4LjUyMzQzIHoiIHN0eWxlPSJjb2xvcjojMDAwMDAwO29wYWNpdHk6MTtmaWxsOiM1OTg2ZjI7ZmlsbC1vcGFjaXR5OjE7c3Ryb2tlLWxpbmVqb2luOnJvdW5kOy1pbmtzY2FwZS1zdHJva2U6bm9uZSIvPiYjeGE7ICA8L2c+JiN4YTs8L3N2Zz4=;" parent="6gJS4afnVGDZ6o405xp5-42" vertex="1">
          <mxGeometry x="741" y="522" width="39" height="42" as="geometry" />
        </mxCell>
        <mxCell id="QQVwfaRXn0pB_fzaaOhz-14" value="仿真方案实例" style="text;html=1;strokeColor=none;fillColor=none;align=center;verticalAlign=middle;whiteSpace=wrap;rounded=0;fontSize=11;fontColor=#666666;" parent="6gJS4afnVGDZ6o405xp5-42" vertex="1">
          <mxGeometry x="636.01" y="637" width="83.99" height="30" as="geometry" />
        </mxCell>
        <mxCell id="QQVwfaRXn0pB_fzaaOhz-16" value="" style="sketch=0;html=1;verticalAlign=top;labelPosition=center;verticalLabelPosition=bottom;align=center;spacingTop=-6;fontSize=11;fontStyle=1;fontColor=#999999;shape=image;aspect=fixed;imageAspect=0;image=data:image/svg+xml,PHN2ZyB4bWxucz0iaHR0cDovL3d3dy53My5vcmcvMjAwMC9zdmciIHhtbG5zOnY9Imh0dHBzOi8vdmVjdGEuaW8vbmFubyIgd2lkdGg9IjQxNiIgaGVpZ2h0PSIzNjIuMjAwMDEyMjA3MDMxMjUiIHZpZXdCb3g9IjAgMCA0MTYgMzYyLjIwMDAxMjIwNzAzMTI1Ij4mI3hhOwk8c3R5bGUgdHlwZT0idGV4dC9jc3MiPiYjeGE7CS5zdDB7ZmlsbDojNDI4NWY0O30mI3hhOwkuc3Qxe2ZpbGw6IzY2OWRmNjt9JiN4YTsJLnN0MntmaWxsOiNhZWNiZmE7fSYjeGE7CTwvc3R5bGU+JiN4YTsJPHBhdGggY2xhc3M9InN0MiIgZD0iTTk2LjAzIDBMMCAxNjcuMTdoMTkwLjY3TDI4Ny45NCAweiIvPiYjeGE7CTxwYXRoIGNsYXNzPSJzdDAiIGQ9Ik0yODcuNTkgMzYyLjJsLTk1LjY4LTE2Ny4xN0gwTDk1LjY4IDM2Mi4yeiIvPiYjeGE7CTxwYXRoIGNsYXNzPSJzdDEiIGQ9Ik00MTYgMTgxLjFMMzIwIDEzLjMxIDIyMy44OCAxODEuMSAzMjAgMzQ4Ljl6Ii8+JiN4YTs8L3N2Zz4=;" parent="6gJS4afnVGDZ6o405xp5-42" vertex="1">
          <mxGeometry x="585.5" y="675" width="42" height="36" as="geometry" />
        </mxCell>
        <mxCell id="QQVwfaRXn0pB_fzaaOhz-17" value="" style="sketch=0;html=1;verticalAlign=top;labelPosition=center;verticalLabelPosition=bottom;align=center;spacingTop=-6;fontSize=11;fontStyle=1;fontColor=#999999;shape=image;aspect=fixed;imageAspect=0;image=data:image/svg+xml,PHN2ZyB4bWxucz0iaHR0cDovL3d3dy53My5vcmcvMjAwMC9zdmciIHhtbG5zOnY9Imh0dHBzOi8vdmVjdGEuaW8vbmFubyIgd2lkdGg9IjQxNiIgaGVpZ2h0PSIzNjIuMjAwMDEyMjA3MDMxMjUiIHZpZXdCb3g9IjAgMCA0MTYgMzYyLjIwMDAxMjIwNzAzMTI1Ij4mI3hhOwk8c3R5bGUgdHlwZT0idGV4dC9jc3MiPiYjeGE7CS5zdDB7ZmlsbDojNDI4NWY0O30mI3hhOwkuc3Qxe2ZpbGw6IzY2OWRmNjt9JiN4YTsJLnN0MntmaWxsOiNhZWNiZmE7fSYjeGE7CTwvc3R5bGU+JiN4YTsJPHBhdGggY2xhc3M9InN0MiIgZD0iTTk2LjAzIDBMMCAxNjcuMTdoMTkwLjY3TDI4Ny45NCAweiIvPiYjeGE7CTxwYXRoIGNsYXNzPSJzdDAiIGQ9Ik0yODcuNTkgMzYyLjJsLTk1LjY4LTE2Ny4xN0gwTDk1LjY4IDM2Mi4yeiIvPiYjeGE7CTxwYXRoIGNsYXNzPSJzdDEiIGQ9Ik00MTYgMTgxLjFMMzIwIDEzLjMxIDIyMy44OCAxODEuMSAzMjAgMzQ4Ljl6Ii8+JiN4YTs8L3N2Zz4=;" parent="6gJS4afnVGDZ6o405xp5-42" vertex="1">
          <mxGeometry x="679.5" y="675" width="42" height="36" as="geometry" />
        </mxCell>
        <mxCell id="QQVwfaRXn0pB_fzaaOhz-18" value="" style="sketch=0;html=1;verticalAlign=top;labelPosition=center;verticalLabelPosition=bottom;align=center;spacingTop=-6;fontSize=11;fontStyle=1;fontColor=#999999;shape=image;aspect=fixed;imageAspect=0;image=data:image/svg+xml,PHN2ZyB4bWxucz0iaHR0cDovL3d3dy53My5vcmcvMjAwMC9zdmciIHhtbG5zOnY9Imh0dHBzOi8vdmVjdGEuaW8vbmFubyIgd2lkdGg9IjQxNiIgaGVpZ2h0PSIzNjIuMjAwMDEyMjA3MDMxMjUiIHZpZXdCb3g9IjAgMCA0MTYgMzYyLjIwMDAxMjIwNzAzMTI1Ij4mI3hhOwk8c3R5bGUgdHlwZT0idGV4dC9jc3MiPiYjeGE7CS5zdDB7ZmlsbDojNDI4NWY0O30mI3hhOwkuc3Qxe2ZpbGw6IzY2OWRmNjt9JiN4YTsJLnN0MntmaWxsOiNhZWNiZmE7fSYjeGE7CTwvc3R5bGU+JiN4YTsJPHBhdGggY2xhc3M9InN0MiIgZD0iTTk2LjAzIDBMMCAxNjcuMTdoMTkwLjY3TDI4Ny45NCAweiIvPiYjeGE7CTxwYXRoIGNsYXNzPSJzdDAiIGQ9Ik0yODcuNTkgMzYyLjJsLTk1LjY4LTE2Ny4xN0gwTDk1LjY4IDM2Mi4yeiIvPiYjeGE7CTxwYXRoIGNsYXNzPSJzdDEiIGQ9Ik00MTYgMTgxLjFMMzIwIDEzLjMxIDIyMy44OCAxODEuMSAzMjAgMzQ4Ljl6Ii8+JiN4YTs8L3N2Zz4=;" parent="6gJS4afnVGDZ6o405xp5-42" vertex="1">
          <mxGeometry x="776.5" y="675" width="42" height="36" as="geometry" />
        </mxCell>
        <mxCell id="g3mcLFEqI1_pV3j1C8BT-5" value="SIMULATION" style="html=1;shadow=0;dashed=0;shape=mxgraph.bootstrap.rrect;rSize=5;strokeColor=none;strokeWidth=1;fillColor=#4285F4;fontColor=#FFFFFF;whiteSpace=wrap;align=center;verticalAlign=middle;spacingLeft=0;fontStyle=0;fontSize=16;spacing=5;rounded=0;glass=0;labelBackgroundColor=none;labelBorderColor=none;" parent="6gJS4afnVGDZ6o405xp5-42" vertex="1">
          <mxGeometry x="310" y="675" width="107" height="40" as="geometry" />
        </mxCell>
      </root>
    </mxGraphModel>
  </diagram>
  <diagram id="YiX6lX5UfoTlCCTFrMaL" name="第 2 页">
    <mxGraphModel dx="780" dy="504" grid="1" gridSize="10" guides="1" tooltips="1" connect="1" arrows="1" fold="1" page="1" pageScale="1" pageWidth="827" pageHeight="1169" math="0" shadow="0">
      <root>
        <mxCell id="0" />
        <mxCell id="1" parent="0" />
        <mxCell id="k30-tFSf-Rlm_qtYloIc-2" value="阿里云北京区域" style="points=[[0,0],[0.25,0],[0.5,0],[0.75,0],[1,0],[1,0.25],[1,0.5],[1,0.75],[1,1],[0.75,1],[0.5,1],[0.25,1],[0,1],[0,0.75],[0,0.5],[0,0.25]];outlineConnect=0;gradientColor=none;html=1;whiteSpace=wrap;fontSize=12;fontStyle=0;container=1;pointerEvents=0;collapsible=0;recursiveResize=0;shape=mxgraph.aws4.group;grIcon=mxgraph.aws4.group_region;strokeColor=#147EBA;fillColor=none;verticalAlign=top;align=left;spacingLeft=30;fontColor=#147EBA;dashed=1;" parent="1" vertex="1">
          <mxGeometry x="200" y="80" width="610" height="540" as="geometry" />
        </mxCell>
        <mxCell id="k30-tFSf-Rlm_qtYloIc-1" value="VPC" style="points=[[0,0],[0.25,0],[0.5,0],[0.75,0],[1,0],[1,0.25],[1,0.5],[1,0.75],[1,1],[0.75,1],[0.5,1],[0.25,1],[0,1],[0,0.75],[0,0.5],[0,0.25]];outlineConnect=0;gradientColor=none;html=1;whiteSpace=wrap;fontSize=12;fontStyle=0;container=1;pointerEvents=0;collapsible=0;recursiveResize=0;shape=mxgraph.aws4.group;grIcon=mxgraph.aws4.group_vpc;strokeColor=#248814;fillColor=none;verticalAlign=top;align=left;spacingLeft=30;fontColor=#AAB7B8;dashed=0;" parent="k30-tFSf-Rlm_qtYloIc-2" vertex="1">
          <mxGeometry x="10" y="40" width="590" height="490" as="geometry" />
        </mxCell>
        <mxCell id="k30-tFSf-Rlm_qtYloIc-3" value="ECS应用服务集群" style="points=[[0,0],[0.25,0],[0.5,0],[0.75,0],[1,0],[1,0.25],[1,0.5],[1,0.75],[1,1],[0.75,1],[0.5,1],[0.25,1],[0,1],[0,0.75],[0,0.5],[0,0.25]];outlineConnect=0;gradientColor=none;html=1;whiteSpace=wrap;fontSize=12;fontStyle=0;container=1;pointerEvents=0;collapsible=0;recursiveResize=0;shape=mxgraph.aws4.group;grIcon=mxgraph.aws4.group_elastic_beanstalk;strokeColor=#D86613;fillColor=none;verticalAlign=top;align=left;spacingLeft=30;fontColor=#D86613;dashed=0;" parent="k30-tFSf-Rlm_qtYloIc-1" vertex="1">
          <mxGeometry x="20" y="50" width="260" height="130" as="geometry" />
        </mxCell>
        <mxCell id="k30-tFSf-Rlm_qtYloIc-4" value="CONSUL 注册&amp;amp;配置中心" style="points=[[0,0],[0.25,0],[0.5,0],[0.75,0],[1,0],[1,0.25],[1,0.5],[1,0.75],[1,1],[0.75,1],[0.5,1],[0.25,1],[0,1],[0,0.75],[0,0.5],[0,0.25]];outlineConnect=0;gradientColor=none;html=1;whiteSpace=wrap;fontSize=12;fontStyle=0;container=1;pointerEvents=0;collapsible=0;recursiveResize=0;shape=mxgraph.aws4.group;grIcon=mxgraph.aws4.group_aws_step_functions_workflow;strokeColor=#CD2264;fillColor=none;verticalAlign=top;align=left;spacingLeft=30;fontColor=#CD2264;dashed=0;" parent="k30-tFSf-Rlm_qtYloIc-1" vertex="1">
          <mxGeometry x="400" y="50" width="170" height="130" as="geometry" />
        </mxCell>
        <mxCell id="k30-tFSf-Rlm_qtYloIc-5" value="ECS 仿真实例" style="points=[[0,0],[0.25,0],[0.5,0],[0.75,0],[1,0],[1,0.25],[1,0.5],[1,0.75],[1,1],[0.75,1],[0.5,1],[0.25,1],[0,1],[0,0.75],[0,0.5],[0,0.25]];outlineConnect=0;gradientColor=none;html=1;whiteSpace=wrap;fontSize=12;fontStyle=0;container=1;pointerEvents=0;collapsible=0;recursiveResize=0;shape=mxgraph.aws4.group;grIcon=mxgraph.aws4.group_ec2_instance_contents;strokeColor=#D86613;fillColor=none;verticalAlign=top;align=left;spacingLeft=30;fontColor=#D86613;dashed=0;" parent="k30-tFSf-Rlm_qtYloIc-1" vertex="1">
          <mxGeometry x="400" y="200" width="130" height="130" as="geometry" />
        </mxCell>
      </root>
    </mxGraphModel>
  </diagram>
  <diagram id="bXocQdHct04wPrIo7lDb" name="第 3 页">
    <mxGraphModel dx="960" dy="1860" grid="1" gridSize="10" guides="1" tooltips="1" connect="1" arrows="1" fold="1" page="1" pageScale="1" pageWidth="827" pageHeight="1169" math="0" shadow="0">
      <root>
        <mxCell id="0" />
        <mxCell id="1" parent="0" />
        <mxCell id="hzkMU0cbJIZcWOLTYJ1g-68" style="rounded=0;orthogonalLoop=1;jettySize=auto;html=1;entryX=0.5;entryY=1;entryDx=0;entryDy=0;endArrow=open;endFill=0;dashed=1;exitX=0.002;exitY=0.808;exitDx=0;exitDy=0;exitPerimeter=0;" parent="1" source="hzkMU0cbJIZcWOLTYJ1g-41" target="hzkMU0cbJIZcWOLTYJ1g-13" edge="1">
          <mxGeometry relative="1" as="geometry" />
        </mxCell>
        <mxCell id="hzkMU0cbJIZcWOLTYJ1g-41" value="&lt;b style=&quot;border-color: var(--border-color);&quot;&gt;SimulationEngine&lt;/b&gt;" style="verticalAlign=top;align=center;spacingTop=8;spacingLeft=2;spacingRight=12;shape=cube;size=10;direction=south;fontStyle=4;html=1;whiteSpace=wrap;" parent="1" vertex="1">
          <mxGeometry x="74" y="200" width="576" height="380" as="geometry" />
        </mxCell>
        <mxCell id="hzkMU0cbJIZcWOLTYJ1g-13" value="&lt;p style=&quot;margin:0px;margin-top:6px;text-align:center;&quot;&gt;&lt;b&gt;SimulationService&lt;/b&gt;&lt;/p&gt;&lt;hr&gt;&lt;p style=&quot;margin:0px;margin-left:8px;&quot;&gt;+ receiveJob(SimulationJob)&lt;br&gt;+ handleJob(SimulationJob)&lt;/p&gt;&lt;p style=&quot;margin:0px;margin-left:8px;&quot;&gt;+ stopJob()&lt;/p&gt;&lt;p style=&quot;margin:0px;margin-left:8px;&quot;&gt;+ restartJob()&lt;/p&gt;&lt;p style=&quot;margin:0px;margin-left:8px;&quot;&gt;+ getSimulationJob()&lt;/p&gt;&lt;p style=&quot;margin:0px;margin-left:8px;&quot;&gt;+ notity()&lt;/p&gt;" style="align=left;overflow=fill;html=1;dropTarget=0;whiteSpace=wrap;" parent="1" vertex="1">
          <mxGeometry x="95" y="20" width="180" height="130" as="geometry" />
        </mxCell>
        <mxCell id="hzkMU0cbJIZcWOLTYJ1g-14" value="" style="shape=component;jettyWidth=8;jettyHeight=4;" parent="hzkMU0cbJIZcWOLTYJ1g-13" vertex="1">
          <mxGeometry x="1" width="20" height="20" relative="1" as="geometry">
            <mxPoint x="-24" y="4" as="offset" />
          </mxGeometry>
        </mxCell>
        <mxCell id="hzkMU0cbJIZcWOLTYJ1g-15" value="&lt;p style=&quot;margin:0px;margin-top:6px;text-align:center;&quot;&gt;&lt;b&gt;SimulationDriver&lt;/b&gt;&lt;/p&gt;&lt;hr&gt;&lt;p style=&quot;margin:0px;margin-left:8px;&quot;&gt;+ start()&lt;br&gt;+ teardown()&lt;/p&gt;&lt;p style=&quot;margin:0px;margin-left:8px;&quot;&gt;+ callback()&lt;/p&gt;&lt;p style=&quot;margin:0px;margin-left:8px;&quot;&gt;+ checkHealth()&lt;/p&gt;&lt;p style=&quot;margin:0px;margin-left:8px;&quot;&gt;+ publishEvent(DriverProcess)&lt;/p&gt;" style="align=left;overflow=fill;html=1;dropTarget=0;whiteSpace=wrap;" parent="1" vertex="1">
          <mxGeometry x="400" y="450" width="210" height="110" as="geometry" />
        </mxCell>
        <mxCell id="hzkMU0cbJIZcWOLTYJ1g-16" value="" style="shape=component;jettyWidth=8;jettyHeight=4;" parent="hzkMU0cbJIZcWOLTYJ1g-15" vertex="1">
          <mxGeometry x="1" width="20" height="20" relative="1" as="geometry">
            <mxPoint x="-24" y="4" as="offset" />
          </mxGeometry>
        </mxCell>
        <mxCell id="hzkMU0cbJIZcWOLTYJ1g-17" value="&lt;p style=&quot;margin:0px;margin-top:6px;text-align:center;&quot;&gt;&lt;b&gt;SimulationJobScheduler&lt;/b&gt;&lt;/p&gt;&lt;hr&gt;&lt;p style=&quot;margin:0px;margin-left:8px;&quot;&gt;+ submit(SimulationJob)&lt;/p&gt;&lt;p style=&quot;margin:0px;margin-left:8px;&quot;&gt;+&amp;nbsp;shutdown(SimulationJob)&lt;/p&gt;&lt;p style=&quot;margin:0px;margin-left:8px;&quot;&gt;&lt;span style=&quot;background-color: initial;&quot;&gt;+ setPriority(int priority)&lt;/span&gt;&lt;/p&gt;&lt;p style=&quot;margin:0px;margin-left:8px;&quot;&gt;&lt;span style=&quot;background-color: initial;&quot;&gt;+ setOrder(int order)&lt;/span&gt;&lt;/p&gt;" style="align=left;overflow=fill;html=1;dropTarget=0;whiteSpace=wrap;" parent="1" vertex="1">
          <mxGeometry x="90" y="250" width="190" height="110" as="geometry" />
        </mxCell>
        <mxCell id="hzkMU0cbJIZcWOLTYJ1g-18" value="" style="shape=component;jettyWidth=8;jettyHeight=4;" parent="hzkMU0cbJIZcWOLTYJ1g-17" vertex="1">
          <mxGeometry x="1" width="20" height="20" relative="1" as="geometry">
            <mxPoint x="-24" y="4" as="offset" />
          </mxGeometry>
        </mxCell>
        <mxCell id="hzkMU0cbJIZcWOLTYJ1g-67" style="edgeStyle=orthogonalEdgeStyle;rounded=0;orthogonalLoop=1;jettySize=auto;html=1;exitX=0.5;exitY=0;exitDx=0;exitDy=0;entryX=0.5;entryY=1;entryDx=0;entryDy=0;endArrow=none;endFill=0;dashed=1;startArrow=open;startFill=0;" parent="1" source="hzkMU0cbJIZcWOLTYJ1g-19" target="hzkMU0cbJIZcWOLTYJ1g-23" edge="1">
          <mxGeometry relative="1" as="geometry" />
        </mxCell>
        <mxCell id="hzkMU0cbJIZcWOLTYJ1g-19" value="&lt;p style=&quot;margin:0px;margin-top:6px;text-align:center;&quot;&gt;&lt;b&gt;SimulationJobOrchestrator&lt;/b&gt;&lt;/p&gt;&lt;hr&gt;&lt;p style=&quot;margin:0px;margin-left:8px;&quot;&gt;+ load() : SimulationJob&lt;br&gt;+ prepare()&lt;/p&gt;&lt;p style=&quot;margin:0px;margin-left:8px;&quot;&gt;+ launch()&lt;/p&gt;&lt;p style=&quot;margin:0px;margin-left:8px;&quot;&gt;+ run()&lt;/p&gt;&lt;p style=&quot;margin:0px;margin-left:8px;&quot;&gt;+ publishEvent(JobStateEvent)&lt;/p&gt;" style="align=left;overflow=fill;html=1;dropTarget=0;whiteSpace=wrap;" parent="1" vertex="1">
          <mxGeometry x="400" y="250" width="210" height="110" as="geometry" />
        </mxCell>
        <mxCell id="hzkMU0cbJIZcWOLTYJ1g-20" value="" style="shape=component;jettyWidth=8;jettyHeight=4;" parent="hzkMU0cbJIZcWOLTYJ1g-19" vertex="1">
          <mxGeometry x="1" width="20" height="20" relative="1" as="geometry">
            <mxPoint x="-24" y="4" as="offset" />
          </mxGeometry>
        </mxCell>
        <mxCell id="hzkMU0cbJIZcWOLTYJ1g-23" value="&lt;p style=&quot;margin:0px;margin-top:6px;text-align:center;&quot;&gt;&lt;b&gt;SimulationScheme&lt;/b&gt;&lt;/p&gt;&lt;hr&gt;&lt;p style=&quot;margin:0px;margin-left:8px;&quot;&gt;+ scheme：object&lt;br&gt;&lt;/p&gt;&lt;p style=&quot;margin:0px;margin-left:8px;&quot;&gt;+&amp;nbsp; ......&lt;br&gt;&lt;/p&gt;" style="align=left;overflow=fill;html=1;dropTarget=0;whiteSpace=wrap;" parent="1" vertex="1">
          <mxGeometry x="415" y="60" width="180" height="70" as="geometry" />
        </mxCell>
        <mxCell id="hzkMU0cbJIZcWOLTYJ1g-24" value="" style="shape=component;jettyWidth=8;jettyHeight=4;" parent="hzkMU0cbJIZcWOLTYJ1g-23" vertex="1">
          <mxGeometry x="1" width="20" height="20" relative="1" as="geometry">
            <mxPoint x="-24" y="4" as="offset" />
          </mxGeometry>
        </mxCell>
        <mxCell id="hzkMU0cbJIZcWOLTYJ1g-26" value="&lt;p style=&quot;margin:0px;margin-top:6px;text-align:center;&quot;&gt;&lt;b&gt;SimulationDataCollector&lt;/b&gt;&lt;/p&gt;&lt;hr&gt;&lt;p style=&quot;margin:0px;margin-left:8px;&quot;&gt;+ collectorData(DataType)&lt;br&gt;+ processData(SimulationData)&lt;/p&gt;&lt;p style=&quot;margin:0px;margin-left:8px;&quot;&gt;+ getSimulationData()&lt;/p&gt;&lt;p style=&quot;margin:0px;margin-left:8px;&quot;&gt;+ getSimulationDataStream()&lt;/p&gt;" style="align=left;overflow=fill;html=1;dropTarget=0;whiteSpace=wrap;" parent="1" vertex="1">
          <mxGeometry x="90" y="450" width="190" height="110" as="geometry" />
        </mxCell>
        <mxCell id="hzkMU0cbJIZcWOLTYJ1g-27" value="" style="shape=component;jettyWidth=8;jettyHeight=4;" parent="hzkMU0cbJIZcWOLTYJ1g-26" vertex="1">
          <mxGeometry x="1" width="20" height="20" relative="1" as="geometry">
            <mxPoint x="-24" y="4" as="offset" />
          </mxGeometry>
        </mxCell>
        <mxCell id="hzkMU0cbJIZcWOLTYJ1g-44" value="" style="shape=component;jettyWidth=8;jettyHeight=4;" parent="1" vertex="1">
          <mxGeometry x="615" y="215" width="20" height="20" as="geometry" />
        </mxCell>
        <mxCell id="hzkMU0cbJIZcWOLTYJ1g-45" value="" style="rounded=0;orthogonalLoop=1;jettySize=auto;html=1;endArrow=none;endFill=0;sketch=0;sourcePerimeterSpacing=0;targetPerimeterSpacing=0;exitX=0;exitY=0.5;exitDx=0;exitDy=0;" parent="1" source="hzkMU0cbJIZcWOLTYJ1g-19" target="hzkMU0cbJIZcWOLTYJ1g-47" edge="1">
          <mxGeometry relative="1" as="geometry">
            <mxPoint x="320" y="325" as="sourcePoint" />
          </mxGeometry>
        </mxCell>
        <mxCell id="hzkMU0cbJIZcWOLTYJ1g-46" value="" style="rounded=0;orthogonalLoop=1;jettySize=auto;html=1;endArrow=halfCircle;endFill=0;entryX=0.5;entryY=0.5;endSize=6;strokeWidth=1;sketch=0;exitX=1;exitY=0.5;exitDx=0;exitDy=0;" parent="1" source="hzkMU0cbJIZcWOLTYJ1g-17" target="hzkMU0cbJIZcWOLTYJ1g-47" edge="1">
          <mxGeometry relative="1" as="geometry">
            <mxPoint x="360" y="325" as="sourcePoint" />
          </mxGeometry>
        </mxCell>
        <mxCell id="hzkMU0cbJIZcWOLTYJ1g-47" value="" style="ellipse;whiteSpace=wrap;align=center;aspect=fixed;resizable=0;points=[];outlineConnect=0;sketch=0;verticalAlign=middle;fontStyle=4;spacingTop=10;labelBorderColor=none;" parent="1" vertex="1">
          <mxGeometry x="340" y="300" width="10" height="10" as="geometry" />
        </mxCell>
        <mxCell id="hzkMU0cbJIZcWOLTYJ1g-51" style="edgeStyle=orthogonalEdgeStyle;rounded=0;orthogonalLoop=1;jettySize=auto;html=1;exitX=0.5;exitY=0;exitDx=0;exitDy=0;entryX=0.5;entryY=1;entryDx=0;entryDy=0;endArrow=open;endFill=0;dashed=1;" parent="1" source="c4feoEflkHWK29WE08mI-2" target="hzkMU0cbJIZcWOLTYJ1g-26" edge="1">
          <mxGeometry relative="1" as="geometry">
            <mxPoint x="185" y="640" as="sourcePoint" />
          </mxGeometry>
        </mxCell>
        <mxCell id="hzkMU0cbJIZcWOLTYJ1g-58" value="" style="rounded=0;orthogonalLoop=1;jettySize=auto;html=1;endArrow=none;endFill=0;sketch=0;sourcePerimeterSpacing=0;targetPerimeterSpacing=0;exitX=0.5;exitY=0;exitDx=0;exitDy=0;" parent="1" source="hzkMU0cbJIZcWOLTYJ1g-15" target="hzkMU0cbJIZcWOLTYJ1g-60" edge="1">
          <mxGeometry relative="1" as="geometry">
            <mxPoint x="470" y="575" as="sourcePoint" />
          </mxGeometry>
        </mxCell>
        <mxCell id="hzkMU0cbJIZcWOLTYJ1g-59" value="" style="rounded=0;orthogonalLoop=1;jettySize=auto;html=1;endArrow=halfCircle;endFill=0;entryX=0.5;entryY=0.5;endSize=6;strokeWidth=1;sketch=0;exitX=0.5;exitY=1;exitDx=0;exitDy=0;" parent="1" source="hzkMU0cbJIZcWOLTYJ1g-19" target="hzkMU0cbJIZcWOLTYJ1g-60" edge="1">
          <mxGeometry relative="1" as="geometry">
            <mxPoint x="505" y="530" as="sourcePoint" />
          </mxGeometry>
        </mxCell>
        <mxCell id="hzkMU0cbJIZcWOLTYJ1g-60" value="" style="ellipse;whiteSpace=wrap;html=1;align=center;aspect=fixed;resizable=0;points=[];outlineConnect=0;sketch=0;" parent="1" vertex="1">
          <mxGeometry x="500" y="400" width="10" height="10" as="geometry" />
        </mxCell>
        <mxCell id="hzkMU0cbJIZcWOLTYJ1g-61" value="" style="rounded=0;orthogonalLoop=1;jettySize=auto;html=1;endArrow=none;endFill=0;sketch=0;sourcePerimeterSpacing=0;targetPerimeterSpacing=0;exitX=0;exitY=0.5;exitDx=0;exitDy=0;" parent="1" source="hzkMU0cbJIZcWOLTYJ1g-15" target="hzkMU0cbJIZcWOLTYJ1g-63" edge="1">
          <mxGeometry relative="1" as="geometry">
            <mxPoint x="280" y="605" as="sourcePoint" />
          </mxGeometry>
        </mxCell>
        <mxCell id="hzkMU0cbJIZcWOLTYJ1g-62" value="" style="rounded=0;orthogonalLoop=1;jettySize=auto;html=1;endArrow=halfCircle;endFill=0;entryX=0.5;entryY=0.5;endSize=6;strokeWidth=1;sketch=0;exitX=1;exitY=0.5;exitDx=0;exitDy=0;" parent="1" source="hzkMU0cbJIZcWOLTYJ1g-26" target="hzkMU0cbJIZcWOLTYJ1g-63" edge="1">
          <mxGeometry relative="1" as="geometry">
            <mxPoint x="320" y="605" as="sourcePoint" />
          </mxGeometry>
        </mxCell>
        <mxCell id="hzkMU0cbJIZcWOLTYJ1g-63" value="" style="ellipse;whiteSpace=wrap;html=1;align=center;aspect=fixed;resizable=0;points=[];outlineConnect=0;sketch=0;" parent="1" vertex="1">
          <mxGeometry x="350" y="500" width="10" height="10" as="geometry" />
        </mxCell>
        <mxCell id="c4feoEflkHWK29WE08mI-1" value="&lt;h1&gt;概念术语解释&lt;/h1&gt;&lt;p&gt;1. Simulation Service: 仿真对外服务，用于接受仿真规划方案/执行仿真方案&lt;/p&gt;&lt;p&gt;2. Simulation Scheme: 定义仿真场景模型，用于收集仿真信息以及模型的解析与加载&lt;/p&gt;&lt;p&gt;3. Simulation Job Scheduler:仿真任务调度器，根据仿真方案输入参数进行求解，调度运行仿真任务&lt;/p&gt;&lt;p&gt;4. Simulation Job Orchestrator: 接受仿真任务调度器的调度，执行仿真任务编排，加载并运行仿真实例&lt;/p&gt;&lt;p&gt;5. Simulation Data Collector: 仿真数据收集器，收集仿真任务的过程及结果数据，对数据进行处理留存，并对外提供仿真结果数据&lt;/p&gt;&lt;p&gt;6. Simulation Driver: 仿真驱动器，负责启动加载并运行仿真实例（ecs,k8s,pid）&lt;/p&gt;&lt;p&gt;7. Simulation Playback: 仿真回放，对外提供仿真结果回放及仿真过程实时直播的能力&lt;/p&gt;" style="text;html=1;strokeColor=none;fillColor=none;spacing=5;spacingTop=-20;whiteSpace=wrap;overflow=hidden;rounded=0;" vertex="1" parent="1">
          <mxGeometry x="95" y="-240" width="745" height="230" as="geometry" />
        </mxCell>
        <mxCell id="c4feoEflkHWK29WE08mI-2" value="&lt;p style=&quot;margin:0px;margin-top:6px;text-align:center;&quot;&gt;&lt;b style=&quot;border-color: var(--border-color);&quot;&gt;SimulationPlayback&lt;/b&gt;&lt;br&gt;&lt;/p&gt;&lt;hr&gt;&lt;p style=&quot;margin:0px;margin-left:8px;&quot;&gt;+ broadcast(SimulationDataStream)&lt;br style=&quot;border-color: var(--border-color);&quot;&gt;+ playback(SimulationDataStream)&lt;br&gt;&lt;/p&gt;" style="align=left;overflow=fill;html=1;dropTarget=0;whiteSpace=wrap;" vertex="1" parent="1">
          <mxGeometry x="75" y="640" width="220" height="110" as="geometry" />
        </mxCell>
        <mxCell id="c4feoEflkHWK29WE08mI-3" value="" style="shape=component;jettyWidth=8;jettyHeight=4;" vertex="1" parent="c4feoEflkHWK29WE08mI-2">
          <mxGeometry x="1" width="20" height="20" relative="1" as="geometry">
            <mxPoint x="-24" y="4" as="offset" />
          </mxGeometry>
        </mxCell>
      </root>
    </mxGraphModel>
  </diagram>
</mxfile>
